 <svg  version="1.0" xmlns="http://www.w3.org/2000/svg"  width="300.000000pt" height="290.000000pt" viewBox="0 0 300.000000 290.000000"  preserveAspectRatio="xMidYMid meet">  <g transform="translate(0.000000,290.000000) scale(0.100000,-0.100000)" fill="#046307" stroke="none"> <path d="M1436 2864 l-28 -25 -35 21 c-19 11 -40 20 -47 20 -17 0 -68 -55 -59 -63 3 -4 1 -7 -5 -7 -7 0 -12 3 -12 8 0 14 -53 33 -64 22 -7 -7 -5 -10 6 -10 8 0 21 -6 27 -14 10 -11 9 -16 -5 -24 -15 -8 -15 -10 0 -15 16 -6 23 -47 8 -47 -5 0 -9 -14 -9 -31 0 -31 1 -31 41 -25 23 3 69 9 104 12 50 6 62 10 57 22 -4 11 -2 12 7 5 7 -6 63 -13 123 -16 242 -14 457 -83 641 -207 52 -36 74 -46 86 -39 10 6 19 6 23 0 3 -5 -2 -14 -10 -18 -13 -8 -12 -11 10 -23 28 -15 32 -25 10 -34 -9 -3 -43 16 -84 47 -75 57 -229 143 -238 134 -3 -4 -12 0 -20 8 -20 21 -162 63 -273 81 -137 23 -352 14 -480 -20 -113 -29 -218 -73 -320 -132 -87 -50 -196 -136 -193 -152 2 -6 -4 -9 -11 -6 -11 4 -13 0 -9 -15 7 -27 11 -26 52 10 27 25 31 33 20 41 -11 8 -10 9 3 4 10 -3 20 -1 23 5 4 5 23 17 43 28 20 10 66 36 102 58 36 22 105 56 154 75 49 19 83 38 75 40 -8 3 -11 9 -6 13 4 5 13 3 19 -3 17 -17 26 -15 31 6 4 14 5 14 6 1 1 -14 7 -15 41 -5 28 7 39 15 35 24 -4 11 -1 12 12 6 23 -11 141 -6 165 7 12 6 18 6 18 -1 0 -5 20 -10 45 -10 27 0 45 5 45 11 0 8 4 8 13 1 7 -6 38 -13 69 -15 31 -3 60 -7 64 -10 5 -2 29 -8 54 -12 25 -4 67 -16 94 -26 27 -10 53 -16 59 -12 5 3 12 1 16 -5 11 -17 112 -61 129 -55 15 4 15 3 2 -6 -9 -6 -10 -11 -3 -11 15 0 193 -119 193 -128 0 -4 -51 -36 -112 -70 -221 -123 -363 -210 -361 -220 2 -6 -3 -9 -10 -6 -7 2 -66 -26 -130 -63 -65 -37 -129 -74 -142 -81 -25 -13 -30 -23 -19 -34 6 -7 123 60 148 85 10 9 24 17 31 17 8 0 38 14 67 32 29 17 63 38 76 45 12 8 20 18 17 23 -3 6 0 7 8 4 14 -5 209 101 215 118 2 4 8 8 14 8 6 0 58 27 115 61 59 34 111 58 119 55 9 -3 13 -10 10 -14 -3 -5 -63 -42 -133 -82 -282 -161 -438 -253 -446 -261 -4 -5 -4 -7 -1 -4 4 2 15 -7 26 -20 13 -17 30 -25 51 -25 27 -1 29 -2 14 -11 -14 -8 -16 -14 -6 -25 18 -22 39 -17 104 23 73 44 136 64 175 56 45 -8 114 -75 143 -137 14 -30 34 -59 44 -64 10 -6 14 -14 10 -18 -4 -4 -14 1 -22 12 -13 18 -14 17 -15 -16 0 -19 -9 -49 -19 -66 -18 -30 -95 -99 -110 -99 -4 0 -37 -17 -72 -38 -58 -35 -65 -37 -74 -21 -5 9 -18 25 -27 35 -16 17 -16 19 -2 27 15 8 15 11 1 33 -8 13 -29 49 -46 79 -18 33 -36 54 -46 54 -13 -2 -14 1 -3 14 11 13 10 15 -4 9 -24 -9 -68 61 -47 74 8 5 18 9 22 9 4 0 -4 11 -20 24 -15 13 -31 20 -34 15 -3 -6 -17 -8 -30 -6 -60 10 -121 -35 -90 -66 6 -6 11 -16 11 -22 0 -5 -4 -4 -9 4 -7 11 -12 6 -19 -20 -5 -19 -8 -36 -6 -38 2 -2 16 6 33 18 l30 22 20 -40 c12 -22 17 -41 13 -44 -4 -2 -1 -2 5 -1 7 2 16 -4 21 -13 10 -17 32 -10 32 12 0 22 27 25 46 4 16 -17 16 -19 1 -19 -10 0 -17 6 -17 13 0 6 -10 -1 -21 -16 -16 -21 -24 -25 -34 -17 -18 15 -29 -5 -12 -22 7 -7 19 -28 26 -46 9 -21 19 -31 27 -28 8 3 14 1 14 -4 0 -6 -5 -10 -10 -10 -6 0 -3 -12 6 -26 11 -16 20 -21 24 -14 5 8 15 -1 29 -23 26 -43 26 -49 -2 -63 -12 -5 -48 -25 -80 -43 -32 -18 -60 -31 -61 -29 -37 56 -49 97 -25 82 6 -3 0 12 -13 35 -12 22 -26 41 -29 41 -3 0 -15 -9 -28 -21 -12 -12 -25 -18 -28 -15 -8 8 17 36 33 36 8 0 14 5 14 11 0 6 -9 8 -20 4 -23 -7 -27 10 -5 22 12 7 11 13 -6 40 -13 20 -26 30 -35 26 -17 -6 -18 -20 -2 -25 6 -2 13 -19 14 -38 2 -35 -24 -70 -53 -70 -15 0 -17 16 -3 25 6 3 10 1 10 -6 0 -8 4 -8 15 1 18 15 13 23 -16 27 -13 2 -23 -5 -28 -20 -8 -20 -10 -20 -16 -4 -4 9 -2 24 5 32 10 13 8 20 -14 40 -15 14 -24 30 -21 35 3 6 -9 1 -28 -10 l-34 -20 5 31 c4 26 8 30 28 26 14 -2 24 1 24 7 0 6 5 3 11 -7 7 -12 17 -16 30 -12 17 6 18 4 8 -19 -10 -22 -9 -28 12 -45 24 -20 59 -28 59 -13 0 11 -20 38 -20 27 0 -5 -4 -3 -9 4 -5 8 -6 22 -2 30 10 19 3 43 -10 35 -5 -3 -9 5 -9 18 0 16 12 30 39 45 33 19 39 27 36 50 -2 16 3 38 11 51 10 15 11 22 3 22 -8 0 -7 5 2 16 11 14 6 15 -52 8 -35 -4 -65 -11 -67 -15 -2 -5 -9 -9 -16 -9 -7 0 -24 -10 -38 -23 -14 -13 -30 -21 -36 -19 -7 2 -12 -1 -12 -7 0 -6 -6 -11 -12 -11 -22 -1 -233 -127 -233 -139 0 -16 -28 -32 -35 -21 -6 10 -309 -159 -310 -172 0 -5 7 -8 15 -8 8 0 15 5 15 11 0 5 5 7 11 3 8 -5 8 -9 -1 -14 -8 -5 -4 -10 12 -15 18 -6 20 -8 6 -12 -9 -2 -19 -11 -22 -19 -4 -11 0 -13 19 -8 14 3 25 4 25 1 0 -9 -46 -57 -54 -57 -3 0 -23 -11 -44 -24 -20 -12 -47 -26 -59 -30 -20 -6 -22 -4 -20 33 1 23 5 41 10 41 4 0 5 -4 2 -10 -3 -5 0 -7 8 -4 8 3 13 13 10 23 -5 20 46 47 71 38 26 -10 27 23 2 34 -20 9 -32 7 -70 -16 -25 -15 -46 -32 -46 -38 0 -25 -45 -107 -62 -113 -25 -8 -23 -34 3 -34 12 0 23 8 26 20 3 11 9 17 15 14 5 -3 4 -12 -3 -20 -9 -11 -9 -14 1 -14 7 0 10 -7 7 -15 -4 -8 -2 -17 4 -21 6 -3 7 -19 3 -37 -6 -29 -5 -30 10 -18 9 8 19 11 23 7 10 -10 -3 -18 -31 -20 -14 0 -28 -8 -31 -16 -5 -13 -7 -13 -15 0 -8 12 -10 10 -11 -10 -1 -14 -1 -31 0 -37 1 -7 -7 -13 -18 -13 -21 0 -41 -27 -34 -46 2 -6 -8 -23 -23 -37 -15 -15 -21 -27 -15 -27 7 0 10 -4 7 -9 -4 -5 -2 -20 3 -33 9 -21 10 -21 11 -3 1 11 1 29 1 41 -2 24 23 49 39 39 15 -9 12 -25 -5 -25 -8 0 -15 -4 -15 -10 0 -5 8 -10 18 -10 10 0 13 -3 6 -8 -6 -4 -15 -18 -19 -32 -7 -24 -6 -24 11 -8 10 10 19 30 20 45 1 16 2 36 3 46 0 9 8 17 16 17 8 0 15 7 15 15 0 8 5 15 12 15 6 0 9 3 6 6 -3 3 5 16 18 29 13 13 24 33 24 43 0 11 7 23 16 26 25 9 54 7 54 -5 0 -5 5 -7 10 -4 7 4 10 -6 8 -29 -1 -21 -7 -36 -14 -36 -18 0 -27 17 -12 23 7 2 10 8 6 12 -4 4 -17 0 -30 -9 l-23 -16 23 -6 c22 -6 30 -28 13 -39 -5 -3 -12 3 -14 12 -4 14 -5 13 -6 -4 -1 -18 4 -21 27 -19 15 2 30 -2 34 -8 6 -8 8 -8 8 1 0 6 -7 19 -16 27 -8 9 -11 16 -5 16 5 0 12 -4 16 -10 3 -5 13 -6 22 -3 13 5 14 3 6 -12 -8 -14 -6 -23 13 -42 13 -13 24 -28 24 -33 0 -20 67 -79 94 -84 31 -6 49 -23 42 -43 -5 -13 13 -22 31 -16 10 3 11 26 7 85 -6 79 -6 80 16 68 19 -10 20 -13 7 -28 -8 -9 -13 -26 -10 -37 2 -11 5 -30 6 -42 2 -28 11 -29 35 -6 10 10 24 19 31 21 7 1 48 24 91 50 75 44 78 47 57 59 -12 7 -18 12 -14 13 8 0 -3 15 -40 56 -13 14 -23 29 -23 34 0 4 -13 20 -30 33 -16 14 -30 35 -30 46 0 10 -4 21 -10 23 -5 2 -7 12 -4 24 4 16 11 20 30 16 25 -5 31 -16 14 -27 -7 -4 -2 -16 12 -30 33 -32 68 -78 68 -89 0 -6 9 -19 19 -30 11 -12 26 -34 34 -49 l15 -29 21 21 c12 12 25 21 30 21 17 0 151 81 151 91 0 6 4 8 9 4 9 -5 109 49 121 66 3 3 15 9 27 13 12 4 25 16 29 28 4 12 9 16 13 10 4 -6 12 -8 18 -4 17 10 27 59 14 66 -10 7 -16 -7 -12 -28 1 -5 -4 -6 -12 -3 -8 3 -25 -4 -38 -16 -13 -12 -43 -32 -66 -44 -41 -21 -42 -21 -62 -2 -11 10 -26 19 -33 19 -9 1 -7 5 4 14 10 7 15 16 11 19 -3 4 4 5 15 2 28 -5 74 36 78 70 4 42 19 50 44 25 l22 -22 -7 22 c-6 20 -5 21 14 10 12 -6 26 -8 31 -5 6 3 10 -1 10 -10 0 -11 6 -14 25 -9 14 3 25 2 25 -3 0 -5 12 -9 27 -8 14 0 28 -7 31 -15 4 -12 2 -13 -9 -3 -17 14 -82 10 -87 -6 -2 -6 1 -11 7 -11 6 0 11 -9 11 -20 0 -18 2 -19 20 -8 11 7 20 18 20 25 0 7 7 10 15 7 8 -3 27 3 42 13 15 11 60 37 98 58 39 21 72 41 75 45 3 3 13 9 23 13 9 3 17 16 17 27 0 22 16 28 22 8 3 -8 16 -5 44 11 21 13 55 33 74 44 166 94 324 186 368 214 30 19 51 29 47 23 -4 -6 -1 -17 5 -25 9 -11 9 -15 1 -15 -17 0 -401 -221 -401 -231 0 -5 -7 -9 -15 -9 -9 0 -39 -15 -68 -33 -29 -18 -65 -40 -82 -48 -16 -9 -100 -56 -185 -106 -85 -49 -231 -134 -325 -188 -223 -128 -219 -125 -208 -136 6 -6 53 16 126 59 64 38 113 72 110 76 -4 3 3 6 13 6 11 0 41 13 67 30 26 16 52 30 58 30 5 0 12 6 15 13 3 8 11 14 17 14 7 0 110 56 227 125 118 68 267 154 330 190 63 36 161 93 218 127 68 40 104 56 107 48 3 -6 8 -60 13 -120 6 -82 4 -135 -9 -225 -9 -64 -15 -120 -12 -124 2 -5 0 -8 -5 -8 -5 0 -14 -23 -20 -50 -27 -117 -162 -358 -247 -440 -19 -19 -35 -39 -35 -46 0 -6 -9 -14 -20 -17 -14 -4 -18 -10 -13 -23 5 -13 3 -16 -8 -12 -8 3 -29 -7 -47 -22 l-33 -28 27 -6 c24 -6 35 1 96 61 37 37 68 70 68 74 0 4 16 24 36 45 82 89 184 293 223 447 18 68 41 225 41 276 0 20 -2 21 -15 11 -19 -16 -19 -6 1 25 13 21 14 36 4 121 -9 77 -9 98 1 105 14 8 41 -34 34 -54 -3 -7 -1 -34 4 -62 6 -40 10 -46 16 -30 4 11 15 28 23 38 10 11 11 17 4 17 -7 0 -12 12 -12 28 0 15 -7 40 -15 56 -8 15 -15 39 -15 51 0 23 -42 60 -70 60 -16 0 -18 22 -5 70 8 27 7 29 -8 16 -10 -7 -17 -20 -17 -27 0 -8 -7 -14 -15 -14 -13 0 -16 -8 -15 -37 1 -5 10 -7 22 -5 13 3 19 -1 16 -10 -3 -7 -17 -12 -32 -11 -22 1 -26 -2 -26 -25 -1 -24 -2 -25 -11 -9 -8 14 -6 30 9 68 12 27 17 51 12 54 -11 7 -30 -26 -30 -50 0 -11 -5 -15 -16 -11 -10 4 -13 2 -8 -6 10 -16 14 -72 6 -85 -4 -6 -31 -23 -59 -38 -36 -18 -50 -30 -46 -40 6 -17 -8 -20 -23 -5 -6 6 -25 -3 -53 -25 -24 -19 -52 -35 -62 -35 -11 0 -19 -6 -19 -14 0 -7 -9 -16 -19 -19 -14 -3 -18 -1 -14 9 3 8 9 14 14 14 5 0 9 7 9 15 0 12 -3 12 -20 -2 -11 -10 -20 -22 -20 -28 0 -15 -110 -84 -125 -79 -19 8 -11 68 9 72 9 2 16 13 16 25 0 15 3 18 9 9 6 -10 18 -5 49 20 23 18 39 39 37 46 -3 7 0 10 5 7 9 -5 12 1 9 21 0 4 4 10 10 13 6 4 17 31 25 61 12 49 12 58 -2 83 -9 15 -23 27 -31 27 -8 0 -11 3 -8 7 4 3 0 14 -9 24 -10 11 -15 28 -12 43 3 16 1 23 -5 19 -6 -4 -8 0 -4 10 3 9 0 18 -8 21 -11 4 -13 -2 -8 -27 l6 -32 -25 23 c-13 12 -31 22 -39 22 -25 0 -21 65 5 78 31 16 88 29 109 24 32 -7 17 -19 -25 -19 -45 0 -68 -20 -68 -60 0 -32 16 -29 31 6 16 35 80 58 99 36 6 -7 31 -18 55 -25 25 -7 49 -19 53 -26 4 -7 9 -13 12 -13 3 0 18 -5 34 -11 16 -6 31 -8 34 -5 3 3 1 5 -5 5 -6 0 -35 16 -64 36 -30 20 -63 36 -75 36 -11 0 -26 9 -33 20 -15 24 -7 35 13 19 8 -7 21 -9 28 -5 7 4 10 4 6 -1 -7 -8 85 -68 122 -80 35 -11 21 4 -22 24 -24 11 -57 35 -75 54 -32 34 -32 34 -109 30 l-77 -4 17 25 c20 31 20 50 1 66 -8 7 -12 16 -9 21 8 13 22 11 27 -3 2 -7 2 -3 0 9 -4 28 63 74 121 82 52 8 65 30 44 74 -14 30 -15 37 -2 55 18 25 1 42 -40 39 -38 -3 -71 39 -62 79 5 24 12 29 36 29 25 0 32 -6 45 -37 8 -21 17 -38 21 -38 3 0 2 5 -2 12 -5 8 -2 9 10 5 10 -4 21 -7 24 -7 4 0 0 -5 -8 -10 -11 -7 -7 -10 18 -10 25 0 35 -6 43 -24 12 -25 42 -25 32 -1 -6 17 52 55 83 55 35 0 60 -29 130 -150 37 -63 74 -129 84 -146 10 -16 25 -45 35 -63 12 -23 20 -30 27 -23 16 16 -188 370 -224 388 -38 20 -88 17 -123 -6 -19 -12 -32 -16 -36 -9 -3 6 -22 14 -40 18 -25 5 -38 15 -47 36 -24 55 -29 60 -63 63 -19 1 -41 6 -49 9 -8 3 -21 5 -27 4 -16 -2 -17 16 -2 21 9 3 9 10 0 26 -10 18 -20 22 -61 22 -40 0 -51 4 -60 21 -26 47 -41 57 -74 48 -41 -12 -58 -5 -78 31 -19 33 -34 36 -86 18 -33 -12 -35 -11 -62 22 -30 37 -26 37 -101 6 -11 -5 -29 3 -53 24 l-36 32 -34 -21 c-41 -26 -51 -26 -83 -1 -33 26 -52 25 -87 -6z m-118 -28 c-2 -3 4 -11 12 -18 8 -7 13 -12 11 -11 -2 2 -11 -6 -18 -17 -8 -11 -19 -18 -25 -14 -6 4 -6 10 1 17 6 6 11 25 12 42 0 16 3 24 6 18 2 -7 3 -15 1 -17z m206 -3 c29 -14 42 -15 72 -5 32 10 41 8 65 -8 30 -22 89 -26 107 -8 9 9 12 7 12 -10 0 -12 5 -22 10 -22 6 0 10 5 10 10 0 6 5 10 11 10 6 0 8 -8 4 -19 -5 -16 -2 -18 16 -14 27 7 39 -11 29 -46 -8 -29 -12 -30 -125 -11 -38 6 -110 13 -160 16 -112 5 -155 12 -155 25 0 6 4 8 9 5 5 -3 14 1 20 8 10 12 8 14 -11 9 -22 -4 -22 -4 -5 10 14 11 15 16 5 20 -9 4 -6 12 11 26 28 25 31 25 75 4z m-129 -44 c6 -27 1 -49 -9 -38 -10 11 -17 69 -8 69 6 0 13 -14 17 -31z m-110 -6 c8 -21 7 -23 -2 -22 -5 1 -7 5 -5 10 1 5 -2 9 -8 9 -5 0 -10 5 -10 10 0 17 17 11 25 -7z m76 -13 c5 0 9 -4 9 -10 0 -14 -43 -6 -48 10 -3 9 1 11 12 7 10 -4 22 -7 27 -7z m589 -8 c0 -16 59 -42 95 -42 27 0 42 -7 60 -27 13 -16 25 -33 25 -39 0 -16 52 -37 60 -24 4 6 14 2 28 -13 l21 -23 -19 -32 c-20 -32 -20 -32 1 -32 16 0 19 4 14 20 -3 11 -2 20 3 20 16 0 29 -42 23 -76 0 -4 -7 -2 -13 4 -7 5 -46 26 -85 47 -40 20 -73 41 -73 46 0 5 -7 9 -16 9 -8 0 -12 4 -9 10 3 6 -1 7 -10 4 -8 -3 -36 4 -63 17 -26 12 -53 22 -59 20 -17 -3 -16 7 1 57 11 29 11 43 3 51 -8 8 -8 11 1 11 7 0 12 -4 12 -8z m-622 -35 c3 -16 0 -18 -19 -12 -13 4 -29 13 -36 20 -10 11 -7 13 20 12 22 -2 33 -8 35 -20z m587 3 c0 -7 -6 -15 -12 -17 -8 -3 -13 4 -13 17 0 13 5 20 13 18 6 -3 12 -11 12 -18z m-14 -45 c0 -14 -41 -19 -41 -5 0 6 5 8 10 5 6 -3 10 -1 10 5 0 7 5 10 11 8 6 -2 10 -8 10 -13z m477 -263 c2 -7 -3 -12 -12 -12 -9 0 -16 7 -16 16 0 17 22 14 28 -4z m-18 -67 c9 -11 9 -15 1 -15 -7 0 -5 -9 5 -25 17 -26 17 -26 -8 -15 -28 13 -51 46 -43 60 9 15 31 12 45 -5z m-180 -170 c0 -20 -29 -59 -53 -72 -22 -11 -28 -20 -24 -35 3 -12 -1 -34 -9 -49 -13 -26 -16 -27 -45 -17 -26 9 -33 8 -40 -5 -14 -24 -76 -42 -94 -27 -20 17 -20 44 0 36 13 -4 13 -2 5 14 -13 24 -13 27 3 27 6 0 36 14 65 32 29 17 56 31 59 31 4 0 14 6 22 14 32 28 111 65 111 51z m20 -42 c-1 -23 -26 -57 -34 -45 -6 11 15 62 27 62 4 0 7 -8 7 -17z m-60 -58 c0 -8 -4 -15 -9 -15 -13 0 -22 16 -14 24 11 11 23 6 23 -9z m-247 -70 c-3 -9 2 -24 11 -34 15 -16 15 -19 -1 -34 -27 -23 -65 -30 -86 -15 -15 12 -17 18 -7 38 6 14 26 33 43 42 41 21 48 22 40 3z m144 -25 c1 -11 -2 -18 -8 -15 -11 7 -12 35 -1 35 4 0 8 -9 9 -20z m-327 -140 c0 -5 -7 -10 -15 -10 -8 0 -15 -5 -15 -12 0 -6 -3 -8 -6 -5 -8 8 14 37 27 37 5 0 9 -4 9 -10z m-173 -40 c9 0 13 -6 10 -14 -4 -11 -1 -13 10 -9 11 4 14 2 11 -8 -3 -8 -11 -13 -18 -11 -8 2 -10 -3 -7 -12 4 -10 -1 -20 -13 -26 -37 -20 -52 -41 -39 -57 10 -12 6 -14 -30 -12 -23 2 -45 7 -47 11 -3 4 0 8 7 8 9 0 9 3 0 14 -9 10 -5 21 19 46 16 18 30 36 30 41 0 5 9 9 21 9 11 0 17 5 14 10 -3 6 -3 15 1 22 6 9 9 9 12 0 2 -7 11 -12 19 -12z m191 2 c6 -18 -15 -14 -22 4 -4 10 -1 14 6 12 6 -2 14 -10 16 -16z m39 -17 c-3 -19 -2 -37 3 -40 5 -3 0 -17 -12 -30 -12 -14 -23 -23 -26 -20 -4 4 17 103 25 118 10 18 15 4 10 -28z m-347 -35 c0 -5 -7 -10 -15 -10 -8 0 -15 5 -15 10 0 6 7 10 15 10 8 0 15 -4 15 -10z m1300 -8 c0 -5 -7 -17 -15 -28 -13 -16 -16 -17 -25 -4 -7 11 -5 18 7 28 19 14 33 16 33 4z m-1349 -24 c22 -27 24 -51 6 -67 -20 -16 -28 -2 -21 35 5 29 4 32 -15 27 -12 -3 -21 -1 -21 5 0 9 12 17 28 21 2 1 12 -9 23 -21z m477 -26 c2 -7 -2 -10 -12 -6 -9 3 -16 11 -16 16 0 13 23 5 28 -10z m-535 -44 c-2 -5 2 -8 9 -9 13 0 66 -59 53 -59 -3 0 -15 5 -26 11 -16 8 -31 4 -75 -17 -30 -14 -59 -34 -64 -43 -5 -9 -10 -12 -10 -8 0 8 -21 -7 -43 -31 -7 -7 -20 -21 -29 -30 -13 -12 -15 -19 -6 -29 6 -7 8 -17 4 -21 -4 -4 -13 1 -20 10 -7 10 -16 15 -19 11 -4 -3 9 -26 29 -50 20 -24 33 -47 29 -51 -4 -4 -13 2 -21 12 -8 11 -14 14 -14 7 0 -8 -13 -2 -31 13 -17 14 -39 26 -50 26 -26 0 -24 17 4 31 12 6 23 13 25 14 1 1 -3 14 -9 29 -11 24 -10 29 14 54 15 16 24 31 20 35 -3 4 5 7 18 7 13 0 37 11 53 25 34 30 35 30 65 9 17 -13 25 -14 34 -5 9 9 8 11 -5 6 -10 -4 -18 -3 -18 3 0 6 6 12 13 15 6 2 8 8 4 13 -4 5 -12 2 -17 -6 -5 -8 -12 -11 -16 -7 -9 8 -10 7 46 45 39 27 46 28 51 14 4 -9 5 -20 2 -24z m555 6 c-10 -21 -9 -27 3 -35 13 -8 6 -13 -13 -10 -5 0 -8 -8 -8 -19 0 -11 -4 -20 -10 -20 -5 0 -7 -7 -4 -15 4 -10 0 -15 -10 -15 -21 0 -17 32 4 42 12 5 11 7 -4 7 -16 1 -17 3 -5 18 8 9 14 26 14 37 0 12 6 20 13 19 6 -2 12 2 12 7 0 6 4 10 10 10 6 0 5 -10 -2 -26z m-44 -36 c-10 -16 -34 -7 -34 12 0 17 3 19 19 8 11 -7 17 -16 15 -20z m-45 -5 c0 -25 -1 -25 -8 -8 -5 11 -7 23 -4 28 8 14 13 7 12 -20z m133 -86 c5 -11 6 -22 2 -25 -4 -4 -9 -1 -11 6 -6 17 -23 15 -23 -3 0 -8 -4 -15 -10 -15 -5 0 -10 9 -10 19 0 11 5 23 10 26 6 3 10 18 11 33 l0 27 11 -25 c5 -14 14 -33 20 -43z m-464 36 c-1 -5 3 -17 9 -28 15 -28 20 -64 8 -64 -5 1 -9 5 -7 10 1 5 -2 9 -8 9 -5 0 -10 5 -10 11 0 5 5 7 11 4 6 -4 5 2 -3 14 -7 12 -17 21 -22 21 -4 0 -3 7 4 15 13 16 21 19 18 8z m-381 -18 c0 -8 -6 -15 -14 -15 -14 0 -17 12 -6 23 11 11 20 8 20 -8z m293 -10 c13 -14 30 -25 37 -25 8 0 12 -4 9 -8 -9 -15 92 -105 110 -98 11 4 14 1 12 -12 -4 -23 10 -42 30 -42 19 0 57 -55 48 -69 -4 -5 -41 -28 -83 -51 -73 -41 -77 -42 -90 -24 -30 40 -34 53 -17 62 13 7 13 10 1 20 -21 18 -68 -7 -65 -33 2 -12 9 -19 19 -17 10 1 25 -12 37 -32 l20 -34 -31 -16 c-47 -23 -88 -52 -82 -58 3 -3 -5 -5 -19 -5 -15 0 -28 8 -35 23 -7 15 -16 22 -26 18 -11 -4 -15 0 -15 16 0 11 4 19 9 15 22 -13 21 21 -4 112 -15 54 -29 112 -32 128 -3 17 -9 38 -15 48 -11 22 -14 19 40 46 23 12 40 26 37 31 -3 5 0 7 7 5 8 -3 22 1 33 9 28 21 38 20 65 -9z m-360 -56 c-17 -19 -39 -46 -48 -61 -14 -25 -32 -37 -32 -23 0 13 27 51 48 68 18 15 20 22 11 33 -9 11 -7 14 9 14 12 0 24 5 28 12 5 8 9 9 11 1 2 -6 -10 -26 -27 -44z m1069 9 c11 -10 13 -10 7 0 -4 7 -1 12 8 12 21 0 21 -16 0 -24 -24 -9 -31 -7 -38 9 -7 18 5 20 23 3z m-125 -39 c2 -19 6 -41 10 -50 9 -21 -29 -68 -70 -85 -49 -21 -79 -18 -92 9 -8 17 -11 18 -11 5 -2 -31 -21 -30 -21 1 0 37 21 41 46 9 l16 -23 -5 23 c-3 15 -1 22 9 22 8 0 14 5 14 10 0 6 5 10 11 10 16 0 48 42 49 63 0 9 5 16 12 15 7 -2 13 3 14 10 3 23 4 25 9 20 3 -3 7 -21 9 -39z m-302 6 c-2 -14 -8 -25 -13 -25 -16 0 -10 -29 8 -39 21 -11 16 -18 -17 -23 -19 -2 -25 1 -24 15 2 20 -26 23 -44 5 -9 -9 -12 -7 -12 10 0 16 6 22 23 22 13 0 29 -6 36 -12 11 -11 13 -10 8 5 -4 9 -2 17 4 17 6 0 9 6 6 14 -5 13 10 36 24 36 3 0 4 -11 1 -25z m-615 -22 c-3 -3 -11 -2 -17 2 -8 5 -7 11 2 22 12 15 13 14 16 -1 2 -10 1 -20 -1 -23z m518 17 c3 -5 -3 -10 -15 -10 -12 0 -18 5 -15 10 3 6 10 10 15 10 5 0 12 -4 15 -10z m45 0 c12 -8 11 -10 -7 -10 -13 0 -23 5 -23 10 0 13 11 13 30 0z m456 -13 c2 -15 -2 -17 -27 -12 -24 5 -28 4 -23 -9 3 -9 10 -16 15 -16 5 0 9 -4 9 -10 0 -18 -29 -10 -35 10 -3 11 -11 20 -16 20 -20 0 -8 19 19 28 37 14 55 11 58 -11z m-1126 7 c0 -13 -21 -44 -30 -44 -15 0 -12 37 3 43 17 8 27 8 27 1z m260 -42 c0 -10 -3 -21 -6 -25 -9 -9 -36 21 -29 33 10 17 35 11 35 -8z m-190 -3 c0 -12 -19 -21 -30 -14 -6 4 -8 10 -6 14 7 10 36 10 36 0z m-57 -19 c13 -1 -22 -30 -35 -30 -4 0 -8 9 -8 21 0 15 4 19 16 15 9 -3 21 -6 27 -6z m1047 -32 c0 -5 -4 -8 -10 -8 -5 0 -10 10 -10 23 0 18 2 19 10 7 5 -8 10 -18 10 -22z m-934 6 c-4 -12 -2 -15 9 -10 8 3 14 2 13 -2 -2 -9 35 -72 42 -72 14 0 0 -76 -19 -101 l-21 -28 23 -7 c12 -5 25 -7 30 -6 4 1 7 -3 7 -8 0 -13 -10 -12 -40 4 -21 12 -29 12 -63 -5 l-38 -20 21 -29 c20 -28 21 -28 51 -13 30 15 56 10 30 -6 -11 -7 -11 -13 3 -32 19 -28 20 -39 3 -39 -7 0 -45 -20 -85 -45 -40 -25 -76 -45 -81 -45 -5 0 -18 15 -29 32 -16 24 -18 35 -9 40 9 6 7 12 -5 22 -10 7 -15 16 -12 19 9 8 -78 157 -88 151 -5 -3 -6 -10 -3 -15 4 -5 -1 -9 -10 -9 -9 0 -15 6 -13 13 1 6 -3 27 -11 45 -8 18 -12 34 -10 36 2 2 47 28 99 58 103 60 130 71 172 70 16 0 28 4 28 9 0 5 3 9 6 9 3 0 3 -7 0 -16z m608 -3 c3 -4 -4 -17 -16 -27 -12 -11 -19 -14 -16 -9 3 6 8 18 11 28 7 19 13 21 21 8z m-461 -42 c4 -15 2 -19 -9 -15 -8 3 -14 1 -14 -5 0 -5 7 -12 15 -15 11 -5 12 -10 4 -27 -10 -17 -9 -19 6 -13 14 5 16 4 7 -7 -7 -8 -8 -18 -4 -22 4 -5 1 -5 -5 -1 -7 4 -17 25 -23 47 -8 29 -15 39 -26 35 -19 -7 -18 4 4 25 23 24 39 23 45 -2z m-469 -95 c9 -23 7 -44 -3 -44 -5 0 -11 14 -13 30 -5 32 6 41 16 14z m756 -43 c0 -5 -7 -14 -15 -21 -12 -10 -15 -10 -15 2 0 8 3 18 7 21 9 10 23 9 23 -2z m-50 -59 c0 -10 5 -23 12 -30 9 -9 9 -12 -1 -12 -7 0 -9 -4 -6 -10 3 -5 -3 -10 -14 -10 -12 0 -21 -5 -21 -11 0 -8 -5 -7 -15 1 -13 11 -14 10 -9 -4 4 -9 1 -16 -6 -16 -7 0 -10 -6 -7 -14 4 -11 1 -11 -18 -2 -16 7 -20 13 -12 19 7 5 3 7 -10 4 -27 -6 -28 1 -5 29 18 21 91 72 105 73 4 1 7 -7 7 -17z m70 -12 c-17 -24 -25 -28 -35 -20 -17 14 -9 37 13 43 40 11 43 7 22 -23z m-810 -27 c-1 -11 -26 -43 -34 -43 -10 0 -7 25 6 38 13 13 28 16 28 5z m480 -28 c0 -8 -7 -15 -15 -15 -8 0 -15 7 -15 15 0 8 7 15 15 15 8 0 15 -7 15 -15z m-523 -37 c-2 -7 -12 -12 -21 -12 -9 1 -16 -2 -16 -7 0 -5 -4 -9 -10 -9 -5 0 -10 6 -10 14 0 13 11 18 53 25 5 0 7 -5 4 -11z m583 -70 c0 -16 -42 -19 -59 -4 -17 15 -31 13 -31 -6 0 -5 4 -6 10 -3 6 4 9 -4 7 -17 -1 -14 3 -22 11 -20 6 1 12 -2 12 -8 0 -5 -14 -10 -31 -10 -27 0 -31 3 -26 21 4 13 -2 28 -15 41 l-20 20 22 -7 c15 -5 27 0 41 16 12 15 19 17 19 8 1 -9 4 -7 12 5 10 18 11 18 29 -5 10 -13 19 -27 19 -31z"/> <path d="M1300 1417 c0 -8 7 -31 15 -50 10 -25 20 -35 30 -31 22 9 19 22 -15 61 -16 18 -30 27 -30 20z"/> <path d="M920 1241 c0 -13 34 -71 41 -71 4 0 12 6 18 14 10 12 9 20 -4 40 -16 25 -55 36 -55 17z"/> <path d="M1124 2815 c-9 -14 -23 -25 -30 -25 -8 0 -14 -5 -14 -12 0 -7 -5 -6 -12 4 -15 18 -51 29 -65 19 -20 -14 -54 -72 -48 -82 4 -6 -7 -3 -25 6 -48 25 -84 13 -105 -36 -15 -31 -22 -38 -37 -33 -11 3 -35 3 -53 0 -27 -5 -35 -13 -40 -36 -8 -35 -24 -49 -59 -52 -29 -3 -30 -18 0 -33 38 -20 68 -45 61 -51 -8 -8 21 -44 36 -44 5 0 39 20 76 44 75 50 202 115 276 141 28 9 57 20 65 23 8 3 23 4 34 3 11 -2 16 2 12 8 -4 6 -13 11 -20 11 -10 0 -11 10 -6 42 5 27 4 45 -2 49 -6 4 -5 8 3 12 11 4 12 7 2 18 -7 7 -13 21 -13 31 0 26 -17 22 -36 -7z m-44 -80 c13 -14 28 -25 34 -25 6 0 12 -12 12 -28 1 -15 0 -22 -3 -16 -3 9 -19 6 -56 -7 -28 -10 -53 -19 -54 -19 -1 0 -4 8 -7 18 -3 10 -4 6 -3 -8 2 -20 -3 -26 -23 -28 -13 -2 -33 -10 -44 -17 -16 -12 -21 -12 -32 0 -16 16 -18 35 -4 35 6 0 10 -5 10 -11 0 -5 5 -7 10 -4 6 3 10 15 10 26 0 13 7 19 22 19 20 0 21 -1 3 -20 -10 -11 -13 -20 -8 -20 6 0 16 7 23 15 10 12 10 18 0 30 -13 16 -13 16 30 67 20 25 52 22 80 -7z m40 5 c0 -11 -4 -20 -10 -20 -5 0 -10 9 -10 20 0 11 5 20 10 20 6 0 10 -9 10 -20z m-237 -44 c6 -15 -1 -26 -15 -26 -4 0 -8 9 -8 20 0 23 15 27 23 6z m40 -20 c-4 -8 -24 -25 -43 -38 -31 -21 -35 -28 -32 -61 3 -32 1 -37 -17 -37 -15 0 -21 6 -21 21 0 14 5 19 14 16 10 -4 12 0 8 15 -5 20 -6 20 -18 3 -7 -9 -17 -14 -23 -10 -6 3 -11 1 -11 -4 0 -6 -9 -20 -21 -32 -15 -15 -17 -24 -10 -33 7 -9 7 -16 -1 -24 -15 -15 -38 3 -38 29 0 10 -6 17 -12 15 -7 -1 -10 -1 -5 1 4 3 7 10 7 17 0 9 9 12 24 9 13 -3 27 1 31 7 5 9 1 10 -14 5 -12 -4 -21 -2 -21 4 0 6 7 11 15 11 8 0 15 4 15 10 0 5 12 13 27 16 15 4 34 13 41 21 7 7 24 13 36 13 13 0 31 9 41 20 21 23 40 27 28 6z m-44 -93 c0 -25 -1 -26 -9 -8 -12 27 -12 35 0 35 6 0 10 -12 9 -27z m-79 -52 c0 -5 -6 -11 -12 -14 -18 -6 -39 3 -32 14 7 12 44 12 44 0z"/> <path d="M570 2534 c-6 -14 -10 -32 -10 -41 0 -8 -13 -20 -30 -26 -16 -6 -30 -15 -30 -19 0 -4 -8 -4 -17 -1 -12 5 -15 2 -10 -9 3 -9 0 -18 -6 -21 -7 -2 -18 -25 -26 -51 -7 -25 -18 -49 -24 -53 -6 -4 -8 0 -4 10 4 12 1 17 -11 17 -20 0 -54 -20 -34 -20 10 0 10 -4 0 -20 -10 -16 -9 -22 11 -39 12 -11 20 -25 16 -31 -7 -12 23 -65 32 -56 4 3 -2 15 -12 26 -10 11 -15 20 -11 20 4 0 16 -10 27 -22 12 -15 17 -17 13 -7 -6 19 11 35 21 20 3 -6 -4 -20 -16 -32 -20 -20 -20 -22 -5 -38 15 -14 18 -14 26 -1 5 8 7 23 4 32 -4 13 -1 16 9 12 9 -3 22 6 33 25 11 16 45 56 77 89 31 33 57 65 57 72 0 6 3 9 8 7 4 -3 22 8 41 24 l34 28 -25 11 c-13 7 -44 36 -68 66 -24 30 -47 54 -52 54 -5 0 -13 -12 -18 -26z m50 -60 c0 -14 4 -23 10 -19 6 3 10 -3 10 -14 0 -10 3 -27 7 -37 5 -14 2 -16 -15 -12 -12 4 -20 3 -17 -1 2 -5 -11 -26 -30 -48 -19 -22 -31 -43 -27 -47 3 -4 -2 -4 -11 0 -12 4 -17 2 -15 -7 2 -8 -2 -13 -9 -12 -8 2 -10 -4 -6 -14 5 -12 2 -15 -10 -10 -11 4 -17 1 -17 -8 0 -8 -9 -15 -20 -15 -11 0 -20 5 -20 11 0 5 -4 8 -9 4 -5 -3 -12 4 -16 15 -3 11 -11 20 -16 20 -5 0 -9 5 -9 10 0 18 29 10 35 -10 9 -28 23 -16 18 15 -4 20 0 27 23 35 16 6 45 29 65 50 29 30 41 37 62 33 20 -4 27 -1 27 10 0 11 -10 15 -35 14 -24 -1 -35 -6 -35 -16 0 -11 -3 -12 -11 -4 -16 16 12 43 43 43 17 0 19 3 9 9 -7 5 -10 14 -7 20 12 19 26 12 26 -15z m-93 -66 c-2 -29 -41 -68 -53 -53 -18 22 -15 37 6 30 15 -5 20 -2 20 13 0 11 6 23 13 25 6 3 13 6 14 6 1 1 1 -9 0 -21z"/> <path d="M2537 2444 c-41 -28 -42 -49 -1 -34 48 19 59 12 107 -68 26 -42 47 -83 47 -90 0 -16 -15 -15 -29 2 -6 7 -27 16 -46 19 -19 3 -43 13 -52 22 -10 10 -24 14 -37 10 -12 -3 -28 -8 -36 -10 -8 -2 -17 -4 -20 -5 -3 -1 -8 -2 -12 -1 -12 1 -21 -46 -16 -80 4 -22 0 -34 -14 -42 -10 -7 -18 -18 -18 -25 0 -7 -4 -10 -10 -7 -5 3 -10 2 -10 -4 0 -6 15 -17 34 -26 26 -13 32 -21 29 -39 -3 -13 2 -28 11 -35 13 -11 20 -11 41 3 14 9 32 27 41 41 13 20 20 23 35 15 18 -10 16 -40 -2 -40 -6 0 -16 -5 -23 -12 -11 -10 -11 -15 0 -25 15 -15 44 -17 44 -3 0 5 -7 7 -15 4 -10 -4 -15 0 -15 10 0 12 6 15 23 11 13 -4 31 -7 41 -9 10 -1 22 -10 28 -19 5 -9 16 -17 24 -17 8 0 13 -4 10 -9 -3 -5 5 -11 19 -13 18 -4 25 -1 25 11 0 9 3 12 8 6 11 -16 32 -16 32 0 0 9 -6 12 -16 8 -13 -5 -15 -2 -10 14 4 12 -1 27 -13 40 -14 15 -17 23 -8 32 24 24 67 5 67 -31 0 -19 34 -25 45 -8 8 13 -200 378 -232 408 -30 28 -30 27 -76 -4z m13 -163 c7 -11 18 -17 23 -14 6 3 7 1 3 -6 -4 -6 -2 -19 5 -27 10 -13 15 -12 34 6 19 18 24 19 34 6 10 -11 10 -20 1 -36 -9 -17 -17 -20 -38 -15 -15 4 -28 11 -30 16 -5 12 -32 12 -32 -1 0 -19 -38 -10 -43 10 -3 12 -14 20 -25 20 -12 0 -24 5 -28 11 -9 15 64 3 84 -13 22 -18 23 -2 2 22 -11 13 -20 27 -20 32 0 14 15 9 30 -11z m-69 -73 c11 -11 19 -25 19 -30 0 -4 6 -8 13 -8 20 0 15 -79 -6 -95 -9 -7 -17 -17 -17 -24 0 -6 -4 -11 -10 -11 -16 0 -12 37 5 44 25 9 17 88 -8 82 -7 -1 -9 -1 -4 1 13 8 7 33 -8 33 -8 0 -15 7 -15 15 0 21 9 19 31 -7z m237 3 c3 -8 -1 -12 -9 -9 -7 2 -15 10 -17 17 -3 8 1 12 9 9 7 -2 15 -10 17 -17z m29 -36 c-13 -27 -27 -33 -27 -12 0 14 19 37 31 37 4 0 2 -11 -4 -25z m-153 -10 c-6 -16 -24 -21 -24 -7 0 11 11 22 21 22 5 0 6 -7 3 -15z m71 -16 c-4 -5 -1 -9 4 -9 6 0 11 7 11 17 0 13 3 12 19 -5 10 -12 23 -22 28 -22 5 0 18 -7 29 -15 18 -13 17 -14 -13 -12 -17 1 -29 4 -27 6 5 6 -17 31 -27 31 -15 0 -10 -22 8 -42 15 -16 15 -21 3 -28 -12 -7 -11 -10 3 -16 10 -4 16 -12 13 -19 -3 -8 2 -16 10 -19 21 -8 17 -26 -5 -26 -25 0 -29 7 -41 72 -11 59 -33 91 -43 64 -4 -10 1 -20 13 -26 31 -16 22 -42 -17 -54 -17 -6 -23 -3 -23 8 0 10 6 13 18 9 15 -6 16 -5 2 11 -22 28 -19 80 5 87 24 7 38 1 30 -12z m-81 -37 c-3 -4 -9 -2 -11 4 -2 7 -14 10 -26 8 -12 -2 -16 -2 -9 2 6 3 12 12 12 20 0 10 6 8 21 -7 11 -11 17 -24 13 -27z m-126 21 c2 -8 -6 -13 -22 -13 -19 0 -24 4 -19 15 6 18 34 16 41 -2z"/> <path d="M1405 2405 c-17 -53 -15 -52 -41 -22 -37 43 -50 27 -15 -17 30 -38 35 -49 32 -73 -1 -7 4 -13 12 -13 9 0 12 10 9 33 -2 21 4 47 17 70 17 31 18 37 6 37 -9 0 -18 -7 -20 -15z"/> <path d="M1530 2400 c-43 -43 -15 -120 43 -120 49 0 79 90 40 121 -15 13 -16 11 -10 -19 15 -73 -37 -112 -68 -52 -9 17 -11 30 -6 30 5 0 11 9 14 20 3 12 14 20 26 20 12 0 21 5 21 10 0 17 -39 11 -60 -10z"/> <path d="M1716 2381 c-4 -5 -3 -16 0 -25 3 -9 1 -16 -5 -16 -6 0 -11 -17 -11 -40 0 -35 4 -42 27 -51 33 -12 53 -9 64 11 24 48 39 91 34 100 -12 19 -23 10 -29 -24 -9 -46 -36 -79 -59 -71 -19 8 -24 59 -7 70 13 8 13 55 1 55 -6 0 -12 -4 -15 -9z"/> <path d="M1126 2349 c-2 -8 -9 -27 -14 -44 l-10 -30 -7 28 c-4 15 -13 27 -21 27 -19 0 -18 -9 7 -60 25 -51 49 -80 49 -58 0 8 -5 19 -12 26 -19 19 -1 25 24 8 24 -17 58 -22 58 -8 0 4 -16 14 -35 21 -37 13 -42 28 -24 63 8 14 8 23 0 31 -7 7 -12 6 -15 -4z"/> <path d="M589 2244 c-48 -58 -72 -114 -48 -114 11 0 54 62 54 80 0 8 5 14 11 13 16 -3 77 64 70 76 -14 22 -33 10 -87 -55z"/> <path d="M967 2273 c-12 -11 -8 -20 19 -53 15 -17 24 -33 22 -36 -3 -2 -27 6 -54 20 -72 36 -83 22 -35 -45 17 -22 31 -45 33 -51 3 -7 10 -8 18 -3 10 6 9 11 -5 22 -11 7 -15 13 -11 13 4 0 0 10 -8 22 -26 37 -19 40 35 12 70 -35 81 -21 33 47 -20 30 -38 55 -39 57 -1 1 -5 -1 -8 -5z"/> <path d="M346 2242 c-4 -12 -22 -26 -41 -32 -37 -12 -39 -15 -36 -72 2 -33 -1 -39 -38 -62 -23 -15 -41 -30 -41 -35 0 -20 13 -41 21 -35 5 3 9 0 9 -5 0 -6 -4 -11 -10 -11 -5 0 -9 -3 -9 -7 3 -21 -4 -33 -30 -50 -26 -16 -28 -20 -16 -36 7 -10 19 -16 26 -15 8 2 14 -1 13 -7 -1 -5 7 -17 16 -26 17 -16 20 -12 48 75 25 75 28 92 16 99 -14 8 -20 37 -8 37 4 0 13 -8 20 -17 13 -17 13 -17 14 0 0 10 16 56 35 103 25 59 33 90 26 101 -7 14 -9 14 -15 -5z m-114 -332 c-6 -16 -11 -20 -16 -11 -4 6 -2 19 5 27 16 20 21 12 11 -16z"/> <path d="M355 2153 c-10 -32 -19 -60 -20 -63 -1 -3 -7 -18 -15 -35 -22 -53 -40 -116 -30 -110 17 11 11 -7 -7 -21 -15 -11 -15 -13 -3 -14 13 0 13 -2 1 -9 -8 -5 -19 -25 -26 -44 -12 -34 -11 -38 16 -63 21 -20 30 -24 33 -13 2 8 12 39 22 69 9 30 25 71 35 91 10 20 17 38 15 40 -2 2 -6 17 -10 33 -6 26 -5 28 9 16 13 -11 18 -10 30 6 28 37 39 75 28 93 -6 9 -17 15 -23 13 -8 -2 -10 3 -7 13 4 8 2 15 -4 15 -5 0 -13 9 -17 21 -7 17 -11 10 -27 -38z m45 -42 c0 -4 -9 -18 -20 -31 -23 -26 -26 -17 -8 22 11 24 28 29 28 9z m-53 -156 c8 -23 -4 -30 -21 -12 -8 8 -12 17 -9 21 11 11 23 7 30 -9z"/> <path d="M507 2123 c4 -10 2 -14 -5 -9 -17 10 -24 -11 -12 -35 12 -21 12 -21 30 7 12 20 14 33 7 42 -14 18 -27 15 -20 -5z"/> <path d="M2865 2110 c-3 -5 17 -49 45 -98 40 -70 49 -96 44 -116 -8 -33 -61 -78 -83 -72 -9 3 -23 1 -30 -4 -9 -5 -23 -5 -35 2 -12 5 -4 -4 16 -22 31 -26 36 -35 28 -50 -14 -26 -13 -90 1 -90 13 0 38 -30 39 -45 0 -5 -4 -4 -9 3 -5 9 -10 1 -15 -27 -5 -33 -9 -39 -24 -34 -9 3 -23 13 -31 22 -12 15 -13 14 -8 -1 4 -11 1 -18 -6 -18 -7 0 -23 -14 -36 -30 -19 -26 -22 -43 -22 -113 1 -101 -13 -200 -45 -310 -3 -10 -2 -17 3 -16 21 4 32 -2 27 -15 -3 -8 -15 -16 -25 -18 -14 -2 -31 -27 -57 -88 -69 -159 -136 -260 -259 -390 -58 -62 -60 -67 -42 -78 10 -7 19 -19 19 -28 0 -16 -8 -16 -60 -3 -16 4 -18 -13 -5 -68 9 -40 -7 -44 -23 -7 -10 20 -17 24 -33 19 -16 -5 -20 -3 -16 6 2 8 10 13 16 11 6 -1 11 2 11 8 0 16 -23 11 -50 -10 -19 -15 -22 -22 -12 -29 11 -6 10 -10 -3 -15 -9 -3 -21 -4 -26 0 -16 9 -47 -6 -52 -26 -3 -14 -14 -20 -31 -20 -15 0 -34 -4 -44 -9 -9 -5 -36 -17 -60 -27 -33 -13 -42 -22 -39 -36 3 -10 2 -18 -3 -18 -4 0 -19 -11 -33 -25 -15 -16 -28 -22 -32 -15 -3 5 6 21 22 34 15 13 26 27 23 30 -3 3 -34 -4 -69 -14 -35 -11 -95 -25 -135 -31 -39 -6 -76 -16 -83 -21 -7 -5 -17 -7 -22 -4 -6 4 -57 8 -115 9 -105 2 -105 2 -111 -23 -3 -14 -8 -33 -11 -42 -8 -27 19 -22 31 4 6 13 19 23 30 23 11 0 23 5 28 10 4 6 10 6 15 -2 5 -9 17 -10 38 -5 34 10 64 5 64 -10 0 -6 6 -6 15 2 11 9 15 9 15 1 0 -9 6 -9 23 0 22 12 34 15 109 23 20 2 41 7 47 11 6 3 11 0 11 -7 0 -8 3 -9 8 -3 14 20 50 17 57 -4 4 -13 18 -23 41 -27 44 -8 62 7 56 46 -5 32 8 39 28 15 9 -11 16 -12 25 -5 9 8 14 7 17 -2 3 -8 7 -6 11 5 5 14 2 17 -20 15 -14 -2 -28 3 -30 10 -5 14 31 13 54 -1 6 -4 19 -4 30 0 16 6 17 5 3 -12 -25 -32 -64 -64 -79 -65 -9 0 -11 -7 -8 -21 4 -17 3 -19 -6 -10 -6 6 -33 11 -59 11 -47 0 -93 24 -82 42 11 18 -9 7 -26 -15 -16 -19 -22 -20 -39 -9 -11 6 -23 12 -25 12 -10 0 9 -46 23 -57 14 -11 14 -12 -2 -13 -26 0 -16 -23 17 -37 42 -19 57 -16 93 19 32 31 33 31 75 19 40 -12 43 -12 60 10 11 12 22 29 27 37 4 7 20 15 34 15 23 2 27 7 28 32 0 17 2 43 4 60 2 16 -1 36 -8 44 -9 12 -9 13 1 7 6 -4 12 -4 12 1 0 4 19 9 42 11 23 1 48 8 55 14 7 6 16 8 20 5 3 -4 12 -2 20 4 7 6 22 9 33 6 12 -3 25 1 33 11 21 29 44 43 61 36 26 -10 19 -21 -17 -28 -34 -6 -69 -36 -80 -67 -3 -10 -22 -19 -51 -23 -25 -4 -46 -12 -46 -18 0 -6 -12 -8 -29 -5 -29 6 -29 6 -29 -43 -1 -63 18 -66 53 -10 23 37 29 40 70 40 45 0 46 1 65 45 18 43 21 45 59 45 43 0 62 18 74 70 5 21 2 26 -13 27 -11 1 -22 -3 -26 -8 -4 -6 -11 -6 -20 2 -26 21 -16 32 24 23 87 -18 142 0 142 46 0 34 31 70 59 70 26 0 39 19 43 65 3 35 8 42 45 63 42 23 43 24 40 70 -2 26 -7 53 -11 60 -11 19 1 27 18 13 11 -9 20 -10 35 -1 22 11 25 23 22 83 -2 20 1 37 6 37 4 0 21 11 37 23 l29 24 -17 42 -17 43 38 34 37 34 -17 35 c-23 47 -22 57 8 85 26 24 33 54 14 65 -5 4 -14 18 -20 32 -7 20 -4 31 17 58 l25 34 -27 41 -28 42 23 40 c19 33 20 42 9 56 -17 22 -31 32 -38 27 -10 -6 -3 57 11 97 8 20 24 42 37 47 29 14 56 76 48 113 -5 25 -93 188 -101 188 -2 0 -6 -4 -10 -10z m4 -599 c20 -27 20 -31 6 -71 -8 -23 -12 -52 -9 -65 4 -16 -1 -30 -16 -45 -15 -15 -18 -25 -11 -34 6 -7 13 -40 15 -75 5 -53 2 -67 -14 -88 -11 -14 -20 -33 -20 -41 0 -12 -3 -13 -12 -4 -8 8 -15 9 -25 1 -25 -21 -46 10 -39 57 3 25 1 46 -7 54 -10 10 -9 12 5 7 13 -5 17 3 22 41 15 125 19 144 32 149 12 4 12 8 2 20 -9 11 -9 16 1 22 10 6 9 10 -3 14 -9 4 -16 16 -16 27 0 14 4 19 13 14 9 -6 9 -4 -1 8 -10 13 -10 17 0 20 7 3 18 -2 24 -10 8 -12 12 -11 25 5 13 16 12 17 -2 5 -14 -11 -17 -9 -21 12 -4 22 -3 24 13 16 10 -6 27 -23 38 -39z m-100 -111 c1 -13 0 -13 -9 0 -5 8 -9 26 -9 40 l1 25 8 -25 c4 -14 8 -32 9 -40z m115 -91 c-7 -11 -34 -12 -34 -1 0 14 11 21 26 15 8 -3 11 -9 8 -14z m-74 -262 c0 -22 -29 -67 -43 -67 -9 0 3 55 14 58 5 2 9 10 9 18 0 8 5 14 10 14 6 0 10 -11 10 -23z m-78 -67 c-8 -21 -7 -33 2 -46 11 -15 9 -23 -10 -52 -17 -25 -24 -49 -24 -83 0 -27 -4 -49 -10 -49 -5 0 -10 5 -10 12 0 6 -9 2 -21 -10 -11 -12 -17 -27 -13 -34 5 -7 3 -8 -6 -3 -10 6 -12 4 -7 -9 4 -10 -1 -24 -11 -34 -15 -15 -23 -16 -42 -8 -17 8 -25 7 -27 -1 -3 -7 -12 -9 -21 -6 -9 3 -4 -5 12 -20 33 -29 30 -49 -11 -69 -18 -8 -32 -26 -39 -48 -11 -33 -14 -35 -54 -35 -62 0 -74 24 -35 65 21 22 37 30 53 27 12 -2 25 0 28 4 3 5 -4 9 -15 9 -12 0 -21 5 -21 10 0 6 9 10 19 10 12 0 21 10 26 27 3 15 15 33 25 40 11 8 17 20 14 27 -3 7 2 16 10 19 9 4 13 13 10 22 -4 9 -1 15 9 15 8 0 17 9 20 21 3 12 10 18 15 15 14 -8 52 23 51 42 -1 15 -2 15 -6 0 -2 -10 -11 -18 -19 -18 -16 0 -19 16 -4 25 6 3 18 25 28 48 10 23 27 61 37 85 31 72 72 74 47 2z m33 -30 c-11 -18 -22 -11 -22 14 0 22 1 23 14 11 8 -8 11 -19 8 -25z m5 -69 c0 -12 -20 -25 -27 -18 -7 7 6 27 18 27 5 0 9 -4 9 -9z m-190 -236 c0 -8 -4 -15 -9 -15 -13 0 -22 16 -14 24 11 11 23 6 23 -9z m40 -41 c0 -14 -12 -19 -23 -8 -9 9 4 35 14 28 5 -3 9 -12 9 -20z m-86 -71 c-8 -33 -12 -39 -20 -30 -4 3 -3 14 1 24 5 10 7 21 7 26 -1 4 3 7 8 7 6 0 8 -11 4 -27z m-294 -151 c0 -11 -41 -34 -48 -27 -4 4 2 13 12 21 22 15 36 18 36 6z m-70 -35 c0 -4 -9 -3 -20 3 -11 6 -20 15 -20 20 0 6 9 5 20 -2 11 -7 20 -16 20 -21z m-70 -58 c0 -17 -41 -31 -56 -18 -18 15 -18 30 1 23 8 -4 15 -2 15 4 0 6 9 8 20 5 11 -3 20 -9 20 -14z m-170 -88 c0 -10 -30 -24 -37 -17 -3 3 -2 9 2 15 8 13 35 15 35 2z m-75 -62 c19 -9 18 -9 -2 -5 -13 2 -23 0 -23 -5 0 -5 -7 -9 -15 -9 -8 0 -15 7 -15 15 0 17 25 19 55 4z"/> <path d="M770 2105 c0 -15 56 -115 67 -119 16 -7 17 16 1 32 -19 19 10 44 43 37 51 -11 39 12 -17 34 -52 20 -94 27 -94 16z m60 -25 c12 -7 12 -12 2 -22 -10 -10 -15 -10 -22 2 -19 29 -9 39 20 20z"/> <path d="M413 1974 c-41 -86 -44 -99 -33 -123 l12 -26 11 25 c5 14 21 49 34 79 12 29 23 61 23 71 0 10 7 20 15 24 20 7 19 32 -1 40 -12 4 -26 -17 -61 -90z"/> <path d="M2831 2020 c-12 -11 -27 -17 -32 -14 -13 8 -11 -6 4 -20 8 -8 20 -10 32 -5 28 11 43 10 25 -1 -12 -7 -11 -10 5 -17 11 -4 21 -17 22 -28 1 -19 0 -19 -14 3 -9 12 -22 22 -30 22 -11 0 -9 -7 7 -30 12 -16 17 -30 11 -30 -6 0 -11 -4 -11 -10 0 -5 7 -7 15 -4 8 4 15 1 15 -5 0 -14 -27 -15 -35 -1 -10 16 -19 12 -32 -15 -6 -14 -8 -25 -5 -25 22 0 87 24 99 36 14 14 13 15 -6 18 -5 0 -13 4 -17 8 -3 4 3 6 15 3 29 -5 27 15 -10 80 -17 30 -32 55 -32 55 -1 -1 -13 -9 -26 -20z"/> <path d="M674 1989 c-4 -7 -3 -14 2 -16 31 -11 35 -19 21 -51 -12 -29 -14 -30 -29 -16 -11 11 -21 13 -32 7 -14 -8 -13 -11 11 -23 15 -8 42 -24 60 -37 22 -16 34 -20 39 -12 6 11 -15 34 -38 41 -12 4 12 58 25 58 6 0 19 -8 29 -17 13 -11 22 -13 29 -6 7 7 -1 17 -28 34 -21 12 -48 29 -60 36 -17 11 -23 11 -29 2z"/> <path d="M2792 1948 c-6 -6 -12 -18 -12 -26 0 -10 3 -10 16 2 8 9 14 21 12 26 -2 7 -8 6 -16 -2z"/> <path d="M1618 1917 c-32 -18 -58 -35 -58 -39 0 -17 47 -7 64 13 11 14 26 19 41 17 18 -4 23 0 23 19 0 29 -1 29 -70 -10z"/> <path d="M1700 1931 c0 -11 5 -23 10 -26 6 -3 10 -1 10 5 0 7 7 10 15 6 12 -4 13 -2 2 14 -15 26 -37 26 -37 1z"/> <path d="M2620 1889 c0 -5 -5 -7 -12 -3 -7 4 -8 3 -4 -5 6 -9 12 -9 24 1 10 7 19 14 21 15 2 2 -3 3 -12 3 -9 0 -17 -5 -17 -11z"/> <path d="M151 1839 c9 -18 6 -26 -22 -55 -36 -37 -36 -23 2 -148 11 -37 11 -39 -1 -31 -5 3 -10 15 -10 27 0 17 -2 19 -16 8 -33 -28 -36 -48 -12 -89 l23 -40 -23 -31 c-24 -32 -26 -70 -4 -78 6 -2 10 2 9 10 -2 7 -2 9 1 5 2 -4 10 -3 18 4 8 7 18 9 22 5 4 -4 -4 -15 -16 -25 -15 -11 -21 -23 -16 -34 3 -9 -1 -28 -10 -42 -9 -13 -16 -37 -15 -52 0 -15 3 -23 5 -17 6 15 41 6 48 -11 3 -9 0 -12 -10 -8 -12 5 -13 1 -3 -21 10 -20 9 -32 0 -53 -9 -19 -9 -29 -2 -31 6 -2 11 -8 11 -13 0 -6 -6 -7 -12 -3 -14 8 9 -24 27 -39 7 -6 6 -10 -2 -13 -26 -11 -63 -46 -63 -61 0 -18 79 -165 94 -175 5 -3 10 -12 12 -20 4 -27 198 -349 216 -359 15 -8 28 -5 54 10 43 25 41 25 47 2 3 -14 -4 -23 -30 -35 -44 -21 -76 -20 -101 2 -11 9 -88 135 -171 279 -163 283 -171 304 -126 349 40 40 30 60 -12 25 -24 -20 -43 -60 -43 -90 0 -10 57 -117 126 -237 70 -120 137 -239 151 -264 51 -93 112 -122 182 -85 16 8 31 11 35 8 3 -3 29 -10 57 -14 29 -5 62 -17 74 -29 12 -11 24 -17 28 -13 4 3 10 -8 13 -25 4 -18 14 -32 25 -35 11 -3 26 -21 34 -41 15 -35 17 -36 65 -36 48 0 51 -2 67 -35 19 -40 40 -50 77 -35 39 14 43 13 63 -20 21 -37 32 -39 25 -5 -3 19 0 25 13 25 13 0 15 -6 10 -31 -7 -31 -6 -32 21 -25 16 4 32 13 37 19 22 34 37 69 37 90 0 12 5 28 12 35 15 15 15 14 -57 36 -119 36 -302 135 -395 215 -28 23 -33 32 -23 42 10 10 17 8 37 -10 14 -13 29 -20 34 -17 5 3 16 -2 23 -12 13 -16 13 -16 -6 -2 -19 14 -19 14 -6 -2 7 -10 17 -15 22 -12 5 3 19 -6 31 -19 28 -30 109 -76 205 -116 130 -55 331 -101 345 -78 14 21 9 24 -64 36 -105 17 -232 57 -321 102 -43 21 -84 39 -92 39 -8 0 -15 4 -15 8 0 10 -91 75 -106 75 -6 0 -16 8 -22 18 -10 15 1 25 91 77 56 33 117 67 135 76 18 9 30 21 26 27 -3 6 0 9 7 7 20 -4 302 158 317 182 16 26 2 26 -28 0 -13 -11 -27 -20 -32 -20 -5 0 -63 -32 -131 -71 -67 -40 -180 -106 -252 -147 -71 -41 -138 -80 -147 -86 -13 -8 -21 -7 -30 2 -6 6 -10 13 -7 15 10 9 266 155 284 162 18 7 19 8 2 12 -10 3 -22 16 -27 29 -5 13 -16 24 -25 24 -8 0 -15 6 -15 13 0 7 -7 4 -15 -7 -19 -25 -19 -37 0 -30 8 3 22 -1 30 -10 18 -18 18 -18 -12 -21 -12 -1 -20 2 -17 6 3 5 0 9 -5 9 -6 0 -11 -6 -11 -14 0 -8 -11 -23 -25 -34 -13 -11 -22 -22 -19 -25 4 -3 -2 -5 -13 -4 -22 1 -93 -40 -93 -54 0 -5 -6 -9 -14 -9 -7 0 -19 -7 -26 -15 -7 -9 -28 -22 -46 -31 -58 -28 -55 -50 19 -120 37 -34 80 -71 97 -80 16 -10 33 -29 38 -42 7 -23 9 -23 24 -8 12 12 19 13 24 5 4 -7 -1 -18 -10 -25 -12 -8 -14 -14 -6 -19 6 -4 9 -18 5 -33 -4 -21 0 -30 17 -41 13 -8 34 -21 47 -30 23 -14 23 -14 17 6 -8 26 7 38 24 18 7 -8 16 -12 21 -9 5 3 9 1 9 -4 0 -12 -48 -30 -76 -28 -11 0 -35 18 -53 38 -18 21 -38 35 -46 32 -8 -4 -20 6 -30 25 -8 17 -21 31 -28 31 -15 0 -90 76 -106 108 -11 20 -17 22 -60 16 -45 -6 -50 -4 -56 16 -4 12 -2 27 4 33 19 19 12 31 -8 13 -15 -13 -20 -14 -23 -4 -3 7 4 19 16 26 20 13 20 13 -6 9 -20 -3 -28 0 -28 11 0 9 -14 1 -37 -22 -21 -20 -41 -36 -45 -36 -16 0 -7 20 13 30 16 9 19 18 15 36 -6 24 8 34 17 12 3 -10 7 -10 17 -1 9 8 7 13 -11 18 -22 7 -28 3 -55 -42 -15 -24 -34 -8 -59 47 -10 22 -22 40 -27 40 -4 0 -8 7 -8 16 0 8 -6 22 -14 30 -8 8 -24 38 -35 68 -11 30 -37 77 -58 105 -21 27 -49 70 -62 94 -24 44 -24 46 -7 72 22 33 41 41 69 27 12 -5 30 -13 39 -16 13 -4 16 -15 14 -48 -2 -24 -7 -51 -11 -60 -11 -27 2 -48 30 -48 14 0 25 -6 25 -14 0 -7 10 -26 21 -40 16 -21 24 -24 30 -15 8 14 8 13 24 -36 2 -8 10 -15 17 -15 9 0 9 3 0 12 -16 16 -15 28 2 28 16 0 29 -27 19 -42 -3 -7 -1 -8 5 -4 18 11 14 33 -9 55 -12 11 -18 25 -14 31 4 6 -1 23 -11 38 -10 15 -17 33 -16 40 4 17 -9 15 -24 -5 -12 -17 -13 -17 -14 -1 0 9 4 20 10 23 5 3 10 14 10 23 0 9 9 28 19 42 18 23 21 23 38 8 13 -11 32 -15 66 -12 44 3 47 2 44 -19 -2 -12 -2 -16 0 -9 3 6 12 12 21 12 13 0 14 2 3 9 -8 5 -11 17 -7 28 4 12 -2 27 -15 42 -16 17 -18 26 -10 34 8 8 11 7 12 -4 0 -8 4 -6 8 6 5 12 4 23 -3 27 -7 5 -5 8 5 8 17 0 30 20 28 43 0 7 -5 1 -10 -13 -8 -20 -12 -22 -19 -10 -6 10 -4 20 7 32 19 21 6 24 -22 4 -11 -7 -34 -17 -52 -20 -17 -4 -36 -13 -42 -20 -13 -15 -10 -57 4 -53 5 2 9 13 7 23 -2 15 7 21 43 30 41 10 59 4 35 -11 -6 -4 -8 -10 -5 -15 8 -13 -22 -19 -34 -7 -9 9 -14 8 -21 -3 -15 -23 -12 -30 10 -30 23 0 26 -13 7 -29 -10 -8 -19 -6 -35 9 -12 11 -26 20 -31 20 -15 0 -41 42 -41 66 0 20 34 44 64 44 6 0 27 11 46 25 19 14 41 23 48 20 9 -3 12 0 9 9 -7 17 32 30 48 16 7 -6 16 -2 26 12 8 12 29 37 46 56 18 19 30 38 28 43 -5 7 -266 -139 -290 -162 -15 -15 -27 -10 -23 11 2 13 58 51 183 123 99 57 266 153 370 213 105 61 198 113 208 117 9 3 17 11 17 17 0 7 -6 7 -17 1 -10 -6 -31 -12 -46 -16 -15 -3 -35 -14 -45 -25 -9 -11 -23 -20 -32 -20 -9 0 -26 -7 -39 -16 -20 -14 -113 -68 -251 -146 -19 -11 -75 -43 -123 -71 -49 -29 -114 -66 -145 -84 -32 -17 -56 -36 -55 -42 2 -5 -6 -9 -17 -8 -20 1 -28 23 -32 90 -2 39 -5 42 -27 28 -10 -6 -11 -23 -6 -67 3 -32 8 -61 11 -63 5 -6 -16 -31 -27 -31 -5 0 -9 7 -9 16 0 8 -5 12 -10 9 -6 -3 -10 -2 -10 4 0 5 5 11 10 13 7 2 7 15 0 37 -13 48 -5 323 13 400 l14 64 -26 23 c-29 26 -43 30 -39 12 1 -7 -3 -23 -10 -36 -11 -20 -10 -25 15 -48 l28 -25 -32 6 c-31 6 -33 4 -49 -35 -9 -22 -19 -38 -22 -36 -3 3 3 24 13 47 15 33 16 44 7 60 -10 16 -9 19 7 19 14 0 21 10 25 36 8 42 -8 71 -30 53 -11 -9 -14 -7 -14 10 0 12 -6 21 -15 21 -13 0 -14 -4 -4 -21z m22 -83 c-10 -13 -21 -22 -25 -20 -8 5 22 44 35 44 4 0 0 -11 -10 -24z m-13 -101 c0 -8 -4 -15 -10 -15 -5 0 -10 7 -10 15 0 8 5 15 10 15 6 0 10 -7 10 -15z m75 -47 c-4 -24 -7 -51 -7 -61 1 -13 -6 -17 -29 -15 -26 2 -29 6 -27 33 2 46 25 85 50 85 19 0 20 -4 13 -42z m-82 -48 c4 -17 3 -19 -9 -9 -8 6 -14 18 -14 26 0 20 16 8 23 -17z m3 -71 c1 -18 -3 -29 -11 -29 -7 0 -15 -6 -18 -12 -2 -7 -8 -9 -13 -5 -5 4 -3 11 3 15 6 4 14 22 18 40 8 39 19 34 21 -9z m69 10 c8 -12 8 -160 0 -167 -2 -3 -11 1 -19 8 -9 6 -21 10 -28 7 -8 -4 -7 -6 5 -6 9 -1 17 -8 17 -16 0 -21 -13 -19 -28 6 -11 18 -11 24 4 40 16 17 16 20 0 45 -17 24 -17 26 1 39 13 10 15 17 7 25 -7 7 -9 20 -7 31 4 14 9 16 24 9 10 -6 21 -15 24 -21z m-48 -116 c-11 -10 -26 8 -20 23 5 15 7 14 15 -1 6 -9 7 -19 5 -22z m-27 -58 c0 -8 -4 -15 -10 -15 -5 0 -10 7 -10 15 0 8 5 15 10 15 6 0 10 -7 10 -15z m68 -60 c-2 -26 -19 -31 -54 -18 -15 6 0 18 53 42 2 1 2 -10 1 -24z m22 -55 c0 -6 -11 -20 -25 -32 -43 -37 -22 -90 22 -55 10 7 12 2 9 -22 -3 -30 8 -44 16 -19 2 6 10 8 17 4 9 -6 8 -11 -6 -21 -31 -21 -54 -13 -79 27 -13 21 -29 38 -34 38 -19 0 -10 29 12 36 12 4 31 17 41 30 20 26 27 30 27 14z m26 -26 c-4 -9 -1 -23 5 -31 16 -19 5 -27 -20 -13 -24 12 -27 30 -9 48 17 17 31 15 24 -4z m64 2 c0 -8 -5 -18 -10 -21 -6 -4 -7 -12 -4 -18 4 -7 -1 -4 -11 5 -10 9 -15 23 -12 32 8 20 37 21 37 2z m-10 -65 c0 -5 9 -13 20 -16 11 -3 20 -11 20 -17 0 -6 -9 -8 -22 -3 -13 3 -28 7 -34 7 -10 1 -11 14 -5 36 2 7 21 1 21 -7z m97 -86 c20 -19 35 -37 31 -40 -3 -3 -25 12 -49 34 -24 23 -39 41 -32 41 7 0 29 -16 50 -35z m-101 2 c1 -9 -3 -17 -9 -17 -7 0 -4 -7 6 -14 15 -11 16 -20 8 -54 -5 -23 -7 -43 -4 -46 2 -2 -1 -7 -8 -11 -8 -6 -10 2 -7 28 2 20 0 38 -4 39 -10 4 -18 67 -11 85 7 18 26 11 29 -10z m40 9 c19 -20 18 -40 -2 -32 -9 3 -18 6 -20 6 -2 0 -4 9 -4 20 0 24 6 25 26 6z m164 -26 c0 -5 -9 -10 -20 -10 -11 0 -20 5 -20 10 0 6 9 10 20 10 11 0 20 -4 20 -10z m-240 -125 c-12 -15 -30 -12 -30 6 0 5 10 9 21 9 18 0 19 -2 9 -15z m94 -50 c7 -18 -23 -28 -40 -14 -11 9 -11 15 -3 25 12 15 35 9 43 -11z m-136 -73 c2 -7 -2 -10 -12 -6 -9 3 -16 11 -16 16 0 13 23 5 28 -10z m450 -210 c5 -17 -27 -27 -41 -13 -9 9 -8 14 3 21 18 11 32 8 38 -8z m-48 -143 c0 -5 -7 -9 -15 -9 -15 0 -20 12 -9 23 8 8 24 -1 24 -14z m316 -121 c6 -20 -2 -38 -17 -38 -5 0 -9 5 -9 11 0 6 -10 19 -22 28 -11 10 -18 23 -15 28 10 15 55 -7 63 -29z m-46 -23 c0 -8 -4 -15 -10 -15 -5 0 -10 7 -10 15 0 8 5 15 10 15 6 0 10 -7 10 -15z m143 -36 c3 7 4 6 3 -1 -3 -14 42 -58 59 -58 5 0 4 -5 -3 -12 -9 -9 -17 -6 -35 13 -47 48 -86 76 -90 65 -2 -6 -4 2 -4 17 l0 29 32 -32 c20 -19 35 -27 38 -21z m74 -12 c7 -5 11 -12 8 -18 -4 -5 -17 -2 -31 7 -20 14 -22 19 -12 31 10 13 13 13 17 2 2 -8 10 -18 18 -22z m-107 -21 c0 -17 -14 -29 -23 -20 -8 8 3 34 14 34 5 0 9 -6 9 -14z"/> <path d="M1970 1850 c-12 -8 -12 -10 3 -16 9 -3 17 -11 17 -18 0 -6 8 -27 18 -46 44 -84 57 -100 80 -100 33 0 28 25 -20 113 -44 77 -62 90 -98 67z"/> <path d="M1332 1818 c-33 -19 -50 -34 -44 -40 12 -12 125 50 116 63 -8 13 -13 11 -72 -23z"/> <path d="M340 1782 c-9 -36 -8 -47 2 -53 20 -13 31 -11 25 5 -3 7 -2 17 2 22 5 5 11 21 15 35 4 21 2 28 -13 32 -16 4 -21 -4 -31 -41z"/> <path d="M584 1813 c-3 -10 -12 -33 -20 -52 -17 -39 -8 -56 13 -24 12 18 19 21 34 12 11 -5 23 -7 28 -4 5 3 11 1 13 -5 4 -13 43 -18 44 -5 1 6 -22 19 -52 30 -44 17 -51 23 -43 37 6 11 6 19 -1 23 -6 3 -13 -2 -16 -12z"/> <path d="M2426 1812 c-3 -6 1 -15 10 -20 12 -7 13 -11 5 -17 -7 -4 -18 1 -25 10 -7 10 -18 16 -24 14 -7 -3 -6 -10 3 -23 10 -13 21 -17 39 -12 29 7 32 14 13 41 -9 12 -16 14 -21 7z"/> <path d="M1250 1760 c-8 -15 -17 -19 -31 -15 -11 4 -19 2 -19 -4 0 -6 7 -11 15 -11 25 0 76 30 70 40 -10 16 -23 12 -35 -10z"/> <path d="M1165 1721 c-7 -12 12 -24 25 -16 11 7 4 25 -10 25 -5 0 -11 -4 -15 -9z"/> <path d="M320 1694 c0 -14 5 -35 12 -47 10 -19 9 -20 -4 -9 -22 18 -28 -10 -28 -146 0 -87 3 -113 13 -110 8 3 14 41 19 114 4 60 12 128 16 150 9 41 1 74 -18 74 -6 0 -10 -12 -10 -26z"/> <path d="M2300 1285 c0 -9 6 -15 13 -14 6 1 25 -3 40 -9 16 -7 32 -12 37 -12 16 0 21 -34 6 -48 -12 -12 -21 -12 -65 1 -47 14 -52 14 -49 0 4 -20 90 -43 113 -30 24 13 37 54 25 77 -6 11 -33 26 -62 35 -63 18 -58 18 -58 0z"/> <path d="M2245 1095 c-14 -13 -25 -31 -25 -40 0 -21 44 -65 67 -66 50 -3 73 16 73 63 0 21 -8 33 -32 48 -43 26 -54 25 -83 -5z m73 -21 c12 -8 22 -26 22 -40 0 -19 -5 -24 -25 -24 -30 0 -75 27 -75 44 0 17 21 36 40 36 8 0 26 -7 38 -16z"/> <path d="M2167 974 c-3 -4 1 -20 9 -36 19 -36 15 -42 -19 -29 -19 8 -28 6 -37 -5 -11 -12 -6 -14 27 -14 26 0 50 -8 67 -21 19 -15 31 -18 38 -11 7 7 2 15 -16 27 -15 10 -31 34 -38 56 -11 38 -18 46 -31 33z"/> <path d="M665 920 c3 -5 13 -10 21 -10 8 0 12 5 9 10 -3 6 -13 10 -21 10 -8 0 -12 -4 -9 -10z"/> <path d="M726 854 c-3 -8 2 -10 16 -6 17 4 19 2 13 -18 -7 -21 -5 -22 20 -16 22 6 26 4 22 -8 -9 -23 9 -29 40 -12 l28 14 -27 7 c-32 8 -38 30 -9 32 11 1 21 -6 23 -15 3 -15 4 -15 11 1 9 25 -31 41 -54 21 -15 -14 -49 -10 -49 5 0 13 -29 8 -34 -5z"/> <path d="M700 835 c0 -7 14 -27 31 -44 30 -30 59 -41 59 -21 0 6 -3 10 -7 10 -5 0 -25 16 -45 35 -22 19 -38 28 -38 20z"/> <path d="M1990 748 l-1 -43 -15 28 c-14 26 -34 37 -34 17 0 -21 74 -120 83 -111 6 6 3 16 -7 26 -26 26 -19 36 17 22 33 -14 57 -12 57 4 0 5 -3 8 -7 8 -5 -1 -23 2 -42 6 -32 8 -33 9 -28 46 4 29 2 39 -9 39 -10 0 -14 -13 -14 -42z"/> <path d="M1860 700 c0 -6 9 -29 21 -51 22 -44 20 -44 -45 3 -22 16 -43 25 -48 20 -10 -10 35 -125 51 -130 16 -5 13 30 -4 52 -30 40 -16 47 31 16 66 -46 78 -35 43 39 -26 55 -49 78 -49 51z"/> <path d="M570 665 c-9 -11 -22 -14 -44 -10 l-31 7 32 -24 c38 -27 41 -38 13 -38 -11 0 -20 4 -20 10 0 5 -10 15 -22 21 -23 11 -23 11 1 -15 30 -31 41 -32 83 -5 25 16 28 20 11 16 -17 -4 -23 -1 -23 12 0 27 12 33 26 13 7 -9 14 -12 14 -6 0 6 -6 17 -14 23 -10 9 -16 8 -26 -4z"/> <path d="M1280 632 c0 -5 9 -12 21 -15 18 -5 19 -10 13 -44 -11 -54 -10 -68 1 -70 6 -1 15 21 20 50 8 40 14 51 27 49 9 -1 19 2 23 8 3 5 3 10 -2 11 -10 1 -32 5 -72 14 -18 4 -31 3 -31 -3z"/> <path d="M1664 625 c3 -8 2 -15 -3 -15 -5 0 -12 -21 -17 -47 -11 -65 -11 -66 4 -70 7 -3 12 5 12 20 0 34 39 45 59 17 12 -18 41 -28 41 -14 0 3 -13 23 -29 43 -15 20 -33 46 -40 59 -13 24 -37 31 -27 7z m36 -56 c0 -5 -7 -9 -15 -9 -9 0 -15 9 -15 21 0 18 2 19 15 9 8 -7 15 -16 15 -21z"/> <path d="M1535 591 c-5 -26 -11 -31 -36 -31 -24 0 -29 4 -29 25 0 28 -15 34 -24 9 -3 -9 -6 -38 -6 -65 0 -37 4 -49 15 -49 10 0 15 11 15 35 0 32 2 35 30 35 28 0 30 -3 30 -35 0 -23 5 -35 14 -35 11 0 14 15 12 65 -2 73 -11 91 -21 46z"/> <path d="M2156 468 c-4 -16 -10 -19 -29 -14 -16 4 -29 1 -37 -9 -14 -17 -6 -50 10 -40 6 4 8 11 5 16 -3 5 0 6 8 3 8 -3 21 2 30 10 9 9 20 16 25 16 5 0 15 6 21 14 9 11 7 15 -8 19 -13 3 -21 -1 -25 -15z"/> <path d="M2030 411 c-19 -11 -35 -24 -35 -30 0 -6 -4 -11 -10 -10 -5 1 -9 5 -7 10 1 5 -2 9 -8 9 -16 0 -12 -30 5 -37 9 -3 36 5 60 18 43 23 57 39 34 39 -5 0 -7 5 -4 10 8 13 6 13 -35 -9z"/> <path d="M620 331 c0 -21 20 -36 39 -29 6 1 -1 14 -14 27 -25 23 -25 23 -25 2z"/> <path d="M1845 335 c-22 -7 -65 -18 -96 -24 -30 -7 -69 -14 -85 -18 -16 -3 -82 -6 -146 -7 -104 0 -117 -2 -121 -18 -5 -16 3 -18 71 -19 155 -2 282 16 410 57 46 15 50 18 34 30 -21 16 -18 16 -67 -1z"/> <path d="M1194 226 c-11 -43 24 -65 45 -28 7 10 14 13 18 7 5 -5 14 -10 21 -11 6 -1 18 -2 26 -2 8 -1 18 -11 21 -22 7 -22 21 -27 23 -7 0 6 4 22 7 35 4 12 3 22 -1 22 -19 0 -120 19 -136 25 -13 5 -19 0 -24 -19z"/> <path d="M1170 161 c-6 -12 -8 -21 -5 -21 4 0 0 -7 -8 -15 -14 -13 -12 -18 14 -46 24 -26 33 -30 59 -24 16 4 32 11 35 16 10 15 23 10 59 -22 l35 -31 41 23 c34 19 44 21 60 11 11 -7 29 -18 40 -24 16 -10 24 -10 43 1 60 39 68 40 90 20 11 -10 30 -19 42 -19 43 0 94 90 59 104 -10 4 -13 13 -9 27 5 13 3 19 -3 15 -13 -8 -22 -46 -11 -46 15 0 10 -27 -6 -34 -8 -3 -12 -12 -9 -21 5 -13 2 -14 -22 -4 -16 5 -38 18 -48 27 -18 16 -19 16 -13 0 4 -10 2 -18 -3 -18 -5 0 -11 9 -15 19 -11 36 -29 42 -66 22 -19 -10 -39 -16 -46 -14 -6 2 -30 -5 -52 -16 -41 -22 -71 -27 -71 -13 0 12 -88 35 -102 26 -25 -16 -46 -14 -43 4 1 9 -2 22 -7 28 -5 7 -7 17 -6 24 5 22 -20 22 -32 1z m405 -51 c3 -5 -1 -10 -9 -10 -8 0 -18 5 -21 10 -3 6 1 10 9 10 8 0 18 -4 21 -10z m-85 -20 c0 -5 -7 -10 -15 -10 -8 0 -15 5 -15 10 0 6 7 10 15 10 8 0 15 -4 15 -10z m60 1 c0 -5 -9 -11 -20 -14 -13 -3 -20 0 -20 9 0 8 9 14 20 14 11 0 20 -4 20 -9z"/> </g> </svg> 