 <svg  version="1.0" xmlns="http://www.w3.org/2000/svg"  width="300.000000pt" height="299.000000pt" viewBox="0 0 300.000000 299.000000"  preserveAspectRatio="xMidYMid meet">  <g transform="translate(0.000000,299.000000) scale(0.100000,-0.100000)" fill="#b80000" stroke="none"> <path d="M1441 2860 c-28 -50 -51 -94 -51 -99 0 -6 -5 -13 -10 -16 -6 -4 -10 -3 -9 2 4 20 -3 22 -26 7 -19 -12 -25 -13 -25 -3 0 7 -16 -5 -35 -26 -20 -24 -38 -36 -42 -30 -5 6 -7 9 -5 8 2 -1 17 13 32 30 45 50 19 52 -34 2 -27 -25 -54 -45 -60 -45 -6 0 5 15 24 33 19 17 44 43 55 57 l20 25 -21 -17 c-28 -24 -41 -23 -19 2 14 15 15 20 4 20 -8 0 -4 8 11 20 29 22 39 18 19 -6 -13 -16 -12 -16 11 -4 22 11 23 11 13 -1 -7 -9 -8 -20 -4 -28 7 -11 11 -9 21 5 8 13 10 14 7 3 -7 -21 8 -43 22 -35 19 12 12 30 -32 78 -23 26 -47 55 -54 65 -10 16 -13 15 -26 -17 -18 -40 -14 -52 8 -24 8 10 15 14 15 7 0 -13 -27 -43 -39 -43 -8 0 -33 -73 -29 -87 1 -4 -4 -19 -12 -33 -7 -14 -12 -26 -11 -28 2 -2 0 -6 -3 -9 -3 -3 -8 2 -12 11 -4 10 -2 22 4 28 8 8 -2 21 -35 47 -26 20 -50 35 -55 33 -4 -1 -7 3 -6 9 2 6 -11 21 -28 35 l-31 25 -1 -23 c0 -13 -7 -54 -15 -93 -9 -38 -13 -73 -11 -77 3 -5 -1 -11 -9 -13 -14 -6 -37 4 -105 48 -24 16 -50 26 -57 23 -9 -3 -12 0 -8 10 3 7 0 14 -5 14 -18 0 -13 -98 5 -104 11 -4 13 -2 9 9 -3 10 1 15 12 16 14 0 14 2 -2 8 -19 7 -19 8 -1 15 22 8 30 0 39 -36 8 -33 -19 -54 -42 -32 -23 23 -29 16 -31 -38 -1 -35 -7 -55 -19 -65 -16 -12 -16 -13 2 -6 15 5 12 -3 -14 -35 -18 -23 -35 -40 -38 -37 -3 2 0 11 6 18 7 8 9 17 5 20 -3 4 2 16 13 28 18 20 18 21 -1 35 -22 17 -35 18 -35 3 0 -5 -4 -8 -9 -5 -5 3 -14 -1 -21 -10 -7 -8 -18 -13 -24 -11 -7 3 -22 -4 -35 -14 -19 -16 -22 -25 -17 -55 4 -19 10 -42 13 -51 4 -11 2 -14 -8 -11 -8 3 -22 1 -33 -4 -13 -7 -16 -7 -12 1 4 6 4 11 -1 11 -4 1 -28 5 -53 10 -30 5 -49 5 -58 -3 -10 -8 -12 -7 -10 4 2 7 -6 15 -18 17 -22 3 -22 3 -6 -42 13 -34 19 -42 29 -34 16 13 17 -4 1 -20 -9 -9 -9 -12 1 -12 7 0 10 -4 7 -9 -12 -19 5 -38 30 -33 32 6 51 37 24 39 -13 1 -17 -3 -13 -13 6 -16 -13 -19 -22 -3 -4 6 1 17 11 25 11 9 13 12 5 8 -9 -4 -12 -2 -9 7 2 7 21 14 44 15 21 1 47 5 57 9 12 5 17 2 17 -8 0 -11 -7 -13 -22 -10 -13 3 -20 2 -16 -2 11 -12 -41 -73 -65 -77 -16 -2 -21 -9 -20 -25 3 -22 0 -22 -109 -25 -101 -3 -110 -5 -96 -18 8 -9 19 -26 23 -39 4 -13 12 -20 20 -17 10 3 13 -3 12 -22 -1 -18 3 -26 11 -24 8 1 11 -2 7 -8 -4 -6 0 -21 8 -34 15 -23 15 -23 -41 -34 -31 -7 -79 -14 -107 -18 -27 -3 -51 -7 -53 -9 -8 -8 27 -35 40 -32 7 2 10 2 6 0 -18 -10 -6 -24 14 -17 20 6 21 5 10 -8 -10 -13 -5 -23 29 -61 22 -26 38 -50 36 -54 -3 -5 -48 -21 -101 -38 -53 -16 -96 -33 -96 -36 0 -3 30 -30 66 -59 71 -58 76 -59 170 -40 l52 11 12 62 c45 231 165 449 332 604 185 171 388 268 646 308 24 4 41 9 38 12 -10 10 -159 -19 -247 -47 -48 -16 -124 -47 -168 -70 -45 -22 -86 -38 -91 -35 -16 10 -11 28 6 21 20 -8 53 9 83 42 14 17 21 20 18 10 -10 -30 40 1 63 39 10 18 25 33 31 33 8 0 9 -4 0 -13 -6 -8 -7 -18 -3 -22 4 -5 2 -5 -4 -2 -7 4 -14 1 -17 -7 -5 -11 1 -12 29 -3 19 6 30 13 24 17 -6 4 3 7 20 7 32 0 94 48 84 65 -3 4 -1 8 4 8 6 0 13 -7 16 -16 3 -8 2 -12 -4 -9 -5 3 -14 -4 -20 -15 -7 -13 -7 -20 0 -20 5 0 10 4 10 10 0 5 7 7 15 4 17 -7 48 14 39 27 -7 12 26 60 38 53 5 -4 3 -13 -5 -22 -8 -10 -14 -24 -14 -34 0 -13 7 -15 36 -10 20 3 42 12 49 21 12 14 13 14 8 -2 -5 -15 0 -16 37 -11 23 4 46 13 50 20 4 8 17 14 28 14 11 0 18 4 15 8 -3 5 8 18 24 30 16 12 31 18 34 13 6 -9 -56 -61 -73 -61 -5 0 -12 -4 -16 -9 -5 -9 26 -12 105 -12 14 0 65 -9 114 -21 74 -17 90 -18 97 -7 14 22 10 33 -6 19 -23 -19 -31 -3 -10 20 13 15 21 17 26 9 5 -9 17 -2 39 19 17 18 37 29 43 25 6 -4 8 0 4 10 -3 10 -2 17 3 17 20 0 8 -20 -46 -77 -40 -41 -52 -59 -41 -61 9 -2 26 2 38 8 18 10 19 14 8 22 -10 7 -6 8 12 4 18 -4 31 0 39 10 10 11 15 12 20 3 6 -8 9 -8 14 0 4 6 2 11 -4 11 -6 0 -8 4 -5 10 4 6 11 5 20 -3 15 -14 0 -41 -20 -34 -6 3 -19 -1 -29 -9 -11 -7 -22 -11 -26 -9 -4 3 -13 -2 -20 -10 -9 -11 -5 -16 29 -25 22 -6 83 -32 136 -59 52 -27 95 -46 96 -43 1 4 1 16 0 27 -1 11 12 34 29 50 35 34 39 55 8 55 -20 0 -20 1 -4 19 21 23 12 49 -10 30 -8 -7 -14 -7 -14 -1 0 15 32 24 41 11 4 -6 12 -8 18 -5 18 12 12 -16 -6 -30 -13 -10 -14 -13 -3 -9 26 9 24 -43 -3 -71 -12 -12 -22 -27 -23 -31 0 -4 -6 -21 -13 -37 -11 -28 -4 -45 21 -46 4 0 14 -7 23 -16 11 -12 19 -14 27 -6 15 15 0 32 -30 33 -15 0 -21 3 -14 6 6 2 12 17 12 33 0 16 7 36 16 44 11 11 15 34 14 83 -1 74 1 91 14 112 9 13 -103 -44 -156 -81 -14 -10 -30 -18 -35 -18 -5 0 -17 -9 -26 -21 -10 -11 -21 -18 -24 -15 -4 3 4 17 16 30 19 20 22 30 15 58 -4 18 -8 35 -9 38 -1 3 -4 31 -9 62 l-7 58 -35 -26 c-19 -15 -34 -33 -34 -41 0 -8 -4 -12 -9 -9 -5 3 -11 -1 -15 -9 -3 -8 -12 -15 -19 -15 -8 0 -22 -9 -32 -20 -10 -11 -21 -20 -25 -20 -4 0 -15 25 -25 55 -14 41 -22 52 -31 44 -7 -6 -12 -16 -10 -22 1 -7 1 -9 -1 -5 -5 9 -43 -13 -43 -25 0 -4 4 -6 9 -2 5 3 12 1 16 -5 3 -5 1 -10 -5 -10 -6 0 -9 -4 -5 -10 3 -5 12 -7 19 -4 24 9 27 -14 7 -46 -19 -32 -19 -32 -31 -10 -8 15 -9 25 -2 32 13 13 -15 61 -30 52 -6 -4 -6 -9 2 -14 9 -6 6 -14 -10 -30 -24 -24 -24 -25 10 -39 l25 -10 -27 2 c-33 2 -44 24 -23 47 20 22 19 36 -2 19 -15 -13 -15 -12 -6 6 14 25 63 72 63 59 0 -5 11 3 25 18 24 26 25 29 11 57 -8 15 -12 31 -9 35 4 3 2 6 -3 6 -5 0 -22 -16 -37 -35 -27 -34 -27 -35 -4 -26 22 9 23 7 19 -16 -3 -16 -8 -21 -15 -14 -7 7 -19 -3 -39 -30 -15 -21 -31 -39 -34 -39 -7 0 5 21 29 47 11 13 18 25 15 28 -3 3 -23 -18 -44 -47 -30 -40 -40 -48 -42 -34 -2 11 -13 35 -25 55 -11 20 -33 59 -48 88 l-27 52 -51 -89z m65 3 c-10 -10 -19 5 -10 18 6 11 8 11 12 0 2 -7 1 -15 -2 -18z m-41 -3 c-6 -11 13 -14 55 -11 l25 2 -29 -26 c-29 -25 -41 -32 -32 -17 2 4 1 14 -5 22 -5 9 -9 10 -9 3 0 -6 -8 -11 -19 -10 -16 1 -17 5 -8 24 6 13 14 23 19 23 5 0 6 -4 3 -10z m511 -54 c-1 -19 -3 -32 -5 -30 -7 6 -31 -17 -31 -30 0 -6 5 -4 10 4 8 13 12 12 29 -7 17 -17 18 -23 7 -32 -10 -9 -15 -8 -20 4 -3 8 -10 15 -16 15 -6 0 -8 -6 -4 -12 4 -7 4 -10 -1 -6 -4 4 -15 -1 -24 -12 -9 -10 -27 -21 -41 -25 -19 -5 -14 1 19 26 24 18 39 35 34 36 -15 5 -4 43 12 43 7 0 15 14 19 30 7 40 13 38 12 -4z m-969 2 c-3 -8 -6 -5 -6 6 -1 11 2 17 5 13 3 -3 4 -12 1 -19z m523 -17 c-34 -33 -100 -74 -100 -62 0 5 -11 4 -24 -2 -13 -7 -22 -15 -20 -19 3 -5 0 -9 -5 -9 -26 -3 -30 -4 -37 -11 -13 -14 -20 -8 -20 16 0 20 3 22 17 13 22 -14 81 26 72 49 -3 9 0 20 8 25 25 16 32 9 13 -13 -19 -21 -19 -21 0 -14 16 5 17 4 6 -9 -24 -28 5 -15 54 25 56 46 78 53 36 11z m-464 -23 l24 -3 -34 -37 c-37 -40 -71 -52 -59 -21 5 12 8 13 11 4 3 -9 11 -6 28 10 26 24 34 49 9 29 -13 -11 -14 -10 -9 4 3 9 1 16 -5 16 -6 0 -11 -8 -11 -17 -1 -17 -1 -17 -11 0 -9 15 -7 21 8 32 15 12 18 12 21 0 2 -8 14 -15 28 -17z m414 11 c0 -6 -4 -7 -10 -4 -5 3 -10 11 -10 16 0 6 5 7 10 4 6 -3 10 -11 10 -16z m60 -18 c-6 -12 -15 -21 -21 -21 -5 0 -2 11 7 25 20 30 31 26 14 -4z m-440 -31 c0 -5 -4 -10 -10 -10 -5 0 -10 -9 -10 -20 0 -11 5 -20 10 -20 15 0 12 -17 -4 -23 -10 -4 -13 -1 -9 9 10 28 -4 13 -36 -37 -18 -27 -35 -48 -38 -46 -2 3 7 24 21 46 35 55 18 52 -24 -4 -19 -25 -35 -45 -36 -45 -2 0 -1 12 1 28 1 16 8 27 17 26 8 -1 23 12 34 27 13 20 25 27 37 23 12 -4 18 -1 16 8 -3 18 11 48 22 48 5 0 9 -4 9 -10z m260 0 c0 -5 -5 -10 -11 -10 -5 0 -7 5 -4 10 3 6 8 10 11 10 2 0 4 -4 4 -10z m134 1 c8 -12 -21 -34 -34 -26 -8 5 -8 11 1 21 13 16 25 18 33 5z m105 -8 c-5 -29 3 -33 20 -12 20 24 20 24 18 2 0 -12 -4 -20 -8 -17 -4 2 -10 0 -14 -6 -4 -7 -13 -7 -26 1 -15 8 -24 7 -35 -2 -8 -6 -17 -9 -20 -6 -4 3 9 15 27 26 38 23 39 24 38 14z m201 -1 c0 -10 -22 -32 -32 -32 -5 0 -3 9 4 20 13 20 28 27 28 12z m-676 -23 c-3 -6 2 -17 12 -24 11 -8 15 -15 10 -15 -5 0 -2 -8 5 -17 13 -16 12 -17 -3 -5 -11 9 -18 10 -23 2 -7 -12 -25 -13 -25 -2 0 5 10 14 23 20 12 6 16 11 9 11 -23 1 -42 27 -30 39 13 13 31 5 22 -9z m302 -15 c-11 -7 -22 -11 -25 -8 -3 3 3 12 13 20 11 7 22 11 25 8 3 -3 -3 -12 -13 -20z m-416 -8 c0 -3 -4 -8 -10 -11 -5 -3 -10 -1 -10 4 0 6 5 11 10 11 6 0 10 -2 10 -4z m180 -11 c-7 -8 -16 -15 -21 -15 -5 0 -6 7 -3 15 4 8 13 15 21 15 13 0 13 -3 3 -15z m-300 -5 c0 -5 -4 -10 -10 -10 -5 0 -10 5 -10 10 0 6 5 10 10 10 6 0 10 -4 10 -10z m1080 -25 c-13 -14 -28 -25 -34 -25 -5 0 3 13 19 30 16 16 31 28 33 25 3 -3 -5 -16 -18 -30z m135 15 c-3 -5 -14 -10 -23 -10 -15 0 -15 2 -2 10 20 13 33 13 25 0z m-1161 -21 c-3 -5 -10 -7 -15 -3 -5 3 -16 0 -24 -6 -8 -7 -15 -9 -15 -6 0 4 -5 4 -10 1 -8 -5 -8 -11 0 -20 9 -10 6 -16 -9 -25 -23 -12 -28 -1 -9 18 8 8 9 12 1 12 -6 0 -13 -4 -15 -9 -5 -15 -40 -17 -45 -3 -3 7 4 12 19 12 30 1 65 26 46 34 -7 3 -1 3 13 0 15 -3 30 -1 33 5 4 5 13 8 21 5 8 -4 12 -10 9 -15z m976 -4 c-7 -8 -17 -15 -23 -15 -5 0 -2 9 8 20 21 23 35 19 15 -5z m145 -6 c-9 -14 5 -11 21 6 17 17 49 21 39 5 -3 -5 -13 -10 -21 -10 -8 0 -14 -4 -14 -10 0 -5 8 -6 17 -3 14 5 12 0 -6 -26 -16 -22 -26 -29 -31 -21 -10 17 -15 17 -33 1 -19 -15 -23 -1 -6 16 14 14 2 36 -13 27 -7 -4 -8 -2 -4 5 6 9 11 9 24 -1 13 -11 15 -11 10 4 -4 9 -4 19 -1 22 9 8 24 -4 18 -15z m-1130 -8 c3 -5 1 -12 -5 -16 -6 -4 -8 -10 -5 -15 3 -4 -2 -13 -10 -20 -8 -7 -16 -9 -16 -4 -4 31 -3 40 5 52 10 14 23 16 31 3z m1205 -16 c0 -8 -7 -15 -16 -15 -14 0 -14 3 -4 15 7 8 14 15 16 15 2 0 4 -7 4 -15z m-140 -5 c0 -5 -7 -10 -16 -10 -8 0 -12 5 -9 10 3 6 10 10 16 10 5 0 9 -4 9 -10z m-1053 -30 c-1 -10 -3 -17 -6 -15 -2 3 -12 -2 -22 -11 -12 -11 -19 -12 -24 -4 -5 8 -13 6 -26 -6 -17 -15 -17 -18 -4 -28 13 -9 2 -21 -64 -69 -222 -161 -388 -423 -441 -695 -7 -35 -16 -60 -21 -55 -10 10 4 67 48 201 19 56 31 107 28 112 -3 6 1 10 9 10 8 0 18 5 22 11 5 9 -1 10 -20 5 -17 -4 -34 -2 -42 5 -11 9 -14 8 -14 -4 0 -8 10 -22 23 -30 l22 -16 -22 0 c-13 -1 -23 -6 -23 -12 0 -5 5 -7 10 -4 6 3 10 2 10 -4 0 -5 -4 -13 -10 -16 -6 -3 -10 -15 -10 -26 0 -10 -6 -19 -13 -19 -19 0 -15 55 6 78 23 25 11 36 -14 11 -23 -23 -25 -76 -4 -103 8 -11 15 -25 15 -30 0 -6 -5 -4 -10 4 -7 11 -10 7 -10 -17 0 -22 -6 -36 -20 -43 -11 -6 -20 -15 -20 -21 0 -6 4 -7 10 -4 5 3 10 1 10 -5 0 -6 5 -8 12 -4 7 4 2 -7 -11 -24 -12 -18 -20 -35 -17 -40 2 -4 -4 -13 -15 -20 -11 -7 -19 -8 -19 -2 0 5 5 10 12 10 6 0 9 3 5 6 -3 3 -16 -1 -29 -10 -29 -20 -62 -22 -36 -2 27 20 21 29 -7 10 -14 -9 -25 -12 -25 -6 0 19 27 32 65 29 24 -1 39 3 43 11 3 11 0 12 -17 3 -25 -14 -25 -13 -4 29 12 24 13 35 5 38 -7 2 -12 8 -12 13 0 6 4 8 8 5 5 -3 16 4 25 14 16 19 7 37 -12 25 -9 -5 -27 32 -23 48 1 5 -7 6 -18 2 -24 -8 -26 3 -3 20 13 9 13 14 3 20 -9 5 -11 4 -6 -3 4 -7 2 -12 -4 -12 -7 0 -10 6 -7 13 2 6 14 12 26 11 11 0 21 3 21 8 0 4 -7 8 -16 8 -8 0 -13 4 -10 9 4 5 16 4 30 -2 18 -9 22 -15 14 -25 -14 -16 -7 -24 11 -13 20 13 4 74 -16 66 -13 -4 -14 -3 -3 10 11 13 14 12 30 -8 l18 -22 11 27 c5 14 18 32 28 38 14 9 15 10 1 6 -11 -3 -20 4 -28 24 -15 36 -5 57 18 38 14 -12 14 -10 3 10 -8 16 -9 27 -1 40 8 12 10 13 8 2 -1 -8 4 -26 11 -39 12 -21 15 -22 22 -8 10 16 39 13 39 -5 0 -5 -5 -6 -12 -2 -8 5 -9 2 -5 -9 3 -9 0 -20 -7 -24 -7 -5 -18 -18 -25 -30 -10 -19 -9 -23 4 -23 9 0 14 3 11 8 -6 10 22 47 30 39 4 -4 1 -13 -6 -22 -9 -11 -9 -15 -1 -15 6 0 16 11 21 24 8 22 30 56 104 160 33 47 207 214 253 243 36 23 39 29 25 39 -14 10 -13 13 5 34 14 14 28 20 40 16 12 -4 27 1 39 13 24 25 23 25 21 1z m-148 -11 c-16 -10 -23 -4 -14 10 3 6 11 8 17 5 6 -4 5 -9 -3 -15z m46 11 c3 -5 -7 -16 -22 -24 -15 -8 -22 -15 -15 -16 6 0 12 -8 12 -19 0 -19 -44 -54 -67 -54 -8 0 -16 -11 -19 -23 -6 -25 -31 -51 -54 -56 -8 -2 -23 -16 -33 -32 -10 -15 -21 -26 -24 -22 -8 8 -43 -12 -43 -25 0 -6 5 -7 10 -4 24 15 7 -15 -27 -48 -21 -19 -46 -47 -56 -61 -18 -26 -37 -34 -37 -16 0 6 6 10 14 10 15 0 16 24 1 37 -4 4 -5 3 -2 -3 4 -7 0 -18 -9 -25 -9 -7 -20 -22 -24 -34 -9 -20 -9 -20 -10 0 0 19 -2 18 -21 -5 -20 -24 -21 -24 -16 -3 3 12 0 24 -5 25 -6 2 -3 10 6 17 14 12 16 11 10 -5 -7 -18 -6 -18 13 1 11 11 18 24 15 29 -3 5 0 6 7 1 13 -7 48 32 43 48 -1 4 5 7 13 7 8 0 15 7 15 15 0 8 5 15 10 15 6 0 10 -7 10 -15 0 -8 -4 -15 -8 -15 -5 0 -14 -11 -20 -25 -6 -14 -10 -25 -7 -25 10 0 52 49 46 55 -3 4 -1 6 4 5 22 -5 27 1 14 16 -10 13 -10 17 2 25 9 5 10 9 2 9 -6 0 -15 -4 -18 -10 -3 -5 -12 -10 -18 -10 -7 0 -4 7 6 14 10 8 33 13 50 12 27 -2 35 3 54 33 12 20 19 39 17 43 -3 5 -1 8 5 8 5 0 12 6 14 13 2 6 3 -1 1 -17 -4 -29 -4 -29 17 -10 12 11 16 20 9 22 -6 2 3 14 19 26 17 13 27 27 23 31 -4 4 3 5 16 2 22 -5 32 8 11 15 -6 2 1 16 15 31 14 16 26 32 26 38 0 12 17 12 25 -1z m1265 -31 c0 -18 -2 -19 -15 -9 -15 12 -12 30 6 30 5 0 9 -10 9 -21z m-1411 -21 c-13 -25 -49 -54 -62 -50 -5 1 -5 -2 -2 -8 4 -6 13 -9 19 -7 7 3 13 -1 13 -9 0 -8 -4 -14 -9 -14 -4 0 -8 -6 -8 -14 0 -8 -7 -21 -15 -30 -9 -8 -14 -19 -13 -23 2 -4 -6 -9 -17 -11 -19 -4 -19 -3 3 20 12 14 19 28 15 31 -3 4 -1 7 5 7 21 0 13 28 -15 50 -26 20 -26 21 -8 38 17 16 17 16 12 -5 -6 -28 9 -31 18 -4 3 10 15 27 27 37 23 20 17 3 -10 -29 -8 -9 -13 -19 -10 -22 2 -3 18 13 34 34 31 42 43 47 23 9z m-69 -82 c0 -3 -4 -8 -10 -11 -5 -3 -10 -1 -10 4 0 6 5 11 10 11 6 0 10 -2 10 -4z m-160 -44 c0 -14 -11 -21 -26 -15 -8 3 -11 9 -8 14 7 11 34 12 34 1z m37 -9 c-9 -9 -20 -13 -24 -9 -4 4 -1 11 7 16 25 16 35 11 17 -7z m-183 -177 c-21 -15 -30 -14 -19 3 3 6 14 11 23 11 13 0 13 -2 -4 -14z m59 -15 c-15 -15 -36 -39 -45 -52 -23 -30 -23 -16 -1 18 17 26 17 27 0 20 -11 -4 -17 -2 -17 8 0 8 8 12 19 10 11 -2 25 3 32 11 6 8 18 14 26 14 9 0 4 -10 -14 -29z m107 -50 c0 -12 -20 -25 -27 -18 -7 7 6 27 18 27 5 0 9 -4 9 -9z m-264 -150 c-4 -5 0 -11 6 -14 7 -2 10 -8 6 -12 -8 -9 -38 12 -38 26 0 5 7 9 16 9 8 0 13 -4 10 -9z m39 -211 c8 -12 -12 -40 -28 -40 -5 0 -2 10 9 21 19 21 19 22 -3 15 -14 -5 -23 -3 -23 3 0 14 37 14 45 1z m-109 -35 c-8 -8 -17 -15 -20 -15 -3 0 -6 7 -6 15 0 9 9 15 21 15 18 0 19 -2 5 -15z m49 -5 c-10 -11 -25 -20 -34 -20 -12 1 -10 5 8 20 30 26 49 26 26 0z"/> <path d="M2070 2584 c0 -8 5 -12 10 -9 6 3 10 10 10 16 0 5 -4 9 -10 9 -5 0 -10 -7 -10 -16z"/> <path d="M353 1935 c0 -8 4 -12 9 -9 4 3 8 9 8 15 0 5 -4 9 -8 9 -5 0 -9 -7 -9 -15z"/> <path d="M295 1800 c-3 -5 -1 -10 4 -10 6 0 11 5 11 10 0 6 -2 10 -4 10 -3 0 -8 -4 -11 -10z"/> <path d="M1731 2713 c-7 -8 -11 -16 -8 -19 2 -2 10 2 17 11 17 20 9 27 -9 8z"/> <path d="M1409 2649 c-9 -5 22 -9 76 -9 57 0 85 4 76 9 -18 12 -135 11 -152 0z"/> <path d="M810 2639 c0 -5 5 -7 10 -4 6 3 10 8 10 11 0 2 -4 4 -10 4 -5 0 -10 -5 -10 -11z"/> <path d="M1581 2646 c2 -2 46 -11 97 -20 51 -9 118 -24 148 -35 30 -10 54 -14 54 -10 0 11 -83 37 -174 54 -75 14 -134 20 -125 11z"/> <path d="M558 2602 c8 -5 13 -12 13 -16 -1 -3 1 -6 4 -6 3 0 13 0 22 0 23 0 5 16 -27 25 -17 4 -21 3 -12 -3z"/> <path d="M1525 2600 c-9 -3 -30 -37 -46 -75 -16 -39 -36 -84 -44 -102 -19 -41 -19 -49 2 -32 11 10 14 10 9 2 -5 -9 1 -13 20 -13 20 0 25 4 22 18 -4 15 2 18 46 17 47 0 51 2 55 25 3 24 2 24 -16 7 -24 -21 -34 -22 -27 -2 4 9 0 15 -10 15 -19 0 -19 -1 -4 40 9 27 40 70 51 70 1 0 3 -9 3 -19 0 -11 -4 -17 -8 -15 -5 3 -11 -3 -15 -12 -4 -10 -2 -19 5 -22 6 -2 9 -11 6 -20 -4 -12 1 -9 15 7 21 24 25 48 15 87 -6 23 -47 35 -79 24z m25 -19 c0 -10 -9 -21 -20 -24 -24 -6 -25 1 -3 25 20 23 23 23 23 -1z m-30 -79 c0 -5 -9 -17 -20 -27 -19 -18 -20 -17 -20 2 0 11 3 23 7 26 9 10 33 9 33 -1z"/> <path d="M2318 2569 c-72 -27 -100 -34 -108 -25 -14 14 -3 -42 13 -61 14 -19 26 -16 20 6 -3 10 0 22 7 26 16 10 25 -2 14 -17 -16 -23 -10 -43 24 -76 35 -34 52 -34 52 -1 0 10 5 19 10 19 16 0 12 -27 -6 -45 -15 -15 -15 -18 6 -41 31 -32 58 -30 100 6 40 35 55 38 40 11 -7 -14 -7 -22 0 -26 23 -14 -12 -36 -49 -30 -33 5 -34 5 -11 -6 22 -10 55 -15 63 -9 1 1 13 3 27 6 23 4 22 2 -7 -17 -33 -21 -45 -43 -19 -33 15 6 17 -26 2 -37 -5 -4 1 -10 12 -13 11 -4 23 -13 26 -22 4 -10 15 -13 37 -9 26 5 30 3 25 -10 -3 -9 -2 -13 4 -10 14 9 13 35 -2 35 -6 0 -8 3 -4 7 4 4 16 -3 26 -17 13 -18 16 -29 9 -42 -14 -25 -4 -22 26 7 16 17 25 21 25 12 0 -8 -7 -20 -15 -27 -8 -7 -12 -17 -8 -23 4 -6 1 -7 -6 -3 -7 5 -18 1 -25 -10 -10 -13 -22 -16 -49 -11 -25 4 -39 1 -48 -9 -18 -22 -6 -26 56 -19 64 8 72 15 121 99 36 62 37 79 2 57 -11 -7 -17 -8 -13 -2 3 7 -2 11 -14 11 -12 0 -21 -5 -21 -11 0 -5 4 -7 10 -4 6 3 7 -1 3 -10 -5 -13 -7 -14 -14 -3 -6 9 -9 6 -9 -11 0 -19 -3 -22 -12 -13 -8 8 -8 15 0 25 18 21 4 27 -60 27 -61 0 -63 1 -48 29 5 10 23 55 39 101 30 81 30 82 8 76 -28 -8 -190 -36 -193 -33 -1 1 2 25 7 52 6 28 11 59 13 70 2 11 7 32 11 47 4 15 5 31 3 36 -1 4 -47 -8 -100 -29z m75 -5 c3 -3 3 -12 1 -19 -7 -17 -44 -7 -44 11 0 14 31 20 43 8z m-17 -56 c7 -24 -13 -59 -31 -52 -10 4 -15 0 -15 -15 0 -12 -5 -21 -11 -21 -12 0 -3 37 15 59 9 12 8 12 -11 3 -16 -9 -23 -9 -27 1 -3 6 -3 2 0 -10 3 -13 1 -23 -5 -23 -12 0 -13 4 -15 50 -1 23 4 32 23 38 30 10 69 -6 77 -30z m21 -138 c22 0 24 -2 13 -15 -12 -14 -15 -14 -30 0 -9 8 -20 12 -23 8 -4 -3 -7 -2 -7 4 0 15 14 26 18 14 2 -6 15 -11 29 -11z m150 0 c1 -11 -2 -18 -7 -15 -4 3 -6 -4 -3 -15 4 -14 0 -20 -11 -20 -19 0 -22 40 -4 58 17 17 24 15 25 -8z m26 -174 c4 -10 0 -12 -14 -9 -22 6 -26 23 -5 23 8 0 16 -6 19 -14z"/> <path d="M2351 2474 c0 -11 3 -14 6 -6 3 7 2 16 -1 19 -3 4 -6 -2 -5 -13z"/> <path d="M601 2566 c-14 -7 -26 -23 -28 -35 -4 -30 8 -26 40 14 30 37 27 42 -12 21z"/> <path d="M1238 2574 c-4 -4 -23 -8 -43 -10 -19 -2 -39 -5 -44 -8 -6 -4 31 -193 44 -223 1 -1 14 1 31 6 27 7 29 10 26 49 -3 37 -1 42 17 42 77 0 117 92 60 136 -17 12 -82 18 -91 8z m31 -21 c-1 -10 1 -25 4 -33 3 -8 7 -24 10 -35 2 -11 9 -19 16 -17 7 1 10 -1 7 -6 -3 -5 -21 -4 -40 2 -42 13 -53 43 -26 69 11 10 20 22 20 27 0 6 3 10 6 10 3 0 4 -8 3 -17z m48 -13 c-1 -12 -5 -16 -10 -11 -5 5 -6 14 -3 20 11 16 15 13 13 -9z m-107 -21 c0 -11 -27 -12 -34 0 -3 4 -3 11 0 14 8 8 34 -3 34 -14z m140 -3 c0 -2 -7 -9 -15 -16 -13 -11 -14 -10 -9 4 5 14 24 23 24 12z m-130 -41 c0 -8 -4 -15 -10 -15 -5 0 -10 7 -10 15 0 8 5 15 10 15 6 0 10 -7 10 -15z m11 -58 c-16 -16 -26 0 -10 19 9 11 15 12 17 4 2 -6 -1 -17 -7 -23z m-11 -27 c0 -5 -2 -10 -4 -10 -3 0 -8 5 -11 10 -3 6 -1 10 4 10 6 0 11 -4 11 -10z"/> <path d="M1893 2573 c3 -5 24 -15 46 -23 23 -7 41 -17 41 -22 0 -5 4 -7 9 -3 5 3 16 -1 24 -9 8 -8 17 -13 19 -11 7 8 158 -99 228 -162 65 -57 149 -156 180 -210 8 -15 20 -33 27 -40 6 -7 15 -22 18 -33 3 -11 11 -20 17 -20 14 0 -34 81 -98 166 -63 83 -144 162 -234 228 -88 65 -295 169 -277 139z"/> <path d="M637 2556 c-10 -8 -14 -17 -9 -20 5 -3 17 3 27 14 21 23 9 26 -18 6z"/> <path d="M1768 2450 l-36 -109 30 -6 c16 -4 32 -4 35 -1 11 10 72 200 67 206 -3 3 -14 -6 -25 -19 -11 -13 -22 -21 -26 -17 -3 3 1 14 11 25 15 17 15 19 1 25 -9 3 -17 6 -18 6 -1 0 -18 -49 -39 -110z m44 18 c-7 -7 -12 -8 -12 -2 0 6 3 14 7 17 3 4 9 5 12 2 2 -3 -1 -11 -7 -17z m18 -15 c-1 -17 -40 -54 -50 -48 -6 3 2 16 18 30 30 27 32 28 32 18z m-35 -73 c-3 -5 -12 -10 -18 -10 -7 0 -6 4 3 10 19 12 23 12 15 0z"/> <path d="M1615 2495 c-5 -11 -9 -29 -10 -40 -1 -11 -5 -35 -9 -52 l-8 -33 41 0 40 0 -10 30 c-6 16 -15 28 -19 25 -4 -3 -6 3 -4 12 2 10 1 31 -4 48 -7 26 -9 27 -17 10z"/> <path d="M958 2472 l-26 -16 33 -51 c24 -38 30 -56 23 -68 -5 -10 -14 -17 -20 -17 -6 0 -6 6 2 15 17 21 7 28 -62 49 -57 17 -58 17 -87 -4 -30 -21 -30 -21 -11 -40 11 -11 25 -20 31 -20 5 0 8 -4 5 -9 -3 -5 11 -38 32 -74 35 -59 40 -64 56 -51 11 7 24 15 30 17 7 2 4 14 -7 31 -15 22 -21 25 -33 15 -9 -7 -14 -8 -14 -1 0 6 5 12 11 14 9 3 8 10 -1 28 -11 20 -10 25 4 35 8 7 12 16 8 20 -4 5 -1 5 6 1 11 -6 10 -11 -3 -26 -15 -16 -14 -18 16 -24 25 -5 38 -1 56 16 33 31 85 35 66 5 -10 -17 -14 -47 -6 -47 3 0 14 7 24 16 16 15 16 18 -10 57 -15 23 -43 66 -61 95 -18 28 -34 52 -34 51 -1 0 -13 -8 -28 -17z m27 -31 c-3 -6 -11 -11 -17 -11 -6 0 -6 6 2 15 14 17 26 13 15 -4z m17 -43 c-7 -7 -12 -8 -12 -2 0 14 12 26 19 19 2 -3 -1 -11 -7 -17z m28 -33 c10 -12 10 -15 -2 -15 -8 0 -15 7 -15 15 0 8 1 15 2 15 2 0 8 -7 15 -15z m-126 -21 c-10 -8 -12 -12 -4 -8 13 7 13 6 0 -12 -8 -10 -15 -20 -16 -22 0 -1 -1 11 -2 27 0 20 5 31 16 34 26 5 28 -1 6 -19z m-50 10 c16 -6 12 -24 -5 -24 -6 0 -8 4 -5 9 4 5 0 12 -6 14 -7 3 -10 6 -6 6 3 1 13 -2 22 -5z m56 -73 c0 -5 -7 -12 -16 -15 -24 -9 -28 -7 -14 9 14 17 30 20 30 6z m40 -65 c0 -3 -4 -8 -10 -11 -5 -3 -10 -1 -10 4 0 6 5 11 10 11 6 0 10 -2 10 -4z"/> <path d="M1972 2418 c-21 -29 -48 -69 -60 -89 l-22 -37 59 -40 c32 -23 61 -39 64 -36 2 2 16 0 29 -5 22 -8 31 -5 63 24 20 19 34 39 30 45 -3 5 -1 10 4 10 6 0 11 18 11 40 0 31 -4 40 -17 40 -14 0 -15 -2 -4 -9 10 -6 10 -10 1 -16 -7 -4 -9 -17 -6 -31 4 -14 2 -24 -4 -24 -12 0 -9 67 4 88 5 8 1 21 -10 33 -18 20 -44 26 -44 9 0 -5 -4 -10 -10 -10 -5 0 -7 7 -4 15 7 18 -12 45 -32 45 -7 0 -31 -24 -52 -52z m47 -12 c-9 -8 -10 -7 -5 7 3 10 7 24 7 30 1 7 3 4 6 -7 3 -10 -1 -23 -8 -30z m-27 -23 c-5 -10 -7 -24 -5 -30 3 -7 0 -13 -6 -13 -18 0 -20 16 -5 38 18 26 28 29 16 5z m96 -29 c4 -31 -34 -84 -62 -84 -41 0 -51 24 -27 63 11 19 17 38 13 42 -4 5 -1 5 6 1 7 -4 15 -1 18 9 6 14 9 14 28 2 11 -8 22 -23 24 -33z m-125 -28 c7 3 4 -1 -5 -8 -15 -13 -15 -15 0 -25 13 -8 14 -14 5 -23 -8 -9 -13 -7 -18 9 -3 12 -13 21 -21 21 -8 0 -12 5 -9 10 4 6 11 8 16 5 5 -4 9 2 10 12 0 11 3 13 6 5 2 -6 10 -10 16 -6z m133 -53 c-3 -17 -26 -32 -26 -16 0 8 20 33 26 33 1 0 1 -8 0 -17z m-66 -33 c0 -5 -2 -10 -4 -10 -3 0 -8 5 -11 10 -3 6 -1 10 4 10 6 0 11 -4 11 -10z"/> <path d="M2226 2432 c-4 -7 29 -48 83 -101 68 -68 92 -86 102 -77 9 8 10 7 5 -8 -4 -13 8 -40 41 -90 26 -39 49 -73 50 -75 1 -2 9 4 18 12 9 10 11 18 5 22 -5 3 -10 1 -10 -5 0 -6 -5 -8 -10 -5 -6 4 -8 10 -5 15 3 5 1 12 -5 15 -18 11 -61 86 -57 98 2 7 -3 20 -12 30 -8 10 -11 17 -6 15 6 -2 10 1 10 6 0 6 -13 11 -30 13 -16 2 -32 8 -33 13 -2 6 -8 8 -12 5 -8 -5 -84 69 -115 112 -8 11 -14 13 -19 5z"/> <path d="M2455 2339 c-4 -6 -5 -13 -2 -16 7 -7 27 6 27 18 0 12 -17 12 -25 -2z"/> <path d="M1331 2325 c-116 -26 -261 -83 -261 -103 0 -5 30 7 68 25 96 47 209 74 324 76 54 1 98 5 98 10 0 12 -161 6 -229 -8z"/> <path d="M1575 2330 c-3 -4 20 -10 51 -14 167 -19 398 -152 500 -287 39 -51 71 -70 35 -21 -86 119 -242 232 -391 284 -69 24 -189 47 -195 38z"/> <path d="M1045 2320 c-16 -7 -17 -9 -3 -9 9 -1 20 4 23 9 7 11 7 11 -20 0z"/> <path d="M1375 2300 c-3 -5 -12 -7 -19 -4 -8 3 -34 0 -57 -6 -116 -29 -265 -110 -354 -192 -41 -38 -75 -76 -75 -83 0 -7 -6 -15 -14 -18 -21 -8 -80 -104 -116 -188 -16 -39 -30 -75 -30 -79 0 -4 30 -1 68 6 37 7 173 32 302 55 185 32 240 46 258 62 33 31 27 37 -15 16 -21 -10 -45 -19 -55 -19 -9 0 -19 -4 -22 -9 -3 -5 -16 -7 -28 -3 -21 5 -21 6 -2 14 13 6 9 7 -14 3 -40 -6 -40 15 -1 26 l24 7 -25 1 c-14 0 -34 -6 -44 -14 -11 -8 -15 -15 -8 -15 6 0 16 -9 22 -21 11 -19 10 -20 -11 -9 -13 8 -24 8 -28 3 -6 -10 -67 -22 -126 -26 -20 -1 -29 2 -27 11 1 8 -2 11 -8 7 -5 -3 -10 1 -10 9 0 9 5 15 10 14 6 -2 20 13 32 32 17 26 18 32 5 21 -9 -7 -17 -10 -17 -5 0 4 12 18 27 29 14 12 23 27 19 33 -10 16 -36 3 -36 -17 0 -26 -11 -33 -29 -18 -12 9 -11 7 2 -13 23 -33 21 -47 -3 -25 -11 10 -23 15 -28 11 -10 -10 -10 -56 0 -50 4 3 8 -1 8 -8 0 -15 -20 -48 -20 -34 0 5 -9 1 -20 -9 -24 -22 -36 -14 -21 13 6 12 11 27 10 34 0 7 -5 3 -11 -9 -6 -13 -17 -23 -25 -23 -17 0 -17 15 2 30 21 17 19 33 -2 22 -10 -5 -23 -7 -30 -5 -7 2 -25 -10 -40 -27 -24 -27 -29 -29 -30 -13 -1 19 49 60 68 55 5 -1 9 9 9 22 0 14 5 28 11 32 8 5 8 9 -1 14 -8 5 -7 9 4 13 9 4 16 2 16 -3 0 -6 5 -10 12 -10 6 0 8 3 5 6 -3 4 3 18 13 32 15 19 17 28 9 38 -9 11 -6 14 14 14 19 0 25 -4 21 -15 -4 -8 0 -23 7 -32 8 -9 10 -14 4 -11 -5 3 -21 -6 -35 -20 l-25 -25 25 17 c28 18 44 21 35 6 -3 -5 0 -10 8 -10 10 0 14 9 13 25 0 14 -5 25 -9 25 -5 0 -6 9 -2 19 4 14 0 23 -13 30 -11 6 -22 7 -26 4 -3 -3 -6 -1 -6 5 0 22 18 21 40 -3 13 -13 27 -22 33 -18 6 3 7 1 4 -4 -4 -6 0 -16 8 -23 11 -9 23 -7 57 12 24 13 43 28 43 33 0 6 4 16 9 24 6 9 5 12 -2 7 -6 -3 -13 -2 -17 4 -4 6 7 10 27 10 21 0 28 3 20 8 -9 7 -8 13 8 27 11 10 20 25 20 34 0 12 3 12 12 3 15 -15 28 -15 28 -1 0 5 -4 7 -10 4 -5 -3 -10 -1 -10 4 0 6 -6 11 -14 11 -22 0 -28 30 -8 37 9 4 20 11 24 17 4 6 10 7 14 3 4 -4 -1 -14 -12 -23 -10 -8 -14 -13 -7 -10 6 4 14 2 18 -4 10 -16 25 -1 18 18 -6 15 -5 15 12 -2 18 -17 18 -19 2 -31 -9 -6 -14 -15 -10 -18 3 -4 -2 -16 -12 -27 -12 -14 -16 -28 -12 -50 5 -23 2 -32 -13 -40 -32 -17 -46 -11 -20 9 l24 19 -25 -1 c-22 -2 -25 -6 -23 -30 3 -24 1 -27 -15 -22 -11 3 -22 1 -26 -4 -3 -7 0 -8 10 -5 11 5 14 2 9 -10 -3 -9 -11 -16 -16 -16 -5 0 -18 -10 -28 -22 -17 -21 -17 -25 -3 -40 8 -9 22 -14 30 -11 12 5 10 9 -8 19 -13 7 -18 13 -11 14 6 0 11 5 10 12 -2 7 3 12 10 13 7 0 21 9 30 21 21 26 44 36 109 48 21 4 25 13 18 37 -7 22 -8 22 -23 -7 -9 -16 -17 -24 -19 -17 -3 7 5 28 16 47 16 25 18 35 9 38 -13 5 -9 18 25 83 9 18 9 19 -8 5 -17 -14 -17 -14 -5 7 10 15 18 19 26 13 6 -6 14 -7 17 -3 4 3 7 1 7 -5 0 -7 -5 -12 -11 -12 -6 0 -9 -6 -7 -12 3 -7 -4 -21 -14 -32 -20 -21 -26 -48 -6 -28 9 9 14 8 22 -4 17 -23 45 -7 63 37 14 36 33 52 33 29 0 -5 -4 -10 -10 -10 -5 0 -10 -4 -10 -10 0 -16 22 -12 36 8 9 11 13 13 14 4 0 -17 -25 -43 -34 -35 -3 4 -6 1 -6 -5 0 -16 16 -15 34 3 14 14 51 10 41 -5 -2 -4 6 -5 19 -3 19 4 25 0 30 -21 8 -31 -13 -68 -35 -63 -9 2 -16 -2 -16 -9 0 -8 10 -13 25 -11 18 1 29 11 38 34 16 38 18 67 4 58 -18 -11 -10 11 10 30 14 13 20 31 20 61 0 43 16 69 22 37 3 -15 5 -15 22 3 15 14 18 15 14 3 -5 -12 -1 -15 16 -12 18 4 26 -2 36 -26 12 -31 13 -31 27 -11 20 28 37 26 23 -2 -11 -23 -11 -23 7 -3 28 30 45 31 31 0 -6 -13 -15 -22 -19 -19 -5 3 -9 0 -9 -5 0 -17 15 -13 35 9 10 11 25 20 33 20 10 0 6 -8 -12 -27 -15 -14 -25 -32 -22 -39 3 -8 1 -16 -4 -19 -6 -4 -10 0 -11 7 0 7 -4 3 -9 -9 -6 -14 -18 -23 -30 -23 -18 0 -20 4 -14 23 3 12 4 19 0 16 -4 -4 -11 -20 -15 -37 -9 -30 -8 -31 16 -21 13 5 30 9 36 9 19 0 -27 -28 -53 -32 -15 -2 -24 -9 -22 -17 3 -12 1 -12 -13 -1 -12 10 -19 10 -27 2 -9 -9 -7 -12 7 -12 15 0 16 -3 7 -12 -10 -10 -15 -10 -22 2 -8 12 -15 10 -42 -15 -64 -58 -73 -70 -70 -93 2 -13 -4 -35 -13 -48 -9 -14 -15 -28 -12 -30 4 -5 153 18 237 36 25 6 61 12 80 13 19 2 82 12 139 23 101 18 104 20 127 56 28 45 29 49 7 41 -11 -4 -14 -3 -9 5 11 18 24 14 37 -9 6 -12 7 -19 1 -15 -9 5 -22 -13 -28 -41 -4 -21 14 -15 21 7 3 11 14 20 23 20 16 -1 15 -2 0 -11 -28 -16 -21 -25 17 -21 19 2 35 7 35 11 0 4 -26 32 -57 64 -84 83 -126 116 -107 85 4 -7 3 -8 -4 -4 -7 4 -12 13 -12 21 0 12 -13 21 -33 23 -4 1 -15 9 -25 18 -28 29 -172 91 -249 108 -91 20 -139 21 -147 1 -3 -8 -11 -15 -17 -15 -8 0 -8 4 1 15 21 25 -1 17 -26 -10 -19 -21 -20 -26 -8 -33 14 -8 14 -10 0 -21 -8 -7 -12 -19 -9 -27 3 -8 0 -14 -7 -14 -6 0 -9 4 -6 9 4 5 0 11 -6 14 -9 3 -7 10 7 21 18 15 18 15 1 10 -16 -6 -17 -4 -11 17 4 13 15 29 24 36 13 10 8 12 -31 13 -26 0 -49 -4 -53 -10z m-9 -36 c-3 -8 0 -14 7 -14 7 0 3 -7 -7 -15 -11 -8 -16 -15 -12 -15 4 0 -2 -13 -14 -30 -20 -28 -50 -44 -34 -19 3 6 8 29 10 51 1 24 10 45 21 53 21 15 37 9 29 -11z m64 12 c0 -7 -6 -19 -14 -25 -12 -10 -17 -8 -25 8 -9 16 -8 20 7 24 29 8 32 7 32 -7z m-120 -6 c0 -5 -2 -10 -4 -10 -3 0 -8 5 -11 10 -3 6 -1 10 4 10 6 0 11 -4 11 -10z m230 3 c0 -5 -4 -14 -8 -21 -9 -13 -42 -6 -42 9 0 13 18 11 23 -3 3 -8 6 -6 6 5 1 16 21 26 21 10z m140 -18 c0 -8 -2 -15 -4 -15 -2 0 -6 7 -10 15 -3 8 -1 15 4 15 6 0 10 -7 10 -15z m-430 -5 c0 -5 -4 -10 -10 -10 -5 0 -10 5 -10 10 0 6 5 10 10 10 6 0 10 -4 10 -10z m287 -33 c-1 -5 -5 -7 -9 -5 -3 2 -15 -6 -27 -16 -26 -24 -40 -13 -17 13 17 19 59 25 53 8z m273 -28 c0 -8 -42 -20 -49 -14 -2 3 4 14 14 25 14 16 20 17 27 8 4 -7 8 -16 8 -19z m20 21 c0 -5 -4 -10 -10 -10 -5 0 -10 5 -10 10 0 6 5 10 10 10 6 0 10 -4 10 -10z m-708 -22 c-6 -6 -15 -8 -19 -4 -4 4 -1 11 7 16 8 5 17 7 19 4 3 -2 -1 -10 -7 -16z m756 -23 c3 -38 -13 -69 -29 -59 -5 3 -9 -2 -9 -10 0 -9 -7 -16 -16 -16 -8 0 -13 -4 -10 -8 3 -5 -8 -23 -24 -40 -31 -34 -43 -40 -34 -18 9 23 -15 29 -42 11 -15 -10 -23 -22 -20 -31 3 -8 -4 -24 -15 -35 -11 -11 -17 -25 -13 -31 4 -7 3 -8 -4 -4 -7 4 -12 1 -13 -6 0 -7 -4 -4 -9 7 -7 17 -9 17 -9 3 -1 -10 -9 -19 -18 -19 -24 -2 -54 -7 -80 -13 -13 -3 -23 0 -23 5 0 6 -5 7 -11 3 -8 -4 -8 0 0 15 7 11 9 21 6 21 -3 0 2 14 12 30 18 31 38 39 46 18 2 -7 1 -20 -4 -29 -12 -23 28 -33 48 -13 11 11 12 14 1 14 -10 0 -10 2 1 9 13 8 20 25 23 56 1 6 12 19 25 28 20 16 23 16 23 2 0 -8 -6 -15 -14 -15 -7 0 -16 -9 -19 -20 -3 -11 0 -20 5 -20 6 0 5 -6 -2 -15 -7 -9 -10 -18 -7 -21 3 -3 10 4 17 15 6 12 7 21 3 21 -4 0 3 9 16 21 15 14 20 27 15 41 -5 16 -3 20 9 15 15 -5 34 25 29 45 -1 4 7 10 18 13 11 4 20 11 20 16 0 5 6 9 13 10 6 0 28 11 47 23 19 13 37 22 40 21 3 -2 7 -20 8 -40z m-733 -15 c-9 -16 -22 -30 -30 -30 -7 0 -20 -6 -27 -12 -16 -16 -38 -21 -38 -10 0 14 50 53 60 47 5 -3 14 4 20 15 6 11 15 20 21 20 5 0 3 -13 -6 -30z m-76 -3 c-15 -12 -29 -33 -33 -47 -9 -35 -33 -63 -46 -55 -8 5 -6 12 5 25 10 11 12 20 6 24 -5 4 -15 -3 -21 -15 -7 -11 -14 -18 -17 -15 -3 3 2 17 12 32 15 24 19 25 27 10 9 -17 28 -13 28 5 0 6 -4 7 -10 4 -5 -3 -10 1 -10 9 0 9 9 16 20 16 11 0 20 4 20 9 0 8 16 16 40 19 3 1 -7 -9 -21 -21z m851 15 c0 -4 -5 -13 -12 -20 -9 -9 -9 -12 1 -12 10 0 11 -3 2 -13 -6 -8 -8 -17 -4 -21 4 -4 15 3 25 16 12 15 20 19 25 12 5 -6 15 -14 23 -18 8 -3 5 -4 -7 -2 -13 2 -23 1 -23 -3 0 -4 -10 -18 -21 -30 -17 -18 -23 -20 -30 -10 -4 7 -5 17 -3 21 3 4 1 8 -5 8 -6 0 -13 -11 -17 -25 -4 -15 -13 -25 -24 -25 -11 0 -22 -5 -26 -12 -4 -7 -3 -8 4 -4 7 4 12 4 12 -1 0 -16 -16 -33 -35 -36 -11 -1 -26 -6 -32 -10 -32 -20 -8 15 37 56 28 25 50 49 50 54 0 4 9 14 20 21 12 7 18 17 15 21 -7 12 5 41 16 41 5 0 9 -4 9 -8z m24 -17 c-6 -16 -24 -21 -24 -7 0 11 11 22 21 22 5 0 6 -7 3 -15z m-704 -14 c0 -5 -7 -14 -15 -21 -12 -10 -15 -10 -15 2 0 8 3 18 7 21 9 10 23 9 23 -2z m765 -58 c-20 -15 -19 -15 3 -10 13 3 22 3 19 0 -3 -3 -2 -16 3 -29 6 -14 6 -26 0 -29 -5 -3 -7 -13 -4 -23 5 -13 4 -14 -4 -3 -5 7 -8 21 -5 30 3 11 -6 24 -23 36 l-27 18 24 18 c13 10 26 15 29 12 3 -2 -4 -12 -15 -20z m-38 3 c-3 -8 1 -20 8 -26 8 -7 12 -17 8 -23 -4 -6 0 -8 10 -4 25 10 10 -18 -19 -33 -13 -7 -24 -17 -24 -22 0 -4 -5 -8 -11 -8 -5 0 -8 4 -5 9 3 5 -5 16 -19 25 -15 10 -26 12 -30 6 -4 -6 4 -14 16 -18 21 -8 21 -9 3 -17 -22 -9 -33 -11 -94 -20 -25 -4 -52 -9 -60 -11 -8 -3 -17 -5 -20 -5 -3 -1 -11 -5 -17 -11 -9 -7 -13 -7 -13 0 0 6 8 15 17 21 10 5 14 13 10 18 -5 4 -17 -3 -28 -16 -13 -16 -19 -18 -19 -8 0 8 7 20 15 27 8 6 13 22 12 33 -1 12 3 22 8 22 6 0 15 4 21 7 8 5 12 -1 12 -18 0 -18 -5 -24 -15 -20 -9 4 -13 1 -10 -6 2 -7 12 -12 22 -10 10 2 14 -1 10 -7 -3 -6 -1 -11 4 -11 6 0 11 4 11 9 0 5 13 12 30 16 16 4 32 11 35 15 3 5 15 0 26 -11 11 -11 24 -18 27 -14 4 4 -1 12 -11 19 -21 16 -22 26 -2 26 8 0 12 6 9 14 -3 8 0 17 7 22 9 5 10 2 6 -9 -3 -10 -2 -17 3 -17 6 0 10 4 10 10 0 11 42 57 54 59 4 1 6 -5 3 -13z m-897 -2 c0 -8 -19 -13 -24 -6 -3 5 1 9 9 9 8 0 15 -2 15 -3z m20 -25 c-6 -11 -17 -18 -23 -16 -7 2 -20 -2 -29 -11 -10 -8 -18 -10 -18 -5 0 15 28 36 39 29 5 -3 11 1 15 9 3 8 10 15 16 15 7 0 7 -6 0 -21z m510 -20 c0 -5 6 -7 13 -3 9 5 9 4 0 -6 -8 -9 -9 -18 -3 -25 6 -7 1 -11 -14 -13 -27 -2 -41 29 -23 47 14 14 27 14 27 0z m-697 -35 c-6 -15 -42 -34 -66 -34 -12 0 52 49 65 50 4 0 5 -7 1 -16z m1097 -24 c0 -5 -5 -10 -11 -10 -5 0 -7 5 -4 10 3 6 8 10 11 10 2 0 4 -4 4 -10z m-409 -13 c-1 -12 -15 -9 -19 4 -3 6 1 10 8 8 6 -3 11 -8 11 -12z m-764 -49 c-2 -12 -9 -24 -15 -26 -15 -5 -15 3 0 28 16 25 19 25 15 -2z m143 -33 c7 -9 10 -18 6 -22 -3 -3 -6 -1 -6 5 0 7 -5 11 -11 10 -6 -2 -14 3 -16 10 -6 17 12 15 27 -3z m-130 -31 c0 -14 -53 -73 -61 -68 -5 3 -9 0 -9 -5 0 -6 -7 -11 -16 -11 -14 0 -14 3 -4 15 7 9 19 14 27 11 8 -3 11 -1 8 4 -3 5 4 21 17 34 22 24 38 32 38 20z m15 -42 c13 -9 18 -32 7 -32 -10 0 -32 22 -32 32 0 10 12 10 25 0z m115 0 c0 -4 -15 -13 -32 -20 l-33 -12 25 20 c27 21 40 25 40 12z m-140 -22 c0 -5 -4 -10 -10 -10 -5 0 -10 5 -10 10 0 6 5 10 10 10 6 0 10 -4 10 -10z"/> <path d="M1347 2273 c-10 -9 -9 -33 1 -33 4 0 8 9 8 20 0 23 0 22 -9 13z"/> <path d="M1321 2204 c0 -11 3 -14 6 -6 3 7 2 16 -1 19 -3 4 -6 -2 -5 -13z"/> <path d="M1837 2168 c-19 -7 -26 -15 -23 -24 3 -9 0 -14 -7 -12 -22 4 -55 -12 -61 -30 -3 -9 -9 -24 -12 -32 -4 -8 2 -4 14 10 11 14 24 22 28 18 4 -4 1 -15 -7 -25 -11 -14 -9 -13 12 2 17 13 23 23 16 27 -6 4 -9 8 -7 10 29 19 52 28 60 23 8 -5 26 33 18 39 -1 2 -16 -1 -31 -6z"/> <path d="M1929 2033 c-11 -15 -11 -16 1 -5 23 20 33 14 17 -12 -9 -13 -13 -26 -10 -29 7 -7 43 15 43 26 0 4 -4 5 -10 2 -5 -3 -10 -1 -10 4 0 6 6 11 13 11 8 0 7 4 -3 10 -21 13 -26 13 -41 -7z"/> <path d="M1006 2291 c-3 -5 1 -12 10 -15 24 -9 31 -7 38 9 4 11 -1 15 -19 15 -13 0 -26 -4 -29 -9z"/> <path d="M2456 2275 c-11 -8 -15 -15 -9 -15 6 0 16 7 23 15 16 19 11 19 -14 0z"/> <path d="M1577 2263 c-3 -5 -8 -24 -11 -43 -14 -82 -55 -204 -63 -184 -2 6 -18 10 -35 8 -34 -4 -51 -14 -24 -14 9 0 15 -4 11 -10 -3 -5 -13 -7 -23 -4 -15 5 -14 4 1 -6 14 -9 26 -9 50 1 18 8 36 14 40 14 5 0 15 9 23 19 8 11 30 27 50 37 20 9 32 19 26 23 -6 3 -13 2 -17 -4 -3 -5 -15 -10 -25 -10 -10 0 -23 -8 -29 -17 -5 -10 -12 -15 -16 -12 -3 4 0 13 7 20 8 8 24 31 37 52 12 20 27 37 32 37 5 0 9 5 9 10 0 16 -24 7 -37 -15 -11 -17 -12 -16 -6 15 3 19 10 39 14 45 12 12 11 45 0 45 -6 0 -12 -3 -14 -7z"/> <path d="M647 2225 c-20 -28 -14 -53 9 -34 7 6 12 15 9 18 -2 4 2 8 10 8 19 0 19 -6 -1 -28 -14 -15 -13 -19 12 -38 21 -17 30 -19 41 -9 11 9 11 13 1 19 -9 6 -9 9 -1 9 17 0 27 -20 15 -32 -8 -8 -6 -18 4 -34 9 -13 13 -32 9 -42 -7 -23 -45 -36 -59 -22 -6 6 -19 2 -34 -13 l-25 -22 17 27 17 26 -47 33 -47 32 -18 -24 c-10 -13 -19 -27 -19 -30 0 -3 28 -26 63 -51 84 -62 115 -65 165 -17 30 30 60 95 48 106 -3 4 -15 -4 -26 -17 -11 -13 -20 -18 -20 -12 0 6 10 20 22 31 18 17 19 23 7 37 -13 16 -125 104 -131 104 -2 0 -11 -12 -21 -25z m63 -39 c0 -8 -7 -16 -15 -20 -13 -4 -14 -2 -5 14 13 23 20 26 20 6z m57 -58 c-3 -8 -6 -5 -6 6 -1 11 2 17 5 13 3 -3 4 -12 1 -19z m-137 -79 c0 8 3 12 6 8 3 -3 3 -10 -1 -16 -4 -7 -14 -5 -30 6 -12 10 -21 22 -18 27 3 5 14 -2 24 -15 12 -15 19 -19 19 -10z m91 -48 c-12 -8 -51 -4 -51 5 0 2 15 4 33 4 22 0 28 -3 18 -9z"/> <path d="M986 2170 c-26 -22 -46 -40 -43 -40 4 0 32 18 63 40 32 22 51 40 43 40 -8 0 -36 -18 -63 -40z"/> <path d="M1598 2133 c-17 -18 -26 -33 -20 -33 7 0 24 11 37 24 26 26 40 21 28 -11 -3 -10 -3 -15 2 -11 4 4 9 20 11 36 4 39 -17 37 -58 -5z"/> <path d="M1456 2135 c-9 -14 -15 -25 -13 -25 2 0 13 11 25 25 12 14 18 25 13 25 -5 0 -16 -11 -25 -25z"/> <path d="M1390 2115 c-7 -8 -21 -15 -31 -15 -15 0 -19 -7 -19 -37 0 -27 3 -34 9 -23 6 8 7 18 4 24 -4 5 -1 6 6 2 7 -5 10 -14 7 -21 -2 -7 -2 -16 1 -19 9 -8 43 24 43 40 0 7 8 18 18 24 16 11 16 11 0 6 -16 -5 -23 4 -19 27 2 11 -5 8 -19 -8z m0 -40 c-9 -11 -9 -15 -1 -15 7 0 9 -5 5 -12 -5 -8 -11 -4 -18 11 -7 17 -6 25 4 31 20 12 25 4 10 -15z"/> <path d="M894 2091 c-17 -15 -34 -35 -37 -45 -4 -10 -12 -14 -18 -10 -8 4 -9 3 -5 -4 10 -16 8 -18 55 38 48 57 49 61 5 21z"/> <path d="M1310 2108 c0 -9 -7 -21 -15 -28 -17 -14 -21 -35 -5 -25 6 3 10 0 10 -8 0 -7 6 -14 14 -14 10 0 14 11 12 39 -3 37 -16 67 -16 36z m10 -44 c0 -8 -4 -12 -10 -9 -5 3 -10 10 -10 16 0 5 5 9 10 9 6 0 10 -7 10 -16z"/> <path d="M1235 2030 c-3 -5 -14 -10 -23 -10 -10 0 -33 -13 -52 -29 l-35 -29 27 -7 c15 -4 32 -3 39 1 9 5 10 2 6 -9 -3 -10 -2 -17 2 -17 5 0 11 6 14 13 3 9 7 9 20 -1 9 -8 14 -19 11 -26 -7 -19 19 -36 44 -29 14 3 22 14 23 27 0 11 2 31 3 44 2 12 2 22 1 22 -1 0 -12 -14 -25 -32 -17 -24 -19 -30 -7 -25 23 9 21 -6 -3 -20 -16 -11 -18 -10 -13 4 5 12 3 14 -7 8 -9 -6 -11 -4 -5 5 4 7 2 15 -4 20 -9 5 -7 11 5 21 16 12 17 12 11 -3 -3 -10 -3 -18 2 -18 15 0 21 13 10 26 -8 9 -18 10 -35 3 -34 -12 -37 -12 -30 7 4 10 2 13 -7 7 -19 -12 -49 -14 -42 -3 3 5 13 10 21 10 8 0 14 5 14 11 0 6 8 8 19 4 13 -4 20 0 24 15 6 22 2 26 -8 10z"/> <path d="M2665 2034 c-8 -3 -192 -36 -605 -110 -41 -7 -124 -22 -185 -33 -172 -32 -389 -71 -396 -71 -7 0 -29 -47 -29 -62 0 -7 7 -3 15 8 8 11 15 14 15 7 0 -7 4 -13 9 -13 5 0 7 9 4 20 -5 21 8 25 65 20 12 -1 22 3 22 8 0 5 12 14 28 21 l27 13 -30 -33 c-53 -58 -139 -139 -147 -139 -4 0 -8 -4 -8 -10 0 -5 14 -10 31 -10 41 0 66 -15 84 -50 25 -49 19 -91 -21 -144 -36 -45 -41 -72 -8 -46 13 12 17 11 25 -1 12 -19 11 -29 -1 -29 -5 0 -10 5 -10 11 0 5 -5 7 -10 4 -6 -4 -8 -10 -5 -15 3 -5 1 -11 -5 -15 -15 -9 -12 -34 6 -53 15 -14 18 -14 33 5 12 16 24 20 49 17 19 -2 32 1 32 7 0 8 4 8 14 0 10 -9 16 -8 26 4 9 11 16 12 26 4 9 -7 20 -6 38 6 24 16 26 16 26 1 0 -10 -3 -15 -8 -12 -4 2 -15 -2 -25 -9 -16 -11 -16 -13 -2 -19 11 -4 14 -2 9 7 -4 6 -4 9 1 5 4 -4 14 -3 22 3 9 9 13 8 13 0 0 -6 -4 -11 -10 -11 -5 0 -17 -12 -25 -27 -9 -16 -14 -20 -11 -11 3 10 0 20 -6 24 -7 4 -8 3 -4 -4 4 -7 2 -12 -3 -12 -10 0 -15 12 -13 30 0 3 -9 7 -20 7 -18 2 -17 -2 12 -32 l34 -35 62 60 c34 33 71 60 83 60 11 0 23 5 27 11 5 8 10 6 16 -5 9 -16 11 -16 24 1 14 17 15 16 8 -7 -6 -23 -6 -23 10 -7 10 9 23 17 29 18 7 1 21 2 32 3 11 0 19 6 18 11 -1 6 8 12 19 12 28 2 33 10 19 27 -8 10 -9 16 -1 21 5 3 10 -1 10 -9 0 -8 9 -17 19 -21 25 -8 151 -2 151 7 0 11 44 5 53 -7 5 -6 6 -2 3 9 -5 14 -2 17 9 12 9 -3 14 -2 11 3 -10 16 19 19 39 5 15 -11 21 -11 33 -1 17 13 72 17 72 4 0 -5 5 -5 10 -2 6 3 10 15 10 25 0 10 7 26 16 34 17 18 54 22 54 6 0 -5 -8 -10 -19 -10 -10 0 -25 -7 -32 -16 -12 -15 -11 -16 11 -9 34 10 52 26 46 41 -7 18 20 39 28 22 3 -7 3 -2 0 10 -5 21 -3 23 23 20 15 -1 33 -10 40 -18 10 -12 11 -11 6 10 -6 23 -5 24 12 10 10 -8 16 -10 12 -3 -4 6 -1 14 5 17 7 3 0 4 -15 2 -22 -3 -27 0 -23 13 5 13 4 13 -8 -1 -7 -10 -21 -18 -30 -18 -10 0 -26 -5 -37 -10 -13 -8 -19 -7 -19 0 0 6 7 13 15 16 11 4 12 11 5 24 -7 13 -5 21 5 30 22 18 12 23 -19 9 -23 -11 -24 -13 -9 -24 15 -11 15 -15 4 -29 -7 -9 -11 -23 -7 -31 8 -22 4 -29 -18 -30 -23 -2 -56 -40 -56 -64 0 -9 -6 -4 -15 13 -18 35 -19 39 -2 30 8 -5 7 -2 -2 7 -11 12 -15 11 -25 -5 -25 -42 -53 -69 -64 -62 -17 10 -15 26 3 20 8 -4 16 -1 16 5 1 6 2 16 3 21 0 6 7 14 14 19 7 4 10 15 6 24 -4 12 -1 17 11 17 10 0 14 -5 9 -12 -4 -7 -3 -9 1 -5 20 18 13 35 -13 31 -22 -4 -23 -3 -13 10 7 9 11 21 8 28 -2 7 0 21 5 30 7 14 5 16 -8 11 -12 -4 -15 -3 -10 5 4 7 2 12 -6 12 -7 0 0 12 15 25 l28 25 -36 -5 c-31 -4 -35 -2 -25 10 7 8 17 12 23 8 6 -3 7 -1 3 5 -4 7 -1 12 6 12 10 0 9 3 -1 9 -11 7 -21 3 -35 -12 -18 -20 -19 -20 -11 -2 4 11 10 30 12 43 3 12 10 22 15 22 6 0 8 -7 4 -15 -3 -8 -1 -15 4 -15 14 0 9 61 -6 67 -7 2 -10 12 -7 20 4 11 2 14 -5 9 -17 -10 -15 -36 3 -36 8 0 15 -4 15 -10 0 -5 -4 -10 -9 -10 -5 0 -17 -3 -27 -7 -14 -5 -16 -2 -12 15 6 21 -2 29 -15 16 -8 -9 14 -54 24 -48 15 9 10 -8 -7 -27 -15 -17 -14 -22 10 -70 50 -100 27 -193 -57 -229 -45 -19 -184 -47 -193 -38 -3 3 -12 43 -19 89 -8 46 -16 95 -19 109 -18 102 -18 120 2 120 17 0 52 28 52 42 0 2 -15 5 -32 5 -18 0 -27 -2 -20 -4 25 -9 11 -22 -17 -17 -34 7 -48 -10 -29 -34 12 -16 11 -16 -7 -2 -11 8 -22 16 -24 17 -2 2 4 12 14 23 10 11 15 26 11 36 -9 22 11 44 40 44 13 0 24 4 24 9 0 5 20 15 45 23 27 9 45 11 45 5 0 -6 9 -2 20 8 36 33 32 8 -4 -29 -43 -42 -49 -68 -7 -28 54 51 88 77 107 80 63 11 80 16 87 26 5 6 5 1 2 -11 -7 -27 10 -30 39 -8 17 13 21 13 33 -5 8 -11 19 -20 24 -20 6 0 3 7 -6 16 -12 13 -13 19 -4 30 7 8 14 12 18 9 3 -3 -1 -10 -9 -15 -8 -6 -10 -10 -4 -10 6 0 17 7 24 15 14 17 81 20 97 4 8 -8 13 -8 17 0 4 6 0 11 -9 11 -9 0 -13 5 -9 11 4 8 9 8 17 0 8 -8 18 -4 36 12 20 17 22 18 9 2 -28 -34 -40 -75 -23 -81 12 -5 10 -11 -7 -35 -23 -31 -43 -29 -33 2 7 20 6 20 -15 2 -17 -15 -18 -19 -5 -21 22 -5 18 -24 -10 -51 -14 -13 -23 -26 -20 -30 4 -3 25 14 47 37 22 24 42 41 45 38 9 -9 -62 -86 -79 -86 -10 0 -18 -7 -18 -16 0 -14 3 -14 15 -4 12 10 15 10 15 -3 0 -9 5 -19 12 -23 8 -5 9 -2 5 9 -4 11 3 27 18 43 14 15 25 33 25 40 0 8 4 14 8 14 13 0 8 -36 -8 -57 -13 -16 -13 -16 8 1 19 16 22 17 22 3 0 -9 -4 -19 -10 -22 -15 -9 -12 -25 4 -19 7 3 18 16 25 30 6 14 7 23 2 20 -5 -3 -14 1 -21 8 -9 11 -9 20 0 37 7 12 8 19 2 15 -12 -7 -25 22 -15 37 4 7 10 3 15 -9 7 -17 8 -16 4 4 -5 27 1 28 27 5 19 -17 20 -17 14 0 -4 9 -2 17 3 17 6 0 10 8 10 18 -1 16 -1 16 -11 0 -5 -10 -15 -18 -21 -18 -7 0 -6 5 2 15 8 9 9 15 2 15 -6 0 -14 -4 -17 -10 -3 -5 -11 -10 -17 -10 -7 0 -2 9 11 21 15 14 31 19 47 16 17 -3 22 -1 16 5 -6 6 -8 18 -5 27 4 13 2 12 -11 -3 -8 -10 -19 -15 -25 -12 -5 3 -19 -6 -30 -20 -12 -15 -23 -25 -26 -23 -2 3 7 17 20 31 13 14 21 29 17 34 -4 4 -1 4 6 0 7 -4 18 -3 25 2 30 25 117 -31 117 -74 0 -9 5 -12 12 -8 7 5 8 3 3 -6 -4 -7 -8 -28 -7 -46 1 -27 -3 -33 -21 -36 -13 -2 -23 -11 -24 -23 -1 -16 -1 -16 3 -2 6 20 30 23 37 5 3 -7 6 -4 6 7 1 14 4 16 12 8 8 -8 8 -17 -1 -33 -6 -12 -9 -24 -6 -28 3 -3 6 0 6 6 0 7 4 12 9 12 5 0 9 -11 9 -25 0 -14 -4 -25 -9 -25 -5 0 -9 5 -9 12 0 6 -3 8 -7 5 -3 -4 1 -15 10 -24 8 -10 20 -30 26 -44 9 -24 8 -26 -12 -21 -19 5 -19 4 -6 -10 7 -9 17 -14 21 -12 3 2 4 -4 1 -15 -3 -10 0 -22 6 -25 6 -4 11 -25 11 -47 0 -22 -4 -38 -9 -35 -4 3 -6 -5 -4 -17 4 -22 -38 -77 -58 -77 -16 0 -9 18 8 22 14 3 14 5 -2 18 -11 8 -16 10 -12 4 4 -7 0 -17 -8 -24 -8 -7 -15 -9 -15 -5 0 4 -6 2 -13 -4 -8 -6 -17 -8 -20 -4 -4 3 -7 -2 -7 -12 0 -17 -1 -17 -19 -1 -18 16 -20 16 -29 0 -7 -12 -11 -13 -17 -4 -4 7 -2 16 6 22 12 8 11 9 -1 5 -8 -2 -14 -11 -14 -20 1 -8 -7 -17 -17 -20 -13 -3 -16 0 -12 12 3 9 -2 5 -12 -8 -14 -18 -19 -20 -26 -10 -5 9 -9 10 -9 3 0 -7 -13 -14 -30 -16 -16 -3 -30 -1 -30 4 0 5 -10 2 -22 -6 -13 -8 -47 -18 -75 -22 -48 -6 -53 -5 -53 12 0 11 -5 26 -11 34 -9 13 -10 13 -6 -2 3 -9 -3 -28 -14 -42 -17 -21 -26 -25 -51 -21 -17 3 -39 10 -49 16 -13 6 -19 6 -19 -1 0 -5 6 -10 14 -10 26 0 26 -16 0 -18 -13 -1 -24 3 -24 10 0 6 -8 4 -18 -5 -20 -19 -32 -22 -32 -9 0 5 11 15 25 22 13 7 22 17 19 21 -3 5 -17 -2 -32 -16 -15 -14 -30 -25 -35 -25 -4 0 -6 -4 -3 -9 3 -4 -5 -7 -17 -7 -12 1 -27 -2 -34 -7 -7 -5 -19 -5 -29 1 -15 8 -14 12 11 28 21 13 30 15 33 6 2 -6 8 -12 13 -12 4 0 6 6 3 14 -3 8 5 21 18 30 12 9 18 16 12 16 -5 0 -20 -7 -32 -16 -13 -9 -26 -13 -30 -9 -6 6 2 13 38 35 8 4 12 12 8 16 -4 3 -23 -9 -42 -28 -18 -18 -39 -32 -46 -30 -8 3 -1 14 16 29 20 17 22 21 8 14 -12 -6 -24 -7 -28 -4 -3 3 -6 1 -6 -5 0 -7 -9 -12 -20 -12 -11 0 -20 -4 -20 -10 0 -5 8 -6 18 -3 15 6 15 5 3 -10 -8 -10 -11 -20 -7 -24 3 -3 6 -1 6 5 0 7 9 12 19 12 17 0 18 -3 8 -31 -11 -27 -16 -30 -44 -27 -17 2 -29 0 -27 -4 3 -4 -15 -9 -40 -9 -55 -2 -58 -2 -72 -12 -13 -8 -38 16 -27 26 3 4 4 7 0 7 -3 0 -17 -12 -31 -27 -14 -15 -28 -25 -31 -22 -3 3 6 18 20 33 14 15 25 33 25 41 0 7 12 17 27 22 18 6 23 12 15 17 -8 4 -26 -7 -48 -29 -20 -21 -51 -50 -70 -67 l-34 -30 -24 29 c-13 15 -28 24 -32 20 -8 -7 5 -19 31 -31 14 -6 -16 -26 -39 -26 -15 0 -16 3 -6 15 21 25 -6 17 -41 -12 -30 -25 -31 -26 -20 -5 7 13 19 26 27 29 7 3 11 9 8 14 -3 5 3 9 13 9 15 0 16 2 3 10 -9 6 -18 6 -24 0 -16 -16 -29 -11 -16 5 7 9 10 18 6 22 -3 3 -6 1 -6 -6 0 -7 -4 -10 -9 -7 -4 3 -8 -2 -8 -12 0 -9 -3 -32 -8 -49 -7 -30 -11 -33 -46 -33 -21 0 -41 -4 -44 -10 -3 -5 -21 -10 -38 -10 -18 0 -47 -4 -66 -10 -42 -12 -54 -5 -39 23 10 20 10 21 -6 8 -9 -8 -15 -20 -12 -27 7 -18 -21 -25 -34 -9 -7 8 -17 12 -22 9 -6 -4 -6 -9 2 -14 7 -5 2 -7 -14 -7 -29 0 -32 6 -13 27 6 8 3 7 -9 -3 -26 -21 -38 -22 -30 -1 3 8 2 12 -4 9 -6 -3 -10 -14 -10 -23 0 -10 -9 -23 -20 -30 -23 -14 -27 0 -5 18 13 11 13 14 -2 26 -38 28 -78 8 -63 -31 7 -19 6 -23 -8 -21 -9 2 -18 9 -20 16 -3 8 0 10 8 5 8 -5 11 -4 7 3 -11 17 -30 9 -65 -27 -17 -19 -32 -29 -32 -22 0 8 -5 9 -18 2 -26 -14 -64 -10 -58 6 3 7 1 13 -4 13 -6 0 -10 -7 -10 -16 0 -8 -3 -13 -7 -11 -5 2 -19 -7 -32 -20 -29 -27 -20 -28 64 -8 33 8 72 14 88 15 17 0 27 5 27 14 0 17 18 31 28 21 3 -3 0 -10 -8 -15 -22 -14 7 -13 93 5 40 8 191 35 337 60 146 25 267 50 268 56 2 5 8 9 13 9 6 0 8 -4 5 -8 -6 -10 21 -6 439 68 165 29 301 56 303 61 2 4 9 6 16 3 12 -5 175 22 274 44 52 12 87 42 102 87 8 25 6 58 -10 146 -11 63 -25 144 -31 181 -7 37 -15 65 -19 63 -4 -2 -5 7 -2 20 6 34 -15 80 -50 110 -24 21 -40 25 -86 24 -31 0 -61 -2 -67 -5z m-558 -131 c-9 -9 -20 -13 -24 -9 -4 4 -1 11 7 16 25 16 35 11 17 -7z m-144 -33 c-9 -16 -21 -30 -25 -30 -4 0 -8 -5 -8 -11 0 -6 -8 -23 -18 -37 -10 -15 -17 -39 -16 -54 2 -16 -2 -28 -8 -28 -6 0 -4 -8 5 -18 10 -10 17 -23 17 -28 0 -5 -7 0 -15 10 -20 27 -19 11 1 -20 9 -13 14 -27 11 -30 -3 -3 -1 -20 5 -37 14 -47 18 -78 7 -71 -5 3 -9 10 -9 15 0 6 -7 17 -15 26 -9 8 -19 28 -22 43 -3 16 -10 27 -17 24 -16 -6 -15 38 2 58 12 15 33 97 33 130 0 10 4 17 8 15 4 -1 22 15 40 36 40 45 48 47 24 7z m83 2 c-9 -11 -14 -26 -10 -35 3 -10 -2 -20 -15 -27 -16 -8 -21 -8 -21 1 0 7 -11 2 -24 -10 -14 -13 -30 -20 -36 -16 -8 5 -5 12 9 21 13 9 18 21 14 31 -4 11 -3 14 5 9 8 -4 10 -2 6 8 -6 17 30 40 51 32 8 -3 17 -1 21 5 3 6 9 8 12 5 3 -3 -2 -14 -12 -24z m-134 -4 c-6 -6 -15 -8 -19 -4 -4 4 -1 11 7 16 19 12 27 3 12 -12z m-37 -36 c5 -39 -12 -61 -52 -66 -17 -2 -44 -13 -58 -25 -18 -13 -42 -21 -66 -21 -24 0 -39 -5 -39 -12 0 -20 -19 5 -24 32 -2 14 -5 27 -5 29 -1 4 -61 -70 -61 -75 0 -12 30 11 35 27 8 24 24 16 22 -11 -1 -10 -4 -17 -7 -15 -3 2 -12 0 -20 -6 -12 -7 -11 -9 6 -9 18 0 20 -5 16 -26 -4 -21 -2 -25 9 -19 8 5 11 4 6 0 -12 -14 -51 -13 -72 2 -19 13 -19 14 9 11 19 -2 30 2 33 12 4 12 3 13 -5 1 -6 -8 -15 -10 -23 -5 -7 4 -24 9 -38 11 -47 5 -51 6 -51 16 0 5 7 6 16 3 8 -3 13 -2 10 2 -8 13 70 85 83 78 6 -4 11 -3 11 3 0 5 -6 12 -12 15 -7 3 -4 4 7 3 11 -1 19 3 18 10 -2 7 6 17 17 23 11 6 20 8 20 4 0 -4 9 1 20 11 11 10 20 13 20 8 0 -6 -7 -16 -15 -23 -27 -23 -7 -22 23 0 33 24 57 19 49 -11 -6 -21 9 -27 16 -6 3 9 11 9 33 1 16 -6 35 -9 42 -6 15 5 16 38 1 48 -8 4 -7 9 2 15 17 10 19 8 24 -29z m-72 7 c-19 -20 -43 -19 -43 1 0 7 18 13 55 19 5 0 0 -9 -12 -20z m47 -14 c0 -8 -7 -15 -15 -15 -16 0 -20 12 -8 23 11 12 23 8 23 -8z m153 -45 c-4 -4 -19 -11 -33 -15 l-25 -6 25 20 c22 18 53 19 33 1z m87 6 c0 -2 -7 -6 -15 -10 -8 -3 -15 -1 -15 4 0 6 7 10 15 10 8 0 15 -2 15 -4z m-150 -16 c0 -5 -7 -10 -16 -10 -8 0 -12 5 -9 10 3 6 10 10 16 10 5 0 9 -4 9 -10z m-132 -30 c-7 -11 -19 -20 -27 -20 -11 0 -10 5 4 20 10 11 22 20 27 20 4 0 3 -9 -4 -20z m52 16 c0 -2 2 -11 5 -18 7 -17 -32 -65 -43 -54 -4 4 3 16 16 26 30 24 28 35 -2 14 -25 -15 -25 -15 -13 10 10 21 37 37 37 22z m160 -9 c0 -2 11 -64 25 -138 33 -175 32 -179 -4 -179 -16 0 -42 -5 -56 -10 -23 -9 -26 -8 -22 4 4 9 -3 62 -14 118 -12 57 -23 124 -26 150 -4 45 -3 47 24 51 40 6 73 8 73 4z m-167 -169 c98 -171 95 -164 56 -172 -57 -11 -81 -7 -86 15 -5 16 -11 19 -36 13 -35 -7 -59 -12 -69 -13 -4 -1 -8 -11 -10 -23 -2 -19 -12 -25 -50 -32 -27 -5 -50 -7 -54 -4 -3 3 6 66 20 139 15 73 26 143 26 156 0 12 4 25 10 28 9 5 79 21 107 24 6 1 45 -59 86 -131z m217 72 c0 -5 -5 -10 -11 -10 -5 0 -7 5 -4 10 3 6 8 10 11 10 2 0 4 -4 4 -10z m-457 -81 c-3 -10 -8 -19 -10 -19 -3 0 -3 9 0 20 3 11 1 20 -5 20 -5 0 -6 5 -2 11 10 16 23 -9 17 -32z m476 -30 c-16 -10 -23 -4 -14 10 3 6 11 8 17 5 6 -4 5 -9 -3 -15z m391 -45 c0 -8 -7 -14 -15 -14 -15 0 -21 21 -9 33 10 9 24 -2 24 -19z m-873 -6 c-3 -8 -6 -5 -6 6 -1 11 2 17 5 13 3 -3 4 -12 1 -19z m-20 -40 c-3 -8 -6 -5 -6 6 -1 11 2 17 5 13 3 -3 4 -12 1 -19z m3 -41 c0 -6 -9 -2 -20 8 -11 10 -20 23 -20 28 0 6 9 2 20 -8 11 -10 20 -23 20 -28z m198 -1 c-19 -14 -14 -28 7 -20 17 7 27 -10 19 -30 -8 -22 -21 -20 -27 3 -5 20 -48 27 -44 8 1 -5 -3 -11 -10 -14 -7 -3 -9 3 -6 16 3 12 10 21 15 21 5 0 16 7 24 15 9 8 21 15 27 15 7 0 4 -7 -5 -14z m-198 -24 c0 -13 -39 -52 -52 -52 -7 0 1 14 17 30 31 32 35 35 35 22z m280 -123 c0 -6 -4 -7 -10 -4 -5 3 -10 11 -10 16 0 6 5 7 10 4 6 -3 10 -11 10 -16z m-710 -89 c0 -5 -7 -10 -15 -10 -8 0 -15 5 -15 10 0 6 7 10 15 10 8 0 15 -4 15 -10z"/> <path d="M2010 1870 c0 -5 5 -10 10 -10 6 0 10 5 10 10 0 6 -4 10 -10 10 -5 0 -10 -4 -10 -10z"/> <path d="M1990 1850 c0 -5 5 -10 11 -10 5 0 7 5 4 10 -3 6 -8 10 -11 10 -2 0 -4 -4 -4 -10z"/> <path d="M1720 1808 c-12 -22 -12 -22 6 -6 10 10 15 20 12 24 -4 3 -12 -5 -18 -18z"/> <path d="M1686 1773 c-6 -14 -5 -15 5 -6 7 7 10 15 7 18 -3 3 -9 -2 -12 -12z"/> <path d="M1730 1589 c0 -15 -3 -41 -6 -58 -6 -28 -4 -31 19 -31 14 0 28 3 30 8 2 4 -6 30 -19 57 -20 41 -24 45 -24 24z"/> <path d="M1257 2016 c-4 -10 -1 -13 9 -9 7 3 14 9 14 14 0 14 -17 10 -23 -5z"/> <path d="M787 1959 c-50 -79 -107 -202 -107 -232 0 -20 19 7 25 36 9 38 62 146 100 201 14 21 24 41 21 43 -3 3 -20 -19 -39 -48z"/> <path d="M983 1987 c0 -15 3 -27 8 -27 16 0 18 17 5 35 -13 17 -13 17 -13 -8z"/> <path d="M1073 1994 c-3 -9 -8 -12 -12 -5 -4 6 -12 7 -21 1 -11 -7 -12 -12 -3 -21 6 -6 16 -8 22 -5 13 8 34 46 26 46 -3 0 -8 -7 -12 -16z"/> <path d="M1450 1990 c-14 -4 -22 -8 -18 -9 4 -1 -3 -11 -15 -24 -12 -13 -25 -22 -28 -20 -4 1 -9 -6 -12 -17 -8 -29 2 -25 62 30 55 50 56 55 11 40z"/> <path d="M1335 1959 c-11 -16 -1 -19 13 -3 7 8 8 14 3 14 -5 0 -13 -5 -16 -11z"/> <path d="M1405 1897 l-60 -60 34 7 c18 3 40 6 48 6 16 0 46 64 41 89 -2 14 -17 3 -63 -42z m26 -20 c-8 -8 -11 -7 -11 4 0 9 3 19 7 23 4 4 9 2 11 -4 3 -7 -1 -17 -7 -23z"/> <path d="M2440 1935 c-9 -11 -10 -19 -3 -26 11 -11 43 -2 43 13 0 6 -7 5 -15 -2 -9 -7 -18 -10 -22 -6 -4 3 2 13 13 21 10 8 14 15 8 15 -6 0 -17 -7 -24 -15z"/> <path d="M1042 1928 c-7 -7 -12 -19 -12 -27 0 -8 -8 -23 -17 -34 -14 -16 -15 -19 -3 -15 8 2 20 20 26 39 l12 34 34 -37 c19 -21 39 -38 44 -38 5 0 1 5 -9 11 -9 6 -16 13 -14 17 1 4 -9 19 -24 34 -19 21 -29 24 -37 16z"/> <path d="M1140 1930 c0 -5 5 -10 10 -10 6 0 10 5 10 10 0 6 -4 10 -10 10 -5 0 -10 -4 -10 -10z"/> <path d="M2335 1930 c3 -5 8 -10 11 -10 2 0 4 5 4 10 0 6 -5 10 -11 10 -5 0 -7 -4 -4 -10z"/> <path d="M862 1915 c-7 -8 -9 -15 -4 -15 5 0 15 7 22 15 16 19 -1 19 -18 0z"/> <path d="M919 1913 c-13 -16 -12 -17 4 -4 9 7 17 15 17 17 0 8 -8 3 -21 -13z"/> <path d="M1188 1913 c7 -3 16 -2 19 1 4 3 -2 6 -13 5 -11 0 -14 -3 -6 -6z"/> <path d="M2372 1900 c-7 -11 -8 -20 -3 -20 9 0 24 30 18 36 -1 2 -8 -6 -15 -16z"/> <path d="M1120 1901 c0 -17 15 -19 35 -5 18 13 18 14 -8 14 -15 0 -27 -4 -27 -9z"/> <path d="M2170 1895 c-7 -8 -8 -15 -2 -15 5 0 15 7 22 15 7 8 8 15 2 15 -5 0 -15 -7 -22 -15z"/> <path d="M2259 1893 c-2 -4 -21 -23 -42 -40 -21 -18 -32 -33 -25 -34 7 0 -3 -8 -22 -16 -47 -21 -30 -25 63 -15 42 4 77 5 77 1 0 -15 33 -18 47 -3 14 14 14 17 -5 30 -13 9 -19 22 -16 36 4 21 4 21 -5 3 -5 -12 -5 -27 1 -38 9 -17 7 -17 -14 -6 -13 7 -24 11 -26 10 -2 -2 -7 1 -10 5 -4 4 -2 4 5 0 14 -8 30 13 16 23 -5 3 -16 16 -25 29 -9 13 -17 20 -19 15z m25 -38 c3 -8 4 -15 2 -15 -3 0 -11 -3 -19 -6 -12 -4 -14 0 -10 15 6 25 18 27 27 6z m-36 -19 c0 -18 -6 -24 -19 -23 -22 2 -22 2 -7 27 17 27 26 25 26 -4z"/> <path d="M2507 1883 c-4 -3 -7 -11 -7 -17 0 -6 5 -5 12 2 6 6 9 14 7 17 -3 3 -9 2 -12 -2z"/> <path d="M2575 1860 c-3 -6 1 -7 9 -4 18 7 21 14 7 14 -6 0 -13 -4 -16 -10z"/> <path d="M2060 1850 c0 -5 5 -10 11 -10 5 0 7 5 4 10 -3 6 -8 10 -11 10 -2 0 -4 -4 -4 -10z"/> <path d="M1370 1802 c-45 -8 -83 -21 -94 -32 -20 -19 -20 -20 0 -39 19 -19 20 -18 57 17 28 27 37 32 37 19 0 -10 -16 -27 -35 -38 -28 -17 -33 -24 -24 -35 20 -25 -7 -15 -31 11 -18 19 -26 22 -37 14 -7 -6 -13 -8 -13 -5 0 14 -38 -20 -83 -72 -35 -42 -44 -59 -41 -81 3 -20 0 -28 -11 -28 -18 0 -20 18 -2 37 6 8 2 6 -11 -4 -28 -24 -39 -16 -12 9 11 10 20 24 20 31 0 7 9 18 20 24 11 6 20 15 20 21 0 6 -4 7 -10 4 -6 -3 -7 1 -3 10 4 12 8 13 13 5 5 -8 12 -6 24 6 17 16 17 18 1 27 -15 8 -15 11 6 33 12 13 27 24 32 24 6 0 0 -11 -12 -24 -16 -17 -19 -26 -11 -31 7 -4 22 4 37 19 13 15 29 23 35 20 7 -4 8 -2 4 5 -4 6 0 14 8 17 9 3 16 10 16 16 0 5 -4 7 -9 3 -5 -3 -101 -21 -213 -40 -395 -66 -603 -106 -609 -117 -4 -6 -8 -7 -10 0 -6 15 -297 -42 -328 -65 -14 -11 -34 -36 -44 -56 -19 -37 -19 -38 22 -257 42 -227 53 -260 102 -286 32 -16 95 -19 104 -4 4 6 10 8 15 5 5 -3 127 16 272 42 l263 47 47 49 c25 28 44 56 41 64 -3 7 2 25 12 39 l16 25 -24 -16 c-16 -10 -23 -23 -20 -38 4 -24 -25 -67 -47 -70 -8 -2 -26 -10 -40 -20 -30 -19 -109 -32 -91 -14 6 6 11 15 11 20 0 5 -10 -3 -22 -18 -20 -26 -22 -26 -29 -9 -6 16 -8 16 -8 2 -1 -11 -16 -20 -51 -27 -67 -14 -83 -14 -74 2 4 6 -2 4 -13 -6 -13 -12 -23 -14 -27 -8 -4 6 2 16 14 23 11 7 20 16 20 21 0 4 -6 5 -12 0 -7 -4 -17 -8 -23 -8 -5 0 -12 -11 -15 -24 -3 -14 -11 -26 -18 -27 -7 -1 -8 0 -2 3 21 10 9 19 -20 15 -18 -3 -30 -10 -30 -19 0 -11 -7 -13 -24 -9 -14 3 -28 2 -31 -4 -3 -5 -12 -10 -18 -10 -7 0 -6 4 3 10 13 8 13 10 1 10 -8 0 -25 -10 -38 -22 -13 -12 -23 -17 -23 -11 0 6 7 16 15 23 8 7 12 17 9 22 -3 5 -14 2 -25 -8 -11 -10 -19 -12 -19 -6 0 7 -6 12 -12 12 -19 0 -43 -18 -35 -26 3 -4 13 -1 22 6 8 7 15 8 15 4 0 -5 -9 -15 -20 -22 -12 -7 -20 -8 -20 -2 0 5 -11 10 -23 10 -13 0 -32 9 -42 20 -10 11 -14 20 -9 20 5 0 4 4 -3 8 -6 4 -14 21 -17 37 -3 17 -9 47 -15 68 -5 22 -5 39 0 43 5 3 9 15 9 27 0 20 0 20 -14 1 -14 -18 -15 -17 -12 11 1 17 -1 38 -6 48 -5 10 -4 25 3 38 6 12 7 19 1 15 -14 -9 -21 16 -28 98 -6 67 -4 73 20 97 20 20 34 26 62 23 24 -2 37 2 41 12 4 11 14 13 34 9 19 -4 29 -3 29 5 0 6 5 8 10 5 6 -3 10 -1 10 4 0 6 10 10 23 10 16 -1 18 -2 5 -6 -10 -2 -18 -8 -18 -13 0 -15 30 -4 45 16 12 16 14 16 15 3 0 -9 -6 -22 -14 -29 -12 -9 -12 -17 -4 -35 6 -14 15 -22 21 -18 6 4 7 -4 3 -23 l-7 -28 27 27 c15 15 31 27 35 27 17 0 8 -19 -18 -39 -16 -12 -20 -18 -10 -15 20 7 23 -6 5 -24 -17 -17 -26 -15 -31 6 -3 12 -5 13 -6 2 0 -8 3 -21 8 -29 8 -13 12 -13 27 0 16 13 17 12 11 -4 -4 -10 -7 -21 -7 -23 0 -3 -4 -2 -10 1 -5 3 -10 1 -10 -4 0 -6 4 -11 9 -11 14 0 31 26 30 46 -4 34 1 67 7 61 4 -4 19 2 34 13 35 25 44 25 36 3 -5 -15 -3 -15 9 1 11 15 18 17 26 9 14 -14 2 -36 -13 -27 -6 4 -8 2 -4 -4 3 -6 2 -13 -3 -16 -11 -7 -2 -46 10 -46 5 0 8 8 6 18 -1 9 2 19 7 22 13 7 18 -38 6 -45 -7 -4 -3 -20 11 -41 11 -19 18 -41 15 -49 -3 -8 0 -15 6 -15 7 0 6 -5 -2 -15 -7 -8 -19 -15 -26 -15 -8 0 -14 -4 -14 -10 0 -5 16 -7 36 -4 31 4 35 2 25 -10 -10 -11 -10 -20 -1 -36 11 -20 12 -21 24 -4 11 15 10 23 -4 48 -10 17 -26 77 -36 133 -17 98 -17 104 0 122 24 27 11 48 -15 25 -11 -9 -22 -14 -27 -10 -4 4 4 17 18 28 20 16 21 19 6 16 -11 -1 -33 -16 -50 -31 -17 -16 -39 -33 -49 -39 -17 -8 -18 -7 -13 14 3 12 3 18 0 12 -3 -7 -14 -9 -26 -7 -11 4 -24 0 -29 -8 -6 -11 -9 -11 -9 -1 0 7 10 16 22 21 12 4 17 10 11 14 -6 4 -16 0 -23 -8 -16 -19 -36 -19 -44 0 -4 10 1 14 16 12 11 -1 22 4 24 11 1 7 0 8 -3 2 -10 -20 -24 -10 -17 13 9 29 22 37 59 36 17 -1 58 6 91 15 81 21 91 21 71 -2 -11 -12 -13 -22 -7 -32 8 -13 10 -13 10 1 0 9 14 28 30 42 17 15 30 23 30 19 0 -5 -3 -12 -8 -16 -7 -8 -8 -13 -11 -41 -1 -9 -8 -12 -18 -9 -17 5 -17 5 -1 -6 24 -15 23 -32 -2 -48 -32 -20 -24 -34 14 -27 l34 7 11 -54 c6 -29 13 -71 16 -93 10 -63 25 -85 56 -85 42 0 62 26 54 69 -20 100 -32 176 -28 180 2 3 11 6 21 7 9 2 32 6 50 9 35 7 39 2 46 -55 3 -19 5 -36 5 -38 1 -1 10 2 21 8 15 8 20 8 20 -1 0 -6 -9 -13 -20 -16 -16 -4 -18 -10 -12 -37 4 -17 7 -53 7 -79 0 -43 -4 -53 -36 -82 -46 -41 -120 -59 -184 -45 -40 9 -47 8 -65 -10 -11 -11 -28 -20 -38 -20 -11 0 -13 -3 -6 -8 6 -4 10 -22 9 -41 -2 -22 0 -29 6 -20 5 8 9 23 9 34 0 11 9 26 19 32 17 11 21 9 26 -7 4 -11 11 -20 16 -20 6 0 7 9 4 20 -5 15 -2 20 10 20 11 0 15 -5 12 -14 -9 -23 19 -26 37 -4 10 11 20 17 24 13 4 -4 1 -10 -5 -12 -7 -3 -13 -9 -13 -14 0 -6 4 -8 9 -5 5 4 12 0 14 -6 3 -8 6 -6 6 4 1 21 37 42 57 34 8 -3 13 -2 9 3 -3 5 7 19 21 30 38 30 51 26 17 -5 l-28 -25 25 7 c29 8 49 31 50 57 0 9 5 17 11 17 6 0 8 7 5 16 -14 37 8 31 28 -8 21 -42 21 -44 4 -70 -24 -35 -22 -49 2 -20 11 13 21 18 25 12 10 -16 19 -12 53 21 21 21 32 26 32 16 0 -8 -7 -18 -16 -21 -8 -3 -12 -10 -9 -16 8 -13 -19 -52 -29 -43 -4 4 -4 0 0 -10 3 -9 8 -17 10 -17 1 0 17 20 34 44 20 29 30 57 30 80 0 20 5 36 10 36 6 0 10 5 10 11 0 5 -4 7 -10 4 -14 -9 -13 8 2 23 16 16 31 15 22 0 -5 -7 -10 -33 -12 -58 -2 -24 -8 -53 -14 -63 -8 -15 -7 -18 4 -15 7 3 14 10 14 16 1 7 3 13 4 15 1 1 3 17 5 35 3 36 20 61 32 47 5 -4 2 -10 -4 -12 -7 -3 -13 -9 -13 -14 0 -4 7 -6 15 -3 9 4 15 0 15 -9 0 -30 30 -36 58 -11 14 13 33 24 42 24 9 0 25 9 35 20 14 15 21 17 31 9 8 -6 11 -16 7 -22 -3 -5 2 -16 11 -23 17 -12 16 -13 -3 -24 -12 -6 -21 -15 -21 -21 0 -5 10 -1 22 10 11 11 26 18 31 14 6 -3 7 -1 4 4 -4 6 0 14 8 17 8 3 15 9 14 13 -4 21 2 33 16 33 37 0 52 22 47 67 -2 24 -1 43 4 41 5 -2 20 5 34 16 l25 18 -34 -6 c-18 -3 -40 -6 -48 -6 -13 0 -14 -10 -9 -54 l7 -53 -47 -7 c-26 -3 -51 -3 -54 1 -4 5 -15 61 -25 126 -10 64 -22 117 -26 117 -4 0 -5 10 -1 22 3 14 1 19 -6 14 -8 -5 -10 -2 -6 8 7 18 20 22 89 32 44 6 58 14 117 73 54 52 66 69 58 81 -10 13 -10 13 -8 -1 2 -8 -10 -27 -26 -42 -32 -30 -37 -31 -51 -18 -6 6 -15 3 -24 -6 -12 -13 -11 -14 8 -8 20 6 22 5 12 -14 -15 -27 -76 -44 -102 -28 -10 6 -19 15 -19 19 0 12 37 28 45 20 3 -4 6 -2 4 3 -1 6 1 22 5 38 6 20 15 27 32 27 21 0 45 25 33 34 -2 1 -38 -4 -79 -12z m-67 -47 c-3 -9 -8 -14 -10 -11 -3 3 -2 9 2 15 9 16 15 13 8 -4z m-185 -28 c-1 -2 3 -11 10 -20 11 -13 10 -16 -7 -22 -13 -4 -18 -13 -16 -26 3 -15 0 -19 -10 -15 -8 3 -17 1 -20 -4 -4 -6 -1 -10 5 -10 6 0 9 -4 5 -10 -3 -5 -13 -7 -23 -4 -14 5 -15 4 -2 -5 17 -12 14 -16 -18 -26 -19 -5 -25 -2 -29 16 -5 18 -8 19 -17 8 -6 -8 -18 -16 -26 -18 -38 -9 -70 -10 -75 -1 -4 6 -1 9 5 8 7 -2 14 7 16 19 5 27 -31 52 -49 34 -15 -15 -26 -14 -23 2 3 19 16 37 27 37 6 0 7 -6 3 -12 -5 -8 0 -7 11 2 17 14 18 13 12 -3 -4 -11 -3 -16 3 -12 6 3 10 13 10 22 0 13 3 13 15 3 13 -11 14 -10 10 2 -5 11 3 15 32 15 43 1 95 11 127 23 20 7 31 6 24 -3z m150 -27 c-2 -5 0 -9 3 -7 4 1 16 -6 27 -16 13 -12 21 -14 24 -7 3 9 7 8 16 -2 10 -13 7 -15 -19 -16 -17 0 -39 -8 -48 -16 -23 -21 -32 -20 -24 2 5 14 3 15 -8 5 -7 -7 -19 -13 -27 -13 -12 0 -12 3 -2 15 7 8 18 15 25 15 7 0 15 7 19 15 5 13 3 13 -18 0 -12 -8 -26 -12 -31 -8 -4 5 -6 3 -2 -2 3 -6 -4 -17 -16 -24 -21 -14 -21 -13 -6 10 9 13 31 32 50 41 40 21 40 21 37 8z m-474 -26 c3 -8 2 -13 -3 -10 -4 3 -16 -2 -24 -12 -15 -17 -15 -19 3 -35 11 -9 22 -12 25 -7 4 6 0 10 -7 11 -7 0 -4 5 7 10 16 8 15 8 -8 4 -19 -4 -26 -2 -22 5 3 5 20 10 37 10 25 0 28 -3 19 -14 -7 -8 -10 -26 -7 -41 3 -15 2 -25 -1 -21 -3 3 -12 1 -19 -5 -7 -5 -28 -11 -47 -12 -22 -1 -33 -6 -30 -14 2 -6 -3 -24 -13 -40 l-18 -28 27 24 c27 24 40 14 14 -11 -12 -10 -11 -16 5 -32 19 -21 25 -41 8 -31 -5 3 -10 0 -10 -8 0 -8 -6 -17 -14 -20 -22 -9 -28 5 -8 19 14 11 15 15 3 26 -12 11 -13 10 -8 -4 4 -10 3 -18 -2 -18 -5 0 -11 18 -15 39 -3 22 -13 46 -21 55 -8 8 -15 20 -15 26 0 6 -4 9 -9 6 -5 -3 -11 3 -14 14 -3 11 -1 23 4 26 5 3 9 16 9 28 0 29 16 43 54 48 19 2 31 -2 34 -11 3 -10 0 -12 -11 -8 -9 3 -21 -1 -28 -9 -11 -13 -9 -14 16 -8 16 4 40 20 53 36 28 33 28 33 36 12z m46 1 c-7 -8 -17 -15 -22 -15 -6 0 -5 7 2 15 7 8 17 15 22 15 6 0 5 -7 -2 -15z m52 -58 c-16 -17 -19 -26 -11 -34 8 -8 8 -13 0 -17 -6 -4 -11 0 -11 9 0 12 -6 15 -21 10 -17 -6 -14 0 12 24 40 36 63 42 31 8z m-42 -2 c-7 -8 -17 -15 -22 -15 -6 0 -5 7 2 15 7 8 17 15 22 15 6 0 5 -7 -2 -15z m400 -147 c13 -79 24 -150 24 -158 1 -9 -13 -17 -39 -21 -36 -6 -45 -3 -90 31 -27 20 -62 50 -77 65 -32 32 -34 25 -14 -60 16 -64 11 -75 -31 -75 -12 0 -28 -3 -36 -6 -11 -4 -19 18 -36 108 -11 63 -24 134 -27 160 l-6 45 47 7 c46 7 47 7 116 -54 68 -61 91 -71 71 -33 -5 10 -12 41 -16 70 l-7 52 33 4 c18 2 40 5 49 5 13 2 20 -25 39 -140z m-1098 90 c-6 -6 -15 -8 -19 -4 -4 4 -1 11 7 16 19 12 27 3 12 -12z m744 -25 c-10 -10 -19 5 -10 18 6 11 8 11 12 0 2 -7 1 -15 -2 -18z m-386 -7 c0 -3 -4 -8 -10 -11 -5 -3 -10 -1 -10 4 0 6 5 11 10 11 6 0 10 -2 10 -4z m394 -22 c3 -8 2 -12 -4 -9 -6 3 -10 10 -10 16 0 14 7 11 14 -7z m381 -14 c-5 -8 -11 -8 -17 -2 -6 6 -7 16 -3 22 5 8 11 8 17 2 6 -6 7 -16 3 -22z m2 -52 c-3 -8 -6 -5 -6 6 -1 11 2 17 5 13 3 -3 4 -12 1 -19z m10 -50 c-3 -8 -6 -5 -6 6 -1 11 2 17 5 13 3 -3 4 -12 1 -19z m-537 -13 c-7 -8 -18 -15 -25 -15 -8 0 -15 -6 -18 -12 -2 -8 -8 -9 -13 -4 -5 5 -4 11 4 13 6 3 10 9 7 14 -4 5 0 6 8 3 8 -3 18 -1 22 5 3 6 11 11 17 11 7 0 6 -6 -2 -15z m547 -47 c-3 -8 -6 -5 -6 6 -1 11 2 17 5 13 3 -3 4 -12 1 -19z m-561 3 c-4 -5 -1 -11 6 -13 7 -3 5 -7 -6 -11 -10 -4 -15 -3 -11 3 3 6 1 10 -4 10 -6 0 -11 -5 -11 -12 0 -6 -3 -8 -6 -5 -8 8 14 37 28 37 5 0 7 -4 4 -9z m634 -52 c-7 -11 -14 -18 -17 -15 -8 8 5 36 17 36 7 0 7 -6 0 -21z m-183 -26 c-9 -9 -19 -14 -23 -11 -10 10 6 28 24 28 15 0 15 -1 -1 -17z m-167 -16 c0 -2 -11 -14 -25 -27 -18 -16 -25 -19 -25 -9 0 12 8 19 48 38 1 0 2 0 2 -2z"/> <path d="M1105 1719 c-4 -6 -5 -12 -2 -15 2 -3 7 2 10 11 7 17 1 20 -8 4z"/> <path d="M937 1611 c-3 -14 -1 -18 9 -14 16 6 18 19 5 27 -5 3 -11 -3 -14 -13z"/> <path d="M1026 1603 c-6 -14 -5 -15 5 -6 7 7 10 15 7 18 -3 3 -9 -2 -12 -12z"/> <path d="M1270 1670 c-9 -6 -10 -10 -3 -10 6 0 15 5 18 10 8 12 4 12 -15 0z"/> <path d="M725 1610 c-3 -6 1 -7 9 -4 18 7 21 14 7 14 -6 0 -13 -4 -16 -10z"/> <path d="M2712 1779 c-18 -28 -15 -31 14 -13 19 13 28 14 37 5 8 -8 8 -11 -1 -11 -7 0 -12 -6 -10 -14 2 -8 -1 -15 -7 -14 -5 0 -9 4 -7 9 1 5 -2 9 -8 9 -5 0 -10 -7 -10 -15 0 -8 5 -15 10 -15 6 0 10 -5 10 -11 0 -5 -5 -7 -12 -3 -7 5 -8 3 -3 -6 6 -10 12 -8 27 9 10 13 15 27 12 32 -3 5 0 9 5 9 6 0 11 7 11 15 0 8 -5 15 -11 15 -5 0 -8 3 -6 8 3 4 -5 8 -17 8 -13 1 -28 -7 -34 -17z"/> <path d="M2795 1779 c-11 -16 -1 -19 13 -3 7 8 8 14 3 14 -5 0 -13 -5 -16 -11z"/> <path d="M2620 1740 c0 -5 5 -10 10 -10 6 0 10 5 10 10 0 6 -4 10 -10 10 -5 0 -10 -4 -10 -10z"/> <path d="M2509 1713 c-13 -16 -12 -17 4 -4 9 7 17 15 17 17 0 8 -8 3 -21 -13z"/> <path d="M2205 1700 c-4 -6 -3 -30 1 -53 11 -58 12 -59 13 -85 1 -19 5 -21 29 -16 47 12 55 24 50 81 -3 28 -10 59 -17 67 -15 18 -66 22 -76 6z m55 -29 c0 -5 -7 -12 -16 -15 -14 -5 -15 -4 -4 9 14 17 20 19 20 6z m20 -24 c0 -14 -49 -42 -58 -33 -2 3 7 10 22 15 14 6 26 15 26 21 0 5 2 10 5 10 3 0 5 -6 5 -13z m-11 -68 c-19 -11 -24 -3 -8 14 8 9 16 11 18 5 2 -6 -3 -14 -10 -19z"/> <path d="M2437 1703 c-4 -3 1 -12 11 -19 18 -13 42 -2 42 18 0 6 -8 4 -17 -3 -11 -10 -14 -10 -9 -1 7 13 -15 18 -27 5z"/> <path d="M2525 1697 c-11 -7 -32 -22 -47 -34 -22 -17 -24 -22 -12 -27 8 -3 12 -10 9 -16 -3 -5 -1 -10 4 -10 14 0 14 17 1 25 -6 4 -1 15 14 26 36 28 53 23 25 -8 -22 -24 -19 -23 24 7 50 35 61 48 25 29 -18 -10 -20 -9 -15 5 7 19 0 19 -28 3z"/> <path d="M2608 1703 c7 -3 16 -2 19 1 4 3 -2 6 -13 5 -11 0 -14 -3 -6 -6z"/> <path d="M2619 1654 c-7 -8 -9 -17 -6 -21 4 -3 9 1 13 10 3 9 12 13 20 10 12 -4 12 -7 -2 -18 -9 -6 -13 -14 -8 -17 5 -3 17 3 26 13 13 14 14 20 5 26 -20 13 -36 12 -48 -3z"/> <path d="M2855 1630 c3 -5 8 -10 11 -10 2 0 4 5 4 10 0 6 -5 10 -11 10 -5 0 -7 -4 -4 -10z"/> <path d="M2495 1600 c-16 -17 -16 -20 -3 -15 9 4 19 13 22 21 7 19 2 18 -19 -6z"/> <path d="M2778 1603 c7 -3 16 -2 19 1 4 3 -2 6 -13 5 -11 0 -14 -3 -6 -6z"/> <path d="M2756 1573 c-6 -14 -5 -15 5 -6 7 7 10 15 7 18 -3 3 -9 -2 -12 -12z"/> <path d="M1417 1563 c-11 -3 -16 -10 -13 -20 3 -8 6 -21 6 -28 0 -10 8 -11 28 -6 20 6 27 14 27 32 0 24 -14 31 -48 22z"/> <path d="M261 1551 c-8 -5 -21 -7 -29 -4 -8 4 -19 -1 -24 -11 -6 -10 -18 -15 -34 -12 -13 3 -22 1 -19 -4 7 -12 56 -5 65 9 7 13 23 -1 31 -27 3 -8 8 -6 16 8 11 16 10 18 -2 14 -8 -4 -15 -1 -15 5 0 6 7 11 15 11 8 0 15 5 15 10 0 12 -1 12 -19 1z"/> <path d="M450 1539 c0 -5 5 -7 10 -4 6 3 10 8 10 11 0 2 -4 4 -10 4 -5 0 -10 -5 -10 -11z"/> <path d="M2595 1503 c-13 -10 -16 -17 -8 -20 7 -2 9 -12 6 -21 -3 -9 4 -4 17 11 26 33 16 54 -15 30z"/> <path d="M2809 1493 c-13 -17 -13 -17 6 -3 11 8 22 16 24 17 2 2 0 3 -6 3 -6 0 -17 -8 -24 -17z"/> <path d="M314 1480 c0 -13 4 -16 10 -10 7 7 7 13 0 20 -6 6 -10 3 -10 -10z"/> <path d="M2770 1490 c-9 -6 -10 -10 -3 -10 6 0 15 5 18 10 8 12 4 12 -15 0z"/> <path d="M444 1459 c-19 -22 -19 -22 4 -8 12 8 22 17 22 21 0 12 -6 9 -26 -13z"/> <path d="M131 1454 c0 -11 3 -14 6 -6 3 7 2 16 -1 19 -3 4 -6 -2 -5 -13z"/> <path d="M2616 1455 c-3 -8 -1 -15 4 -15 6 0 10 7 10 15 0 8 -2 15 -4 15 -2 0 -6 -7 -10 -15z"/> <path d="M160 1440 c-9 -6 -10 -10 -3 -10 6 0 15 5 18 10 8 12 4 12 -15 0z"/> <path d="M243 1425 c-3 -9 -3 -18 -1 -21 3 -3 8 4 11 16 6 23 -1 27 -10 5z"/> <path d="M280 1430 c0 -5 5 -10 10 -10 6 0 10 -5 10 -11 0 -5 -4 -7 -10 -4 -5 3 -10 1 -10 -5 0 -6 7 -10 16 -8 21 4 45 -32 27 -39 -7 -3 -13 -9 -13 -15 0 -6 9 -3 19 6 20 18 21 53 2 49 -6 -2 -11 4 -11 12 0 8 -9 19 -20 25 -14 7 -20 7 -20 0z"/> <path d="M166 1415 c-9 -9 -16 -19 -16 -23 0 -3 5 -1 12 6 17 17 31 15 24 -3 -6 -17 9 -21 20 -4 3 6 0 18 -8 26 -13 13 -17 12 -32 -2z"/> <path d="M2363 1408 c-16 -21 -23 -48 -13 -48 6 0 10 7 10 16 0 8 4 13 8 10 4 -2 9 4 9 15 2 22 -1 24 -14 7z"/> <path d="M489 1392 c11 -8 9 -12 -10 -22 -13 -7 -28 -19 -32 -26 -4 -8 -13 -14 -18 -14 -6 0 -8 4 -5 8 2 4 -4 8 -15 8 -24 0 -25 -16 -1 -17 12 0 13 -2 3 -6 -8 -3 -21 4 -31 16 -15 20 -18 21 -29 7 -8 -9 -9 -16 -3 -16 6 0 13 6 16 13 3 6 4 3 3 -8 -2 -11 -9 -19 -16 -17 -7 1 -10 -2 -6 -8 5 -7 11 -8 19 -1 7 6 21 8 32 5 11 -3 35 5 57 20 44 30 56 33 35 9 -29 -34 -32 -46 -10 -34 12 6 24 16 27 21 11 17 21 11 23 -15 1 -14 -3 -25 -9 -25 -6 0 -9 7 -5 15 4 11 -4 8 -24 -7 -17 -12 -30 -26 -30 -31 0 -6 9 -2 20 8 11 10 20 13 20 7 0 -8 8 -9 22 -3 29 10 30 52 3 68 -11 6 -20 19 -20 29 0 9 -7 19 -15 21 -12 4 -13 3 -1 -5z"/> <path d="M2255 1389 c-3 -4 6 -6 21 -3 15 3 23 1 20 -5 -4 -5 -2 -12 3 -15 5 -4 8 2 7 11 -3 18 -42 27 -51 12z"/> <path d="M297 1373 c-4 -3 -7 -13 -7 -22 1 -13 3 -13 11 2 11 19 8 33 -4 20z"/> <path d="M1915 1370 c-3 -5 -1 -10 4 -10 6 0 11 5 11 10 0 6 -2 10 -4 10 -3 0 -8 -4 -11 -10z"/> <path d="M160 1359 c0 -5 5 -7 10 -4 6 3 10 8 10 11 0 2 -4 4 -10 4 -5 0 -10 -5 -10 -11z"/> <path d="M2703 1348 c-29 -5 -53 -13 -54 -16 -14 -112 -75 -297 -129 -392 -20 -36 -46 -80 -56 -99 -36 -64 -96 -130 -102 -113 -2 7 -35 -17 -75 -54 -177 -164 -352 -254 -592 -303 -122 -26 -334 -22 -455 8 -144 36 -285 96 -387 165 -57 39 -202 160 -202 169 -1 5 -19 30 -41 55 -23 25 -62 79 -87 119 -26 40 -48 71 -51 68 -6 -5 50 -95 102 -163 56 -75 74 -103 42 -68 -15 15 -30 25 -34 21 -4 -4 10 -22 30 -39 37 -32 40 -46 11 -46 -8 0 -12 4 -9 9 3 5 -21 34 -54 65 -56 51 -63 55 -101 52 -23 -2 -54 1 -70 8 -22 8 -34 8 -48 -1 -10 -6 -23 -8 -30 -3 -9 5 -10 10 -2 14 6 4 11 4 11 -1 0 -4 5 0 11 10 5 9 21 17 34 17 13 0 27 5 30 11 4 6 1 10 -6 8 -32 -4 -47 2 -52 22 -6 21 6 28 65 43 21 5 26 3 22 -8 -3 -8 3 -19 15 -26 14 -7 21 -7 21 0 0 5 4 10 10 10 5 0 7 -7 4 -15 -4 -8 -1 -15 5 -15 18 0 12 -30 -6 -31 -10 0 -26 -2 -35 -4 -10 -2 -18 2 -18 8 0 8 -4 7 -12 -1 -6 -6 -9 -14 -6 -17 10 -11 48 -14 53 -4 12 19 52 8 80 -21 16 -16 30 -28 32 -27 2 2 -21 40 -51 84 -29 44 -55 85 -57 91 -3 8 -23 8 -69 0 l-65 -11 -42 -75 c-43 -77 -47 -95 -14 -75 11 7 22 8 27 3 5 -5 43 -10 85 -12 l77 -3 -39 -100 c-21 -55 -39 -102 -39 -104 0 -2 8 0 18 4 20 8 194 37 197 33 3 -4 -22 -164 -30 -189 -8 -25 -3 -25 101 16 49 19 92 35 96 35 5 0 8 -37 8 -82 1 -71 3 -80 14 -66 7 10 16 15 19 11 4 -3 -2 -12 -13 -20 -11 -8 -20 -25 -20 -38 0 -22 4 -21 100 33 54 32 99 63 100 70 0 17 -7 15 -46 -9 -22 -13 -41 -18 -55 -14 -21 7 -20 8 8 22 16 7 30 20 30 28 0 13 -3 13 -17 0 -25 -23 -32 -18 -14 11 10 14 23 23 31 20 8 -3 11 -1 8 4 -11 17 6 11 34 -13 27 -22 30 -28 39 -60 4 -17 6 -16 28 4 25 23 58 20 48 -6 -5 -11 -2 -14 10 -9 9 3 13 10 10 15 -8 13 18 7 33 -8 19 -17 16 -27 -17 -51 -40 -30 -62 -27 -25 3 29 24 29 25 7 25 -12 0 -25 -7 -28 -15 -4 -8 -10 -15 -16 -15 -5 0 -7 4 -4 9 4 5 0 11 -6 14 -8 2 -9 8 -4 13 5 5 11 4 13 -4 7 -20 22 -4 16 18 -5 18 -6 18 -31 2 -14 -9 -33 -17 -41 -17 -19 0 -19 -6 -2 -120 l14 -90 36 35 c40 40 125 110 134 110 3 0 13 -23 23 -50 10 -28 21 -50 24 -50 4 0 15 10 26 22 19 21 19 21 -1 14 -11 -4 -16 -4 -12 0 4 4 0 18 -8 31 -15 23 -15 23 25 23 22 0 40 -5 40 -11 0 -6 9 -8 20 -4 24 8 26 -7 5 -25 -11 -9 -13 -16 -5 -24 5 -5 10 -15 10 -20 0 -6 -5 -4 -10 4 -10 16 -11 15 -14 -29 -1 -8 -7 -16 -14 -19 -14 -4 -13 39 2 49 4 4 4 9 -1 12 -6 4 -22 -6 -36 -21 -24 -25 -25 -30 -14 -64 7 -21 14 -38 17 -38 3 0 34 39 70 85 36 47 67 85 70 85 6 0 82 -136 93 -167 5 -13 12 -23 16 -23 3 0 23 33 44 73 64 123 60 121 117 55 38 -42 55 -55 70 -51 11 3 20 9 20 14 0 5 5 9 10 9 7 0 7 -6 0 -20 -6 -11 -16 -17 -25 -14 -8 4 -15 2 -15 -3 0 -11 21 -33 31 -33 10 0 30 61 23 71 -3 5 0 9 5 9 6 0 11 6 11 14 0 7 7 26 15 42 10 19 11 30 4 35 -8 5 -8 9 0 13 21 14 12 27 -11 16 -15 -7 -11 0 12 21 31 28 32 30 10 24 -22 -7 -23 -6 -11 8 7 9 17 15 21 12 4 -3 24 2 44 10 20 8 36 11 36 6 0 -5 -14 -13 -31 -16 -18 -4 -27 -10 -22 -14 6 -3 13 -16 17 -29 4 -12 12 -19 18 -16 6 4 5 10 -3 15 -11 8 -9 14 11 30 22 19 25 19 28 5 2 -9 10 -16 17 -16 9 0 12 -6 8 -15 -5 -14 -8 -14 -24 1 -11 10 -19 12 -19 6 0 -7 4 -12 9 -12 5 0 7 -9 4 -20 -5 -19 4 -25 35 -21 19 3 14 -17 -8 -29 -15 -8 -25 -8 -38 0 -15 10 -14 11 6 7 35 -8 26 10 -12 23 -19 6 -36 19 -39 30 -5 21 -31 27 -42 10 -3 -5 -1 -10 5 -10 6 0 9 -4 6 -9 -8 -13 82 -84 96 -75 7 5 10 2 6 -7 -3 -8 10 -26 29 -42 l33 -29 1 24 c1 28 4 46 19 121 6 33 9 66 6 74 -5 11 3 9 28 -6 28 -17 35 -19 45 -8 6 8 7 18 3 22 -4 5 -2 5 5 1 6 -3 14 -2 18 4 3 5 17 10 31 10 15 0 23 -4 19 -11 -4 -6 -13 -8 -20 -5 -7 2 -23 -6 -35 -19 l-22 -23 43 -25 c35 -21 46 -24 58 -14 12 10 14 9 8 -5 -3 -10 -2 -20 2 -22 5 -3 9 30 9 74 1 49 -3 80 -9 80 -6 0 -8 -3 -6 -7 3 -5 -8 -8 -24 -9 -15 -1 -26 3 -23 7 3 5 14 9 25 9 14 0 25 10 32 30 6 17 19 33 29 36 10 3 18 10 18 15 0 6 4 8 8 5 5 -3 24 11 43 31 19 20 28 33 22 29 -7 -4 -13 -3 -13 3 0 5 9 12 20 16 11 3 19 11 17 17 -1 6 3 12 8 14 6 2 11 -5 12 -16 1 -11 -2 -20 -7 -20 -13 0 -38 -52 -33 -67 2 -6 -1 -14 -6 -18 -6 -3 -11 0 -11 7 0 7 -9 2 -20 -12 -11 -14 -20 -19 -20 -12 0 7 -4 10 -10 7 -5 -3 -10 -11 -10 -17 0 -6 3 -8 7 -5 3 4 12 2 20 -4 10 -9 13 -8 13 5 0 10 5 14 10 11 6 -4 17 -1 25 5 11 9 15 9 15 1 0 -6 -7 -14 -15 -17 -27 -11 -17 -31 15 -29 17 1 30 -2 30 -6 0 -4 14 -12 30 -18 18 -6 30 -6 30 0 0 5 -5 9 -11 9 -5 0 -8 4 -5 9 4 5 1 33 -5 61 -11 50 -12 51 -30 34 -26 -23 -37 -10 -14 16 11 12 19 37 19 60 1 26 9 46 24 63 l23 24 -31 1 c-16 0 -33 -4 -36 -10 -5 -7 -1 -9 9 -5 22 8 22 -6 -1 -27 -18 -16 -19 -15 -20 15 0 18 -4 35 -9 38 -4 4 -30 -15 -58 -42 -27 -26 -40 -42 -27 -35 12 7 22 16 22 20 0 5 9 8 19 8 10 0 22 8 25 17 6 15 8 15 16 3 6 -10 4 -17 -5 -23 -8 -4 -15 -17 -15 -27 0 -16 -15 -34 -30 -35 -3 0 -27 -11 -53 -24 -26 -13 -51 -21 -54 -18 -3 4 19 17 48 31 30 14 60 35 67 47 l14 22 -31 -22 c-17 -12 -35 -20 -40 -17 -5 3 -14 0 -20 -8 -6 -7 -48 -35 -92 -62 -83 -50 -131 -89 -162 -134 -21 -30 -21 -40 -2 -40 8 0 15 8 15 18 0 11 9 27 20 37 11 10 20 13 20 8 0 -6 -7 -16 -15 -23 -9 -7 -12 -22 -9 -39 4 -18 0 -33 -10 -44 -9 -9 -13 -23 -10 -34 4 -11 3 -14 -3 -7 -4 7 -16 13 -26 15 -15 4 -14 8 10 33 14 16 20 27 12 24 -7 -2 -20 2 -27 9 -15 15 -12 21 37 76 15 16 20 27 12 27 -7 0 -29 -17 -47 -37 -19 -20 -34 -32 -34 -27 0 6 5 15 11 21 7 7 3 9 -15 6 -14 -3 -26 -12 -26 -19 0 -16 -17 -19 -22 -3 -2 6 -20 -1 -41 -15 -40 -28 -52 -32 -42 -16 9 15 -57 0 -79 -19 -14 -11 -17 -12 -11 -2 7 12 1 13 -31 7 -21 -4 -52 -7 -67 -7 -17 1 -26 -3 -22 -9 3 -5 1 -18 -5 -27 -9 -16 -10 -15 -8 7 3 23 0 25 -40 26 -35 0 -49 -5 -72 -28 -16 -15 -34 -28 -42 -28 -7 0 -1 10 15 21 38 29 34 41 -15 38 -24 -1 -50 1 -58 4 -8 3 -44 11 -80 17 -36 6 -87 20 -115 29 -27 10 -56 16 -62 14 -7 -3 -13 0 -13 5 0 5 -10 12 -23 16 -16 4 -27 -1 -39 -17 -10 -12 -18 -17 -18 -10 0 6 7 18 15 26 13 13 11 16 -12 22 -17 4 -29 1 -35 -7 -7 -10 -8 -9 -4 4 6 22 -74 71 -100 61 -12 -4 -15 -3 -10 6 4 7 -2 20 -16 31 -27 22 -42 26 -35 8 2 -7 10 -12 16 -10 15 3 14 -11 -1 -26 -9 -9 -8 -12 5 -12 14 0 15 -4 5 -25 -9 -19 -14 -22 -24 -14 -8 6 -11 16 -8 21 3 5 -2 8 -11 6 -23 -4 -29 31 -7 40 9 4 18 15 18 25 2 21 -14 23 -22 2 -4 -8 -10 -12 -16 -9 -5 3 -4 12 3 20 10 12 4 23 -32 61 -48 51 -33 43 54 -27 119 -96 274 -173 435 -216 129 -35 334 -44 469 -20 232 40 423 136 615 306 40 36 67 58 60 49 -10 -13 -10 -18 1 -28 11 -8 20 -6 40 9 30 24 45 26 27 5 -13 -16 -7 -19 36 -16 11 1 28 -7 39 -19 10 -11 14 -20 9 -20 -5 0 2 -6 16 -13 14 -7 29 -22 35 -34 5 -12 18 -24 28 -27 10 -2 17 -1 15 2 -2 4 -10 24 -18 45 -8 20 -20 37 -27 37 -8 0 -26 11 -40 24 -14 13 -32 22 -40 19 -19 -8 -7 20 16 34 16 10 20 8 32 -15 7 -15 13 -31 13 -36 1 -5 7 -11 15 -14 15 -5 9 23 -16 71 -7 15 -11 32 -8 37 8 13 46 13 79 0 14 -5 26 -6 26 -2 0 4 27 5 61 4 l61 -4 -18 26 c-15 23 -19 25 -33 13 -29 -25 -41 -29 -41 -12 0 8 11 20 25 25 29 11 30 14 13 32 -14 15 -58 99 -58 111 0 4 6 7 13 7 7 0 18 9 25 21 7 12 16 18 19 15 3 -3 0 -13 -8 -22 -12 -15 -12 -16 6 -11 11 4 51 11 89 16 59 9 100 21 69 21 -11 0 -143 152 -143 164 0 3 6 6 13 6 6 1 54 15 105 33 l92 33 -47 36 c-27 20 -58 46 -70 57 -24 23 -24 23 -100 9z m82 -32 c30 -9 28 -41 -5 -76 -30 -32 -40 -37 -40 -18 0 7 12 22 28 34 22 19 25 25 14 36 -7 7 -13 9 -12 3 4 -21 0 -27 -13 -17 -14 12 -46 -2 -34 -15 5 -4 12 -1 17 7 8 13 10 13 10 -1 0 -9 -7 -22 -15 -29 -8 -7 -15 -17 -15 -22 0 -6 -9 -23 -21 -39 -12 -17 -16 -29 -9 -29 7 0 9 -7 6 -16 -3 -8 -2 -13 3 -10 5 3 23 -10 41 -30 23 -26 28 -39 20 -44 -9 -5 -6 -10 9 -15 11 -3 25 -3 31 0 5 3 10 2 10 -4 0 -14 -92 -35 -104 -24 -10 11 -36 12 -36 2 0 -14 -17 -11 -34 7 -14 14 -16 14 -16 0 0 -11 -6 -13 -17 -9 -17 7 -17 6 0 -20 9 -15 15 -27 12 -27 -3 0 1 -13 9 -29 l15 -29 -75 -71 c-42 -39 -81 -71 -86 -71 -6 0 -5 6 2 15 10 12 9 15 -4 15 -10 0 -14 5 -11 11 4 6 13 8 20 5 8 -3 19 2 25 10 7 8 18 14 24 14 6 0 17 9 24 21 12 18 11 19 -7 10 -11 -6 -26 -8 -35 -5 -11 4 -13 0 -9 -15 4 -15 1 -21 -11 -21 -11 0 -14 4 -9 13 4 6 8 19 8 27 0 8 8 14 18 14 12 -1 17 6 17 27 0 18 5 29 14 29 9 0 12 7 9 20 -4 16 0 20 18 20 17 0 20 3 10 9 -11 7 -10 13 4 35 10 14 14 26 11 26 -4 0 0 14 9 30 9 17 20 30 25 30 15 0 12 -11 -7 -26 -10 -7 -13 -14 -7 -14 21 0 39 29 26 42 -14 14 -16 68 -2 68 5 0 7 6 4 14 -3 8 -1 23 4 33 6 10 13 36 16 57 7 43 16 58 23 39 4 -10 10 -9 26 2 12 8 28 13 37 11 8 -3 24 -7 35 -10z m64 -50 c9 -11 5 -16 -20 -25 -33 -11 -56 -7 -25 5 9 3 16 12 16 20 0 18 14 18 29 0z m-214 -276 c-3 -5 -11 -10 -16 -10 -6 0 -7 5 -4 10 3 6 11 10 16 10 6 0 7 -4 4 -10z m-2177 -82 c-2 -6 -10 -14 -16 -16 -7 -2 -10 2 -6 12 7 18 28 22 22 4z m2207 -29 c4 -6 -3 -21 -14 -33 -13 -14 -19 -29 -15 -39 6 -18 -3 -21 -30 -11 -24 9 -19 34 11 66 29 30 38 34 48 17z m-2345 -34 c-7 -9 -15 -13 -18 -10 -3 2 1 11 8 20 7 9 15 13 18 10 3 -2 -1 -11 -8 -20z m2140 -76 c0 -6 -7 -17 -15 -25 -8 -9 -15 -12 -15 -8 0 4 -13 -5 -30 -21 -16 -16 -30 -23 -30 -17 0 12 70 81 83 82 4 0 7 -5 7 -11z m-1960 -54 c-13 -14 -20 -25 -16 -25 5 0 3 -7 -4 -15 -9 -10 -9 -15 -1 -15 6 0 11 -4 11 -10 0 -16 -27 -11 -34 6 -9 23 -7 46 3 40 9 -6 26 22 22 38 -1 5 1 16 4 24 5 14 8 14 22 -1 16 -15 15 -18 -7 -42z m1990 25 c0 -5 -4 -10 -10 -10 -5 0 -10 5 -10 10 0 6 5 10 10 10 6 0 10 -4 10 -10z m-1944 -22 c4 -6 3 -9 -2 -6 -5 3 -15 -1 -23 -9 -12 -13 -10 -14 19 -8 23 5 30 4 26 -4 -4 -6 -16 -11 -26 -11 -10 0 -22 -4 -25 -10 -3 -5 -11 -10 -17 -10 -7 0 -7 4 1 13 6 8 7 17 3 21 -4 4 2 14 12 22 24 17 23 17 32 2z m129 -59 c-3 -9 1 -22 10 -29 27 -22 17 -54 -32 -103 -43 -43 -82 -67 -54 -33 7 8 11 20 9 28 -1 7 2 15 7 16 21 7 35 25 35 44 0 10 -5 16 -10 13 -6 -3 -17 0 -25 9 -11 11 -12 16 -2 19 6 3 -8 3 -32 1 -24 -2 -41 -1 -38 3 4 3 2 12 -4 19 -9 11 -5 16 15 24 21 8 30 6 46 -10 11 -11 24 -20 28 -20 5 0 16 -15 25 -32 12 -26 16 -29 16 -13 1 11 -6 30 -14 42 -11 16 -12 22 -2 26 9 3 8 8 -3 22 -14 17 -14 17 7 4 14 -8 21 -20 18 -30z m-214 -40 c9 -18 8 -20 -13 -17 -13 2 -23 10 -24 18 -1 36 17 35 37 -1z m59 6 c-7 -8 -19 -15 -27 -15 -13 0 -13 3 -3 15 7 8 19 15 27 15 13 0 13 -3 3 -15z m115 -54 c3 -5 1 -12 -5 -16 -5 -3 -10 1 -10 9 0 18 6 21 15 7z m92 -11 c-3 -12 1 -23 10 -29 12 -6 13 -12 4 -30 -7 -11 -16 -21 -22 -21 -6 0 -7 -6 -3 -12 6 -10 4 -10 -8 0 -13 10 -17 10 -22 -3 -3 -9 -10 -13 -16 -10 -5 3 -10 0 -10 -7 0 -10 -2 -10 -9 1 -7 11 -11 10 -19 -5 -6 -10 -14 -15 -18 -11 -5 5 -4 11 1 15 6 4 11 14 13 22 4 17 83 107 96 109 4 1 6 -8 3 -19z m1545 -37 c-13 -24 -51 -58 -57 -51 -3 3 9 22 26 42 34 37 48 42 31 9z m20 -5 c-7 -7 -12 -8 -12 -2 0 14 12 26 19 19 2 -3 -1 -11 -7 -17z m-86 -17 c-9 -10 -13 -21 -9 -24 3 -4 1 -7 -6 -7 -7 0 -10 -3 -8 -7 6 -11 -8 -48 -19 -49 -31 -5 -53 -18 -47 -28 3 -6 2 -8 -2 -3 -5 4 -19 -3 -32 -15 -33 -31 -28 -9 7 30 18 21 34 31 41 26 8 -4 9 -3 5 5 -4 6 0 18 9 27 9 9 13 19 9 23 -4 3 -9 0 -11 -7 -5 -13 -23 -7 -23 8 0 12 49 35 78 37 21 1 22 0 8 -16z m177 -35 c-3 -14 -11 -27 -19 -30 -18 -7 -18 -1 2 29 20 31 22 31 17 1z m-1490 0 c17 -14 24 -32 8 -21 -11 6 -51 -42 -51 -61 0 -8 -6 -11 -16 -7 -9 3 -12 9 -7 12 29 20 54 81 33 81 -5 0 -7 -6 -4 -14 5 -14 -54 -71 -64 -61 -3 3 7 19 23 35 16 17 25 30 21 30 -4 0 -4 5 -1 10 9 14 37 12 58 -4z m1210 -3 c-4 -11 -3 -14 5 -9 7 4 12 2 12 -4 0 -6 -10 -8 -27 -4 -26 7 -27 6 -13 -11 11 -14 12 -19 2 -22 -6 -3 -10 -8 -7 -13 3 -5 -4 -11 -15 -15 -12 -4 -17 -11 -14 -18 4 -7 3 -9 -1 -4 -5 4 -10 18 -12 30 -2 17 -1 19 7 7 5 -8 10 -13 11 -10 0 3 2 16 5 29 4 20 1 23 -18 18 -22 -6 -22 -5 -4 8 11 8 28 15 37 15 10 0 21 5 24 10 10 16 15 12 8 -7z m297 -31 c0 -13 -12 -22 -22 -16 -10 6 -1 24 13 24 5 0 9 -4 9 -8z m-1565 -81 c-5 -8 -55 -12 -55 -4 0 2 10 7 23 12 24 9 41 5 32 -8z m1361 -3 c4 -7 3 -8 -4 -4 -7 4 -12 2 -12 -3 0 -6 5 -11 10 -11 6 0 10 -5 10 -12 0 -9 -3 -9 -12 0 -7 7 -21 12 -32 12 -19 1 -19 2 4 15 31 18 27 17 36 3z m-1021 -8 c-3 -5 -10 -10 -16 -10 -5 0 -9 5 -9 10 0 6 7 10 16 10 8 0 12 -4 9 -10z m18 -35 c-30 -24 -35 -17 -11 16 18 24 24 27 26 14 2 -9 -5 -23 -15 -30z m82 3 c-5 -19 -4 -20 5 -6 7 12 19 15 43 11 17 -3 42 -6 55 -7 19 -1 20 -3 7 -12 -8 -6 -13 -13 -10 -16 3 -2 -2 -5 -10 -5 -9 0 -14 6 -11 14 3 7 1 13 -4 13 -17 0 -11 -28 8 -39 16 -10 16 -10 0 -11 -12 0 -16 -5 -11 -17 5 -15 3 -14 -10 2 -8 11 -13 23 -11 27 8 13 -11 9 -24 -4 -8 -8 -12 -8 -12 -1 0 14 25 34 33 26 4 -3 7 -1 7 5 0 15 -15 15 -43 0 -12 -6 -41 -13 -65 -14 -37 -2 -41 0 -31 12 6 8 17 14 23 13 19 -2 56 13 56 22 0 5 3 9 6 9 3 0 3 -10 -1 -22z m429 0 c-35 -42 -40 -45 -61 -52 -13 -4 -25 -1 -33 9 -13 16 -35 21 -25 6 5 -10 -35 -44 -43 -36 -7 7 49 69 70 77 11 4 17 4 13 -1 -8 -13 5 -41 19 -41 7 0 25 14 41 30 33 35 47 40 19 8z m76 12 c0 -5 -4 -10 -10 -10 -5 0 -10 -7 -10 -15 0 -8 -6 -12 -14 -9 -7 3 -21 -7 -30 -21 -16 -24 -36 -26 -36 -4 0 6 5 7 11 4 6 -4 13 2 16 14 3 12 9 21 14 21 5 0 9 7 9 15 0 9 9 15 25 15 14 0 25 -4 25 -10z m-771 -13 c8 -11 6 -18 -9 -32 -18 -17 -20 -17 -14 -2 3 9 10 17 16 17 5 0 6 5 3 10 -4 6 -11 7 -17 4 -7 -4 -8 -2 -4 4 9 15 11 15 25 -1z m129 -16 c-24 -31 -55 -51 -42 -28 12 22 47 57 57 57 4 0 -2 -13 -15 -29z m512 8 c0 -11 -4 -18 -10 -14 -5 3 -7 12 -3 20 7 21 13 19 13 -6z m519 12 c9 -6 10 -11 2 -15 -13 -8 -31 1 -31 15 0 11 11 11 29 0z m-679 -26 c-7 -8 -17 -12 -22 -9 -6 4 -5 10 3 15 22 14 33 10 19 -6z m43 -32 c-3 -7 -10 -13 -15 -13 -6 0 -5 6 2 15 9 10 9 15 1 15 -10 0 -15 -12 -13 -31 1 -3 -12 -19 -28 -34 -23 -22 -30 -25 -30 -12 0 9 9 21 20 27 11 6 20 21 20 33 0 34 20 51 36 30 6 -10 10 -23 7 -30z m-453 -10 c0 -13 -3 -13 -24 1 -18 11 -26 12 -29 3 -2 -6 -8 -8 -13 -4 -13 12 14 25 42 19 13 -2 24 -11 24 -19z m347 7 c-1 -12 -5 -16 -10 -11 -5 5 -6 14 -3 20 11 16 15 13 13 -9z m38 10 c6 -11 -23 -60 -36 -60 -4 0 -2 12 6 27 8 15 12 30 9 35 -3 4 -1 8 5 8 5 0 13 -4 16 -10z m291 -5 c-3 -8 -1 -15 4 -15 5 0 9 -10 8 -23 -2 -17 -8 -23 -25 -22 -39 0 -46 26 -15 52 32 27 36 28 28 8z m-101 -24 c-3 -6 -11 -11 -17 -11 -6 0 -6 6 2 15 14 17 26 13 15 -4z m-605 1 c0 -10 -22 -32 -32 -32 -4 0 -8 7 -8 16 0 8 5 12 10 9 6 -3 10 -1 10 4 0 6 5 11 10 11 6 0 10 -4 10 -8z m646 -31 c-4 -5 -1 -11 5 -13 7 -2 6 -8 -4 -17 -13 -10 -16 -10 -16 6 1 10 -3 29 -7 43 -7 24 -7 24 10 8 9 -10 15 -22 12 -27z m274 14 c-14 -17 -30 -20 -30 -4 0 5 4 8 9 5 5 -3 12 1 15 10 4 9 9 14 13 11 3 -4 0 -13 -7 -22z m-447 -2 c-3 -10 -15 -26 -25 -37 -11 -10 -17 -24 -15 -30 3 -7 1 -19 -5 -27 -8 -11 -9 -10 -4 4 3 11 0 20 -9 24 -12 4 -7 14 22 44 44 44 44 44 36 22z m47 7 c0 -5 -9 -14 -21 -20 -19 -11 -20 -10 -9 9 11 22 30 29 30 11z m407 -42 c-3 -8 -6 -5 -6 6 -1 11 2 17 5 13 3 -3 4 -12 1 -19z m-965 -10 c-7 -7 -12 -8 -12 -2 0 14 12 26 19 19 2 -3 -1 -11 -7 -17z m737 -2 c-2 -2 -15 -7 -29 -10 l-25 -7 25 21 c15 14 26 18 28 10 2 -6 2 -13 1 -14z m-209 -10 c0 -8 -4 -17 -8 -20 -13 -8 -35 11 -28 23 10 16 36 14 36 -3z"/> <path d="M2672 1281 c4 -19 31 -49 41 -44 11 6 8 23 -4 23 -7 0 -18 8 -26 18 -9 11 -12 13 -11 3z"/> <path d="M2730 1030 c0 -6 7 -10 15 -10 8 0 15 2 15 4 0 2 -7 6 -15 10 -8 3 -15 1 -15 -4z"/> <path d="M681 514 c0 -11 3 -14 6 -6 3 7 2 16 -1 19 -3 4 -6 -2 -5 -13z"/> <path d="M717 513 c-4 -3 -7 -11 -7 -17 0 -6 5 -5 12 2 6 6 9 14 7 17 -3 3 -9 2 -12 -2z"/> <path d="M1731 221 c-9 -16 -8 -18 9 -14 21 6 26 18 11 28 -6 3 -15 -3 -20 -14z"/> <path d="M166 1331 c-4 -5 3 -7 14 -4 23 6 26 13 6 13 -8 0 -17 -4 -20 -9z"/> <path d="M2612 1279 c-18 -96 -52 -197 -101 -294 -58 -115 -56 -109 -42 -101 37 23 139 283 157 400 3 22 8 44 10 48 3 5 1 8 -4 8 -4 0 -14 -27 -20 -61z"/> <path d="M1650 1322 c0 -12 19 -26 26 -19 2 2 -2 10 -11 17 -9 8 -15 8 -15 2z"/> <path d="M426 1302 c-3 -5 1 -17 8 -27 12 -17 13 -17 11 3 -2 26 -11 37 -19 24z"/> <path d="M1523 1288 c1 -22 4 -25 19 -17 21 11 24 21 4 13 -8 -3 -16 2 -19 13 -3 10 -4 7 -4 -9z"/> <path d="M221 1279 c-16 -16 -20 -24 -11 -29 9 -6 9 -9 0 -15 -6 -4 -14 -4 -17 -1 -3 3 -12 -2 -19 -12 -12 -15 -15 -15 -24 -2 -6 9 -10 10 -10 3 0 -7 6 -16 14 -20 7 -4 16 -15 19 -23 3 -9 6 -4 6 11 1 20 8 28 27 33 18 5 24 11 20 23 -4 9 1 24 10 34 23 26 13 24 -15 -2z"/> <path d="M370 1290 c-9 -6 -10 -10 -3 -10 6 0 15 5 18 10 8 12 4 12 -15 0z"/> <path d="M2281 1245 c-21 -66 -60 -146 -107 -216 -47 -72 -174 -198 -224 -224 -18 -9 -29 -19 -26 -22 21 -22 214 163 278 267 48 77 102 204 95 224 -2 6 -9 -7 -16 -29z"/> <path d="M252 1265 c4 -4 3 -14 -3 -22 -6 -7 -8 -13 -3 -13 5 0 3 -4 -4 -9 -20 -12 5 -50 29 -44 22 6 57 55 37 52 -31 -4 -47 2 -42 15 3 8 -1 17 -8 22 -7 4 -10 4 -6 -1z m24 -72 c-10 -10 -19 5 -10 18 6 11 8 11 12 0 2 -7 1 -15 -2 -18z"/> <path d="M336 1255 c-9 -26 -7 -32 5 -12 6 10 9 21 6 23 -2 3 -7 -2 -11 -11z"/> <path d="M2165 1250 c-49 -10 -92 -19 -95 -20 -3 -1 -8 -2 -12 -1 -4 0 -67 -10 -140 -24 -73 -13 -254 -45 -403 -70 -148 -26 -274 -50 -279 -55 -5 -5 -15 -6 -22 -3 -15 6 -216 -27 -224 -36 -3 -3 -12 -6 -20 -6 -8 0 -25 -19 -37 -42 -17 -34 -19 -41 -6 -36 11 4 14 2 9 -5 -4 -7 -15 -12 -23 -12 -13 0 -10 -7 12 -30 31 -32 48 -39 39 -15 -4 8 1 17 10 21 14 5 14 8 -1 30 -12 19 -13 27 -3 39 7 8 17 12 24 8 20 -13 36 -11 36 4 0 12 -3 13 -13 4 -9 -7 -17 -7 -23 -1 -7 7 -16 4 -28 -9 -14 -15 -15 -24 -7 -40 7 -12 7 -22 2 -26 -16 -9 -20 23 -10 80 2 6 18 11 38 12 64 4 81 7 81 15 0 4 11 8 25 8 19 0 23 -4 19 -17 -5 -15 -4 -15 4 -3 6 8 8 18 6 22 -3 4 20 8 50 8 31 0 56 5 56 10 0 6 7 10 17 10 14 0 14 -2 -2 -20 -19 -21 -7 -28 13 -8 18 18 15 -4 -4 -31 -16 -22 -16 -22 4 -10 11 7 19 16 17 20 -3 3 3 15 11 25 14 17 15 17 10 2 -3 -10 -1 -18 4 -18 14 0 13 37 -1 42 -6 2 13 5 43 6 29 1 54 6 56 11 2 5 17 7 33 4 17 -2 37 1 45 8 11 9 14 9 14 -2 0 -12 2 -12 9 0 5 8 16 11 24 8 9 -3 17 -2 19 3 2 5 32 12 68 16 36 3 68 11 71 16 3 5 9 9 13 7 3 -1 30 1 58 4 34 4 57 2 67 -6 12 -10 14 -9 9 4 -5 12 -1 17 15 18 77 5 105 9 124 20 30 15 43 14 37 -4 -5 -11 0 -14 19 -13 14 1 25 5 25 8 -2 21 5 27 24 22 11 -3 19 -1 16 4 -4 5 4 10 15 10 12 1 36 4 54 7 23 4 36 0 48 -13 16 -17 6 -38 -12 -27 -5 3 -16 -6 -26 -19 -20 -27 -14 -32 9 -9 9 8 20 15 25 15 16 0 10 -15 -12 -30 -33 -23 -49 -40 -49 -53 0 -7 7 -3 15 7 8 11 18 16 22 11 5 -4 2 -10 -4 -12 -7 -3 -13 -11 -13 -20 0 -9 -6 -12 -19 -8 -12 3 -21 0 -24 -9 -4 -11 -1 -13 10 -9 11 4 14 2 9 -5 -4 -7 -17 -12 -29 -12 -18 0 -19 -2 -7 -10 12 -8 12 -10 -3 -16 -9 -3 -17 -12 -17 -20 0 -14 -80 -101 -80 -87 -1 4 -9 -2 -19 -14 -10 -12 -22 -19 -26 -15 -5 4 -5 1 -1 -5 5 -9 -6 -19 -31 -30 -21 -10 -43 -25 -50 -33 -6 -8 -14 -12 -18 -8 -4 4 8 20 27 37 18 17 28 31 22 31 -7 0 -15 -7 -18 -16 -3 -8 -11 -12 -17 -8 -7 4 -18 -1 -25 -11 -20 -27 -29 -10 -10 19 9 15 22 23 30 20 8 -3 19 3 25 15 16 30 13 39 -5 13 -8 -12 -19 -20 -24 -17 -14 9 -50 -36 -48 -61 1 -12 6 -20 11 -17 5 3 7 0 5 -8 -3 -8 -15 -13 -27 -12 -12 2 -20 -1 -16 -6 3 -5 1 -12 -5 -16 -5 -3 -10 -1 -10 5 0 7 -7 9 -16 6 -8 -3 -12 -2 -9 4 3 6 1 10 -4 10 -15 0 -14 -27 2 -34 8 -4 7 -5 -3 -4 -19 2 -53 -13 -62 -26 -6 -8 -8 -8 -8 0 0 11 -28 13 -45 2 -22 -12 -64 -17 -70 -8 -3 5 -1 10 6 10 7 0 9 3 6 7 -4 4 5 20 20 36 l28 30 -29 -19 c-22 -14 -28 -15 -24 -4 6 20 -19 43 -37 36 -15 -5 -36 -47 -29 -55 7 -7 30 25 26 37 -2 6 1 12 8 12 6 0 9 -4 6 -9 -4 -5 -1 -11 4 -13 6 -2 -7 -20 -30 -40 -37 -35 -45 -37 -41 -14 1 5 -5 4 -13 -3 -30 -25 -161 -4 -263 44 -17 8 -38 15 -47 15 -9 0 -16 5 -16 10 0 6 -6 10 -14 10 -8 0 -18 5 -22 12 -5 7 -3 8 6 3 8 -5 11 -4 6 3 -4 6 -13 9 -21 6 -8 -3 -32 12 -57 36 -24 23 -35 39 -24 36 13 -5 17 -2 12 9 -3 9 6 25 21 39 l27 25 15 -30 c8 -17 20 -33 27 -36 15 -6 57 33 67 62 7 19 6 19 -7 2 -10 -13 -16 -15 -22 -6 -4 7 1 18 11 26 12 8 14 13 6 13 -8 0 -20 -8 -28 -17 -13 -16 -14 -16 -9 -1 4 15 1 15 -42 1 -26 -9 -51 -22 -55 -30 -5 -7 -12 -11 -18 -8 -5 3 -6 -1 -3 -9 3 -8 -3 -19 -14 -25 -34 -18 -19 -44 54 -93 142 -97 317 -145 489 -135 87 5 189 26 220 45 6 4 18 8 28 9 52 8 219 117 287 187 24 25 42 46 38 46 -3 0 10 16 29 36 18 20 56 82 83 137 48 98 58 128 43 126 -5 -1 -48 -9 -98 -19z m62 -37 c-3 -3 -11 -2 -17 2 -9 6 -9 10 1 16 14 8 27 -7 16 -18z m-189 -15 c-2 -6 -10 -14 -16 -16 -7 -2 -10 2 -6 12 7 18 28 22 22 4z m-938 -238 c0 -5 -5 -10 -11 -10 -5 0 -7 5 -4 10 3 6 8 10 11 10 2 0 4 -4 4 -10z m30 -31 c-6 -10 -15 -19 -20 -19 -13 0 -13 6 2 29 15 25 31 16 18 -10z m424 -184 c-6 -16 -24 -21 -24 -7 0 11 11 22 21 22 5 0 6 -7 3 -15z m-30 -40 c-6 -16 -24 -21 -24 -7 0 11 11 22 21 22 5 0 6 -7 3 -15z"/> <path d="M371 1250 c-1 -8 -10 -21 -22 -28 -14 -9 -18 -19 -14 -35 6 -20 5 -21 -8 -5 -8 10 -17 15 -20 11 -11 -11 -8 -23 6 -20 6 1 12 -5 12 -13 0 -8 -7 -14 -15 -12 -12 3 -13 1 -2 -9 10 -11 19 -5 50 27 20 21 48 46 61 55 19 12 21 16 8 16 -9 0 -17 -4 -17 -9 0 -4 -5 -8 -11 -8 -6 0 -8 7 -5 16 3 8 2 13 -3 9 -5 -3 -12 1 -14 7 -4 9 -6 8 -6 -2z m-5 -46 c-11 -7 -22 -12 -25 -9 -2 3 4 12 15 19 10 8 21 12 24 9 3 -2 -4 -11 -14 -19z"/> <path d="M550 1236 c0 -8 4 -17 9 -20 5 -4 7 3 4 14 -6 23 -13 26 -13 6z"/> <path d="M435 1201 c-6 -11 21 -41 38 -41 6 0 1 7 -11 16 -12 8 -20 20 -17 25 4 5 4 9 1 9 -3 0 -7 -4 -11 -9z"/> <path d="M365 1150 c-27 -27 -44 -50 -38 -50 6 0 16 7 23 15 7 8 17 12 23 8 5 -3 7 -1 3 5 -3 6 6 20 20 31 14 11 24 25 22 31 -2 6 -25 -12 -53 -40z"/> <path d="M560 1189 c0 -5 5 -7 10 -4 6 3 10 8 10 11 0 2 -4 4 -10 4 -5 0 -10 -5 -10 -11z"/> <path d="M1014 1179 c-3 -6 -14 -9 -25 -6 -10 3 -24 -3 -32 -12 -13 -14 -12 -18 3 -34 18 -18 18 -18 25 4 4 13 17 31 29 41 11 9 18 17 14 18 -4 0 -10 -5 -14 -11z"/> <path d="M2095 1176 c-10 -7 -15 -19 -12 -27 4 -10 6 -9 6 4 1 9 8 17 17 17 11 0 14 -6 9 -22 -3 -13 -3 -18 2 -13 5 6 11 12 15 15 3 3 1 13 -6 22 -11 15 -16 15 -31 4z"/> <path d="M607 1140 c-3 -11 -2 -20 3 -20 12 0 21 28 11 35 -5 2 -11 -4 -14 -15z"/> <path d="M396 1134 c-5 -14 -4 -15 9 -4 17 14 19 20 6 20 -5 0 -12 -7 -15 -16z"/> <path d="M1960 1135 c-7 -9 -11 -18 -8 -20 3 -3 11 1 18 10 7 9 11 18 8 20 -3 3 -11 -1 -18 -10z"/> <path d="M1796 1125 c4 -8 11 -15 16 -15 6 0 5 -6 -2 -15 -10 -12 -10 -15 4 -15 22 0 20 33 -4 47 -16 11 -18 10 -14 -2z"/> <path d="M1998 1133 c19 -8 14 -47 -9 -61 -18 -11 -24 -11 -38 2 -29 27 -35 18 -7 -10 24 -24 28 -26 44 -12 9 9 22 14 27 12 6 -2 10 13 10 34 0 31 -4 38 -20 39 -11 1 -14 -1 -7 -4z"/> <path d="M291 1113 c0 -12 -5 -24 -10 -27 -8 -6 -10 -63 -1 -58 3 1 15 5 27 8 13 4 20 10 17 15 -3 5 -14 4 -26 -2 -18 -10 -20 -9 -15 6 4 9 7 18 7 21 0 2 7 1 15 -2 8 -4 15 -1 15 6 0 6 -4 9 -9 5 -5 -3 -12 7 -14 22 -3 21 -4 23 -6 6z"/> <path d="M465 1119 c-4 -6 -5 -12 -2 -15 2 -3 7 2 10 11 7 17 1 20 -8 4z"/> <path d="M490 1108 c0 -9 -6 -19 -12 -21 -10 -4 -10 -6 0 -6 14 -1 28 26 18 36 -3 4 -6 -1 -6 -9z"/> <path d="M705 1109 c-11 -17 -2 -18 19 -3 17 12 17 14 4 14 -9 0 -20 -5 -23 -11z"/> <path d="M1850 1104 c-10 -11 -9 -14 4 -14 9 0 16 -4 16 -9 0 -15 -18 -23 -25 -11 -4 6 -11 7 -17 4 -5 -4 3 -15 19 -25 l28 -19 -26 0 c-15 0 -29 -7 -33 -15 -3 -8 -12 -15 -21 -15 -20 0 -58 -35 -61 -56 -1 -9 -6 -19 -10 -22 -4 -4 -4 1 -1 11 4 10 3 16 -2 13 -14 -9 -11 -67 5 -73 14 -5 68 46 59 56 -7 7 34 33 43 27 4 -2 14 -1 22 5 13 7 13 9 1 9 -11 0 -10 4 3 19 9 10 19 32 20 47 2 16 4 33 5 39 0 5 8 2 17 -7 16 -15 16 -18 0 -33 -23 -23 -20 -32 4 -10 11 10 23 16 26 13 3 -3 -4 -15 -15 -25 l-21 -20 22 2 c12 1 24 7 26 13 4 14 22 16 22 2 0 -5 -15 -17 -32 -26 -35 -18 -75 -54 -60 -54 5 0 15 7 22 15 7 9 19 14 26 11 7 -3 14 1 17 7 5 15 76 41 85 32 8 -8 -19 -25 -30 -19 -5 3 -20 -4 -34 -15 -15 -11 -30 -18 -34 -16 -5 3 -11 1 -15 -5 -3 -5 3 -10 14 -10 12 0 21 -4 21 -10 0 -5 -6 -8 -12 -6 -7 1 -10 1 -5 -1 4 -3 5 -9 2 -14 -4 -5 1 -6 10 -3 9 4 22 19 31 35 8 16 17 29 19 29 11 0 -3 -41 -20 -60 -10 -11 -14 -20 -9 -20 12 1 45 47 49 68 1 9 9 16 17 14 10 -1 14 7 14 32 -1 29 -3 33 -18 25 -10 -5 -18 -6 -18 -1 0 5 10 14 23 21 27 14 56 54 33 45 -8 -3 -17 -12 -20 -20 -3 -8 -12 -14 -20 -14 -8 0 -21 -9 -29 -20 -13 -19 -16 -17 -69 35 -48 45 -58 52 -68 39z m-44 -138 c-31 -30 -56 -59 -56 -64 0 -5 -7 -12 -15 -16 -21 -8 -19 6 4 31 11 12 17 24 13 29 -4 4 -1 4 6 0 6 -4 12 -3 12 3 0 5 -3 11 -7 14 -5 2 -2 2 5 1 7 -2 15 3 18 11 4 8 13 15 20 15 8 0 17 7 20 15 4 8 13 15 21 15 9 0 -9 -24 -41 -54z"/> <path d="M1975 1110 c-3 -5 -2 -10 4 -10 5 0 13 5 16 10 3 6 2 10 -4 10 -5 0 -13 -4 -16 -10z"/> <path d="M396 1096 c3 -8 1 -17 -5 -21 -6 -3 -11 -11 -11 -18 0 -15 29 25 30 41 0 6 -4 12 -10 12 -5 0 -7 -6 -4 -14z"/> <path d="M755 1099 c-11 -16 -1 -19 13 -3 7 8 8 14 3 14 -5 0 -13 -5 -16 -11z"/> <path d="M786 1094 c-4 -10 -1 -14 6 -12 15 5 23 28 10 28 -5 0 -13 -7 -16 -16z"/> <path d="M1677 1090 c-21 -25 -22 -31 0 -23 10 4 14 2 10 -4 -4 -6 -4 -19 -1 -28 6 -14 9 -13 30 6 13 12 24 30 24 38 0 13 -2 13 -9 2 -7 -11 -10 -11 -14 0 -5 11 -6 11 -6 -1 2 -28 -1 -40 -10 -40 -12 0 -11 41 2 58 16 20 -7 14 -26 -8z"/> <path d="M589 1083 c-13 -16 -12 -17 4 -4 9 7 17 15 17 17 0 8 -8 3 -21 -13z"/> <path d="M2097 1088 c-9 -7 -13 -18 -9 -24 5 -8 13 -4 25 12 19 26 11 32 -16 12z"/> <path d="M1770 1082 c0 -12 19 -26 26 -19 2 2 -2 10 -11 17 -9 8 -15 8 -15 2z"/> <path d="M468 1063 c7 -3 16 -2 19 1 4 3 -2 6 -13 5 -11 0 -14 -3 -6 -6z"/> <path d="M1500 1035 c-11 -13 -11 -18 0 -28 10 -9 11 -9 6 1 -4 7 -2 19 4 27 7 8 10 15 7 15 -2 0 -10 -7 -17 -15z"/> <path d="M916 1033 c-4 -4 -15 -8 -24 -8 -69 -5 -66 -1 -30 -45 l33 -39 14 32 c8 17 14 36 12 41 -1 5 4 13 11 17 7 5 8 9 2 9 -6 0 -14 -3 -18 -7z"/> <path d="M1721 1022 c-5 -8 -6 -23 -4 -32 3 -11 -3 -19 -16 -23 -21 -5 -30 -37 -11 -37 5 0 7 6 4 14 -3 8 3 16 15 19 12 3 21 12 21 21 0 10 6 14 18 10 16 -5 16 -5 0 6 -18 11 -26 36 -9 25 5 -3 12 -2 15 3 3 5 -2 9 -10 9 -8 0 -19 -7 -23 -15z"/> <path d="M380 1026 c0 -2 9 -6 20 -9 11 -3 18 -1 14 4 -5 9 -34 13 -34 5z"/> <path d="M1525 1021 c-3 -5 -2 -12 3 -15 5 -3 9 1 9 9 0 17 -3 19 -12 6z"/> <path d="M2233 1005 c-32 -22 -97 -115 -87 -124 5 -4 46 -35 90 -69 l81 -61 30 42 c17 23 28 48 25 56 -3 8 0 11 6 7 6 -3 15 9 22 28 9 28 8 40 -5 66 -31 60 -114 88 -162 55z m61 -11 c16 -6 12 -24 -5 -24 -6 0 -8 4 -5 9 4 5 0 12 -6 14 -7 3 -10 6 -6 6 3 1 13 -2 22 -5z m70 -55 c-3 -5 0 -9 5 -9 6 0 11 -4 11 -10 0 -21 -20 -9 -26 16 -5 19 -9 22 -15 12 -7 -11 -9 -10 -9 2 0 11 -2 12 -12 1 -11 -10 -10 -14 5 -22 20 -12 23 -62 4 -78 -10 -8 -25 -3 -60 22 -26 17 -47 37 -47 43 0 19 24 34 56 34 33 0 59 20 46 36 -4 5 5 -2 20 -15 15 -13 25 -28 22 -32z m-174 -54 c-7 -9 -15 -13 -18 -10 -3 2 1 11 8 20 7 9 15 13 18 10 3 -2 -1 -11 -8 -20z m40 -9 c0 -3 -4 -8 -10 -11 -5 -3 -10 -1 -10 4 0 6 5 11 10 11 6 0 10 -2 10 -4z m25 -15 c3 -5 1 -12 -5 -16 -5 -3 -10 1 -10 9 0 18 6 21 15 7z m80 -51 c-16 -17 -33 -30 -39 -30 -5 0 5 16 24 35 18 19 36 32 39 30 2 -3 -8 -19 -24 -35z m-40 10 c-3 -5 -11 -10 -16 -10 -6 0 -7 5 -4 10 3 6 11 10 16 10 6 0 7 -4 4 -10z"/> <path d="M851 948 c109 -125 273 -227 434 -269 112 -30 298 -30 409 0 87 23 216 79 216 93 0 4 -26 -5 -57 -21 -118 -61 -192 -76 -363 -76 -180 0 -242 15 -395 93 -73 38 -109 65 -189 144 -54 54 -101 98 -103 98 -3 0 19 -28 48 -62z"/> <path d="M1340 981 c0 -6 4 -13 10 -16 6 -3 7 1 4 9 -7 18 -14 21 -14 7z"/> <path d="M1426 945 c-3 -8 -1 -15 4 -15 6 0 10 7 10 15 0 8 -2 15 -4 15 -2 0 -6 -7 -10 -15z"/> <path d="M1042 928 c-16 -16 -15 -29 1 -22 8 3 14 11 14 19 0 18 0 18 -15 3z"/> <path d="M1337 930 c9 -9 9 -19 2 -32 -6 -11 -9 -22 -6 -24 2 -2 9 7 15 20 9 20 8 27 -6 37 -14 11 -15 11 -5 -1z"/> <path d="M1475 930 c-16 -7 -17 -9 -3 -9 9 -1 20 4 23 9 7 11 7 11 -20 0z"/> <path d="M1374 923 c7 -13 -10 -53 -28 -65 -7 -5 -5 -8 6 -8 21 0 43 59 27 74 -9 8 -10 8 -5 -1z"/> <path d="M1611 914 c0 -11 3 -14 6 -6 3 7 2 16 -1 19 -3 4 -6 -2 -5 -13z"/> <path d="M2409 815 c-23 -31 -39 -58 -37 -61 5 -4 61 66 82 104 18 31 -7 7 -45 -43z"/> <path d="M1080 849 c0 -5 5 -7 10 -4 6 3 10 8 10 11 0 2 -4 4 -10 4 -5 0 -10 -5 -10 -11z"/> <path d="M1646 839 c-17 -17 -17 -19 -2 -34 9 -9 16 -13 16 -8 0 4 7 -1 15 -11 12 -16 15 -16 15 -4 0 8 9 23 20 33 21 19 29 8 8 -13 -6 -6 -13 -24 -14 -39 -3 -26 -1 -25 20 12 23 41 19 69 -10 58 -8 -3 -22 1 -32 10 -15 13 -19 13 -36 -4z m34 -8 c0 -12 -20 -25 -27 -18 -7 7 6 27 18 27 5 0 9 -4 9 -9z"/> <path d="M2036 805 l-28 -22 63 -79 c34 -44 66 -83 70 -87 7 -9 59 20 59 32 0 3 -7 15 -15 25 -14 19 -15 19 -35 1 -14 -12 -20 -14 -20 -5 0 7 6 18 14 24 12 9 6 22 -33 72 l-47 61 -28 -22z m61 -62 c15 -12 10 -33 -8 -33 -6 0 -7 5 -4 11 4 6 0 16 -8 22 -8 7 -18 23 -22 37 l-7 25 18 -25 c9 -14 23 -30 31 -37z"/> <path d="M870 756 c-60 -93 -63 -113 -26 -154 50 -55 122 -74 160 -43 17 15 100 140 95 144 -2 2 -16 10 -30 19 l-26 16 -44 -66 c-48 -73 -67 -84 -98 -53 -25 25 -21 37 32 110 41 56 41 55 -4 81 -14 8 -25 -2 -59 -54z m43 -7 c-10 -19 -20 -36 -23 -39 -3 -3 -13 -21 -22 -40 -14 -28 -17 -31 -17 -13 -1 12 4 25 10 28 6 4 8 14 5 22 -3 8 -1 11 4 8 6 -3 10 1 10 9 0 9 5 16 12 16 6 0 8 3 5 7 -4 3 0 15 10 25 24 26 26 16 6 -23z m142 -75 c-9 -9 -19 -13 -23 -10 -3 4 0 11 8 16 24 15 33 11 15 -6z m-46 -63 c-13 -11 -26 -18 -28 -15 -7 7 21 34 36 34 10 0 8 -6 -8 -19z m-39 -31 c0 -5 -5 -10 -11 -10 -5 0 -7 5 -4 10 3 6 8 10 11 10 2 0 4 -4 4 -10z"/> <path d="M1610 733 c0 -10 4 -14 8 -8 4 6 11 13 16 18 5 4 2 7 -7 7 -10 0 -17 -8 -17 -17z"/> <path d="M1830 685 c-25 -13 -25 -16 -25 -134 0 -67 4 -121 8 -121 19 0 67 32 62 41 -9 13 36 58 52 52 7 -3 13 0 13 6 0 6 -5 11 -10 11 -7 0 -7 6 -2 18 5 9 7 23 5 30 -3 6 1 12 7 12 8 0 9 -10 5 -28 -4 -20 0 -35 12 -51 16 -19 21 -20 51 -9 17 7 32 16 32 20 0 14 -21 19 -35 8 -18 -15 -20 1 -3 18 10 10 8 14 -10 18 -12 4 -20 10 -17 14 8 12 -62 73 -76 65 -8 -5 -10 -4 -5 4 9 13 -10 41 -28 41 -6 -1 -22 -7 -36 -15z m54 -44 c4 -5 0 -12 -6 -14 -8 -4 -4 -8 9 -12 13 -4 20 -11 17 -17 -3 -5 0 -15 6 -23 10 -12 7 -17 -15 -25 -15 -6 -31 -12 -34 -14 -5 -3 -6 71 -2 107 1 10 19 9 25 -2z m-44 -11 c0 -5 -2 -10 -4 -10 -3 0 -8 5 -11 10 -3 6 -1 10 4 10 6 0 11 -4 11 -10z m140 -74 c0 -3 -4 -8 -10 -11 -5 -3 -10 -1 -10 4 0 6 5 11 10 11 6 0 10 -2 10 -4z m-107 -50 c-10 -13 -19 -23 -21 -21 -7 6 19 45 29 45 5 0 2 -11 -8 -24z m-29 -1 c-4 -8 -10 -12 -15 -9 -11 6 -2 24 11 24 5 0 7 -7 4 -15z"/> <path d="M348 673 c7 -3 16 -2 19 1 4 3 -2 6 -13 5 -11 0 -14 -3 -6 -6z"/> <path d="M1159 551 c-27 -115 -26 -119 15 -112 4 1 13 -3 20 -8 8 -6 12 5 13 42 1 28 7 54 15 58 7 5 9 9 4 9 -6 0 -2 6 7 13 16 11 15 12 -8 13 -14 1 -23 -1 -21 -5 3 -4 1 -13 -5 -21 -12 -21 -12 31 1 65 12 31 34 23 25 -8 -5 -17 -4 -19 4 -7 5 8 13 12 16 8 10 -10 13 -78 4 -72 -5 3 -9 -5 -9 -16 0 -16 4 -20 16 -16 12 5 15 2 10 -10 -13 -33 40 -94 83 -94 4 0 12 20 18 45 9 40 9 44 -5 33 -8 -7 -13 -8 -11 -3 3 6 15 32 28 58 28 59 25 88 -10 98 -25 6 -27 4 -39 -48 -12 -55 -7 -79 11 -53 8 11 8 8 3 -10 -4 -14 -7 -37 -6 -52 1 -15 -2 -30 -8 -33 -16 -10 -23 21 -10 44 8 16 8 21 -1 21 -7 0 -9 3 -6 6 5 5 -32 88 -68 151 -1 2 -15 5 -31 9 l-29 5 -26 -110z m141 -91 c-8 -5 -17 -6 -20 -3 -3 3 1 8 8 10 6 3 12 9 12 14 0 6 -4 7 -10 4 -11 -7 -14 8 -3 19 4 4 12 -2 17 -14 7 -16 6 -24 -4 -30z"/> <path d="M2430 635 c-7 -8 -20 -15 -28 -15 -12 0 -13 -3 -4 -12 8 -8 15 -8 27 2 13 11 15 10 9 -3 -4 -11 0 -16 13 -15 10 0 32 -5 50 -10 17 -6 34 -8 37 -4 13 12 5 22 -20 22 -14 0 -22 4 -19 10 3 5 0 7 -8 4 -9 -3 -16 3 -20 15 -6 25 -20 27 -37 6z"/> <path d="M1544 612 c3 -5 -7 -7 -23 -4 l-27 4 12 -84 c7 -45 13 -98 13 -117 1 -26 4 -32 17 -27 9 3 24 6 35 6 15 0 19 7 19 31 0 24 -4 30 -15 25 -8 -3 -15 -3 -15 0 0 12 33 53 48 59 13 5 12 2 -4 -16 l-19 -22 40 7 c52 10 70 27 73 72 4 57 -18 74 -95 74 -35 0 -62 -4 -59 -8z m123 -34 c6 -5 9 -16 6 -24 -8 -22 -22 -16 -16 7 4 16 2 20 -8 17 -8 -2 -15 -16 -17 -30 -4 -35 -50 -46 -62 -14 -10 28 -4 36 31 36 20 0 29 5 29 16 0 15 10 13 37 -8z m-97 3 c0 -6 -9 -9 -20 -8 -11 1 -20 5 -20 9 0 4 9 8 20 8 11 0 20 -4 20 -9z m-16 -55 c14 -22 14 -28 1 -58 -8 -18 -15 -28 -15 -23 -5 61 -7 105 -5 105 1 0 10 -11 19 -24z"/> <path d="M112 450 c0 -14 2 -19 5 -12 2 6 2 18 0 25 -3 6 -5 1 -5 -13z"/> <path d="M363 463 c9 -2 25 -2 35 0 9 3 1 5 -18 5 -19 0 -27 -2 -17 -5z"/> <path d="M445 450 c-3 -5 -1 -10 4 -10 6 0 11 5 11 10 0 6 -2 10 -4 10 -3 0 -8 -4 -11 -10z"/> <path d="M210 396 c0 -2 8 -10 18 -17 15 -13 16 -12 3 4 -13 16 -21 21 -21 13z"/> <path d="M392 360 c0 -14 2 -19 5 -12 2 6 2 18 0 25 -3 6 -5 1 -5 -13z"/> </g> </svg> 